<?xml version="1.0" encoding="utf-8" standalone="no"?>
<!DOCTYPE svg PUBLIC "-//W3C//DTD SVG 1.1//EN"
  "http://www.w3.org/Graphics/SVG/1.1/DTD/svg11.dtd">
<svg xmlns:xlink="http://www.w3.org/1999/xlink" width="2160pt" height="2880pt" viewBox="0 0 2160 2880" xmlns="http://www.w3.org/2000/svg" version="1.1">
 <metadata>
  <rdf:RDF xmlns:dc="http://purl.org/dc/elements/1.1/" xmlns:cc="http://creativecommons.org/ns#" xmlns:rdf="http://www.w3.org/1999/02/22-rdf-syntax-ns#">
   <cc:Work>
    <dc:type rdf:resource="http://purl.org/dc/dcmitype/StillImage"/>
    <dc:date>2025-02-09T14:59:59.103337</dc:date>
    <dc:format>image/svg+xml</dc:format>
    <dc:creator>
     <cc:Agent>
      <dc:title>Matplotlib v3.10.0, https://matplotlib.org/</dc:title>
     </cc:Agent>
    </dc:creator>
   </cc:Work>
  </rdf:RDF>
 </metadata>
 <defs>
  <style type="text/css">*{stroke-linejoin: round; stroke-linecap: butt}</style>
 </defs>
 <g id="figure_1">
  <g id="patch_1">
   <path d="M 0 2880 
L 2160 2880 
L 2160 0 
L 0 0 
z
" style="fill: #ffffff"/>
  </g>
  <g id="axes_1">
   <g id="patch_2">
    <path d="M 316.88 2830.58875 
L 2143.575 2830.58875 
L 2143.575 12.96 
L 316.88 12.96 
z
" style="fill: #eaeaf2"/>
   </g>
   <g id="matplotlib.axis_1">
    <g id="xtick_1">
     <g id="line2d_1">
      <path d="M 2143.575 2830.58875 
L 2143.575 12.96 
" clip-path="url(#pdf194bba91)" style="fill: none; stroke: #ffffff; stroke-linecap: round"/>
     </g>
     <g id="line2d_2">
      <defs>
       <path id="me34b5519f4" d="M 0 0 
L 0 5 
" style="stroke: #262626"/>
      </defs>
      <g>
       <use xlink:href="#me34b5519f4" x="2143.575" y="2830.58875" style="fill: #262626; stroke: #262626"/>
      </g>
     </g>
     <g id="text_1">
      <!-- 0 -->
      <g style="fill: #262626" transform="translate(2140.075625 2847.447031) scale(0.11 -0.11)">
       <defs>
        <path id="DejaVuSans-30" d="M 2034 4250 
Q 1547 4250 1301 3770 
Q 1056 3291 1056 2328 
Q 1056 1369 1301 889 
Q 1547 409 2034 409 
Q 2525 409 2770 889 
Q 3016 1369 3016 2328 
Q 3016 3291 2770 3770 
Q 2525 4250 2034 4250 
z
M 2034 4750 
Q 2819 4750 3233 4129 
Q 3647 3509 3647 2328 
Q 3647 1150 3233 529 
Q 2819 -91 2034 -91 
Q 1250 -91 836 529 
Q 422 1150 422 2328 
Q 422 3509 836 4129 
Q 1250 4750 2034 4750 
z
" transform="scale(0.015625)"/>
       </defs>
       <use xlink:href="#DejaVuSans-30"/>
      </g>
     </g>
    </g>
    <g id="text_2">
     <!-- difference_operations -->
     <g style="fill: #262626" transform="translate(1165.084375 2862.852812) scale(0.12 -0.12)">
      <defs>
       <path id="DejaVuSans-64" d="M 2906 2969 
L 2906 4863 
L 3481 4863 
L 3481 0 
L 2906 0 
L 2906 525 
Q 2725 213 2448 61 
Q 2172 -91 1784 -91 
Q 1150 -91 751 415 
Q 353 922 353 1747 
Q 353 2572 751 3078 
Q 1150 3584 1784 3584 
Q 2172 3584 2448 3432 
Q 2725 3281 2906 2969 
z
M 947 1747 
Q 947 1113 1208 752 
Q 1469 391 1925 391 
Q 2381 391 2643 752 
Q 2906 1113 2906 1747 
Q 2906 2381 2643 2742 
Q 2381 3103 1925 3103 
Q 1469 3103 1208 2742 
Q 947 2381 947 1747 
z
" transform="scale(0.015625)"/>
       <path id="DejaVuSans-69" d="M 603 3500 
L 1178 3500 
L 1178 0 
L 603 0 
L 603 3500 
z
M 603 4863 
L 1178 4863 
L 1178 4134 
L 603 4134 
L 603 4863 
z
" transform="scale(0.015625)"/>
       <path id="DejaVuSans-66" d="M 2375 4863 
L 2375 4384 
L 1825 4384 
Q 1516 4384 1395 4259 
Q 1275 4134 1275 3809 
L 1275 3500 
L 2222 3500 
L 2222 3053 
L 1275 3053 
L 1275 0 
L 697 0 
L 697 3053 
L 147 3053 
L 147 3500 
L 697 3500 
L 697 3744 
Q 697 4328 969 4595 
Q 1241 4863 1831 4863 
L 2375 4863 
z
" transform="scale(0.015625)"/>
       <path id="DejaVuSans-65" d="M 3597 1894 
L 3597 1613 
L 953 1613 
Q 991 1019 1311 708 
Q 1631 397 2203 397 
Q 2534 397 2845 478 
Q 3156 559 3463 722 
L 3463 178 
Q 3153 47 2828 -22 
Q 2503 -91 2169 -91 
Q 1331 -91 842 396 
Q 353 884 353 1716 
Q 353 2575 817 3079 
Q 1281 3584 2069 3584 
Q 2775 3584 3186 3129 
Q 3597 2675 3597 1894 
z
M 3022 2063 
Q 3016 2534 2758 2815 
Q 2500 3097 2075 3097 
Q 1594 3097 1305 2825 
Q 1016 2553 972 2059 
L 3022 2063 
z
" transform="scale(0.015625)"/>
       <path id="DejaVuSans-72" d="M 2631 2963 
Q 2534 3019 2420 3045 
Q 2306 3072 2169 3072 
Q 1681 3072 1420 2755 
Q 1159 2438 1159 1844 
L 1159 0 
L 581 0 
L 581 3500 
L 1159 3500 
L 1159 2956 
Q 1341 3275 1631 3429 
Q 1922 3584 2338 3584 
Q 2397 3584 2469 3576 
Q 2541 3569 2628 3553 
L 2631 2963 
z
" transform="scale(0.015625)"/>
       <path id="DejaVuSans-6e" d="M 3513 2113 
L 3513 0 
L 2938 0 
L 2938 2094 
Q 2938 2591 2744 2837 
Q 2550 3084 2163 3084 
Q 1697 3084 1428 2787 
Q 1159 2491 1159 1978 
L 1159 0 
L 581 0 
L 581 3500 
L 1159 3500 
L 1159 2956 
Q 1366 3272 1645 3428 
Q 1925 3584 2291 3584 
Q 2894 3584 3203 3211 
Q 3513 2838 3513 2113 
z
" transform="scale(0.015625)"/>
       <path id="DejaVuSans-63" d="M 3122 3366 
L 3122 2828 
Q 2878 2963 2633 3030 
Q 2388 3097 2138 3097 
Q 1578 3097 1268 2742 
Q 959 2388 959 1747 
Q 959 1106 1268 751 
Q 1578 397 2138 397 
Q 2388 397 2633 464 
Q 2878 531 3122 666 
L 3122 134 
Q 2881 22 2623 -34 
Q 2366 -91 2075 -91 
Q 1284 -91 818 406 
Q 353 903 353 1747 
Q 353 2603 823 3093 
Q 1294 3584 2113 3584 
Q 2378 3584 2631 3529 
Q 2884 3475 3122 3366 
z
" transform="scale(0.015625)"/>
       <path id="DejaVuSans-5f" d="M 3263 -1063 
L 3263 -1509 
L -63 -1509 
L -63 -1063 
L 3263 -1063 
z
" transform="scale(0.015625)"/>
       <path id="DejaVuSans-6f" d="M 1959 3097 
Q 1497 3097 1228 2736 
Q 959 2375 959 1747 
Q 959 1119 1226 758 
Q 1494 397 1959 397 
Q 2419 397 2687 759 
Q 2956 1122 2956 1747 
Q 2956 2369 2687 2733 
Q 2419 3097 1959 3097 
z
M 1959 3584 
Q 2709 3584 3137 3096 
Q 3566 2609 3566 1747 
Q 3566 888 3137 398 
Q 2709 -91 1959 -91 
Q 1206 -91 779 398 
Q 353 888 353 1747 
Q 353 2609 779 3096 
Q 1206 3584 1959 3584 
z
" transform="scale(0.015625)"/>
       <path id="DejaVuSans-70" d="M 1159 525 
L 1159 -1331 
L 581 -1331 
L 581 3500 
L 1159 3500 
L 1159 2969 
Q 1341 3281 1617 3432 
Q 1894 3584 2278 3584 
Q 2916 3584 3314 3078 
Q 3713 2572 3713 1747 
Q 3713 922 3314 415 
Q 2916 -91 2278 -91 
Q 1894 -91 1617 61 
Q 1341 213 1159 525 
z
M 3116 1747 
Q 3116 2381 2855 2742 
Q 2594 3103 2138 3103 
Q 1681 3103 1420 2742 
Q 1159 2381 1159 1747 
Q 1159 1113 1420 752 
Q 1681 391 2138 391 
Q 2594 391 2855 752 
Q 3116 1113 3116 1747 
z
" transform="scale(0.015625)"/>
       <path id="DejaVuSans-61" d="M 2194 1759 
Q 1497 1759 1228 1600 
Q 959 1441 959 1056 
Q 959 750 1161 570 
Q 1363 391 1709 391 
Q 2188 391 2477 730 
Q 2766 1069 2766 1631 
L 2766 1759 
L 2194 1759 
z
M 3341 1997 
L 3341 0 
L 2766 0 
L 2766 531 
Q 2569 213 2275 61 
Q 1981 -91 1556 -91 
Q 1019 -91 701 211 
Q 384 513 384 1019 
Q 384 1609 779 1909 
Q 1175 2209 1959 2209 
L 2766 2209 
L 2766 2266 
Q 2766 2663 2505 2880 
Q 2244 3097 1772 3097 
Q 1472 3097 1187 3025 
Q 903 2953 641 2809 
L 641 3341 
Q 956 3463 1253 3523 
Q 1550 3584 1831 3584 
Q 2591 3584 2966 3190 
Q 3341 2797 3341 1997 
z
" transform="scale(0.015625)"/>
       <path id="DejaVuSans-74" d="M 1172 4494 
L 1172 3500 
L 2356 3500 
L 2356 3053 
L 1172 3053 
L 1172 1153 
Q 1172 725 1289 603 
Q 1406 481 1766 481 
L 2356 481 
L 2356 0 
L 1766 0 
Q 1100 0 847 248 
Q 594 497 594 1153 
L 594 3053 
L 172 3053 
L 172 3500 
L 594 3500 
L 594 4494 
L 1172 4494 
z
" transform="scale(0.015625)"/>
       <path id="DejaVuSans-73" d="M 2834 3397 
L 2834 2853 
Q 2591 2978 2328 3040 
Q 2066 3103 1784 3103 
Q 1356 3103 1142 2972 
Q 928 2841 928 2578 
Q 928 2378 1081 2264 
Q 1234 2150 1697 2047 
L 1894 2003 
Q 2506 1872 2764 1633 
Q 3022 1394 3022 966 
Q 3022 478 2636 193 
Q 2250 -91 1575 -91 
Q 1294 -91 989 -36 
Q 684 19 347 128 
L 347 722 
Q 666 556 975 473 
Q 1284 391 1588 391 
Q 1994 391 2212 530 
Q 2431 669 2431 922 
Q 2431 1156 2273 1281 
Q 2116 1406 1581 1522 
L 1381 1569 
Q 847 1681 609 1914 
Q 372 2147 372 2553 
Q 372 3047 722 3315 
Q 1072 3584 1716 3584 
Q 2034 3584 2315 3537 
Q 2597 3491 2834 3397 
z
" transform="scale(0.015625)"/>
      </defs>
      <use xlink:href="#DejaVuSans-64"/>
      <use xlink:href="#DejaVuSans-69" transform="translate(63.476562 0)"/>
      <use xlink:href="#DejaVuSans-66" transform="translate(91.259766 0)"/>
      <use xlink:href="#DejaVuSans-66" transform="translate(126.464844 0)"/>
      <use xlink:href="#DejaVuSans-65" transform="translate(161.669922 0)"/>
      <use xlink:href="#DejaVuSans-72" transform="translate(223.193359 0)"/>
      <use xlink:href="#DejaVuSans-65" transform="translate(262.056641 0)"/>
      <use xlink:href="#DejaVuSans-6e" transform="translate(323.580078 0)"/>
      <use xlink:href="#DejaVuSans-63" transform="translate(386.958984 0)"/>
      <use xlink:href="#DejaVuSans-65" transform="translate(441.939453 0)"/>
      <use xlink:href="#DejaVuSans-5f" transform="translate(503.462891 0)"/>
      <use xlink:href="#DejaVuSans-6f" transform="translate(553.462891 0)"/>
      <use xlink:href="#DejaVuSans-70" transform="translate(614.644531 0)"/>
      <use xlink:href="#DejaVuSans-65" transform="translate(678.121094 0)"/>
      <use xlink:href="#DejaVuSans-72" transform="translate(739.644531 0)"/>
      <use xlink:href="#DejaVuSans-61" transform="translate(780.757812 0)"/>
      <use xlink:href="#DejaVuSans-74" transform="translate(842.037109 0)"/>
      <use xlink:href="#DejaVuSans-69" transform="translate(881.246094 0)"/>
      <use xlink:href="#DejaVuSans-6f" transform="translate(909.029297 0)"/>
      <use xlink:href="#DejaVuSans-6e" transform="translate(970.210938 0)"/>
      <use xlink:href="#DejaVuSans-73" transform="translate(1033.589844 0)"/>
     </g>
    </g>
   </g>
   <g id="matplotlib.axis_2">
    <g id="ytick_1">
     <g id="line2d_3">
      <defs>
       <path id="me7a7e430d6" d="M 0 0 
L -5 0 
" style="stroke: #262626"/>
      </defs>
      <g>
       <use xlink:href="#me7a7e430d6" x="316.88" y="130.361198" style="fill: #262626; stroke: #262626"/>
      </g>
     </g>
     <g id="text_3">
      <!-- /object/distributed-object/create -->
      <g style="fill: #262626" transform="translate(130.699062 134.540339) scale(0.11 -0.11)">
       <defs>
        <path id="DejaVuSans-2f" d="M 1625 4666 
L 2156 4666 
L 531 -594 
L 0 -594 
L 1625 4666 
z
" transform="scale(0.015625)"/>
        <path id="DejaVuSans-62" d="M 3116 1747 
Q 3116 2381 2855 2742 
Q 2594 3103 2138 3103 
Q 1681 3103 1420 2742 
Q 1159 2381 1159 1747 
Q 1159 1113 1420 752 
Q 1681 391 2138 391 
Q 2594 391 2855 752 
Q 3116 1113 3116 1747 
z
M 1159 2969 
Q 1341 3281 1617 3432 
Q 1894 3584 2278 3584 
Q 2916 3584 3314 3078 
Q 3713 2572 3713 1747 
Q 3713 922 3314 415 
Q 2916 -91 2278 -91 
Q 1894 -91 1617 61 
Q 1341 213 1159 525 
L 1159 0 
L 581 0 
L 581 4863 
L 1159 4863 
L 1159 2969 
z
" transform="scale(0.015625)"/>
        <path id="DejaVuSans-6a" d="M 603 3500 
L 1178 3500 
L 1178 -63 
Q 1178 -731 923 -1031 
Q 669 -1331 103 -1331 
L -116 -1331 
L -116 -844 
L 38 -844 
Q 366 -844 484 -692 
Q 603 -541 603 -63 
L 603 3500 
z
M 603 4863 
L 1178 4863 
L 1178 4134 
L 603 4134 
L 603 4863 
z
" transform="scale(0.015625)"/>
        <path id="DejaVuSans-75" d="M 544 1381 
L 544 3500 
L 1119 3500 
L 1119 1403 
Q 1119 906 1312 657 
Q 1506 409 1894 409 
Q 2359 409 2629 706 
Q 2900 1003 2900 1516 
L 2900 3500 
L 3475 3500 
L 3475 0 
L 2900 0 
L 2900 538 
Q 2691 219 2414 64 
Q 2138 -91 1772 -91 
Q 1169 -91 856 284 
Q 544 659 544 1381 
z
M 1991 3584 
L 1991 3584 
z
" transform="scale(0.015625)"/>
        <path id="DejaVuSans-2d" d="M 313 2009 
L 1997 2009 
L 1997 1497 
L 313 1497 
L 313 2009 
z
" transform="scale(0.015625)"/>
       </defs>
       <use xlink:href="#DejaVuSans-2f"/>
       <use xlink:href="#DejaVuSans-6f" transform="translate(33.691406 0)"/>
       <use xlink:href="#DejaVuSans-62" transform="translate(94.873047 0)"/>
       <use xlink:href="#DejaVuSans-6a" transform="translate(158.349609 0)"/>
       <use xlink:href="#DejaVuSans-65" transform="translate(186.132812 0)"/>
       <use xlink:href="#DejaVuSans-63" transform="translate(247.65625 0)"/>
       <use xlink:href="#DejaVuSans-74" transform="translate(302.636719 0)"/>
       <use xlink:href="#DejaVuSans-2f" transform="translate(341.845703 0)"/>
       <use xlink:href="#DejaVuSans-64" transform="translate(375.537109 0)"/>
       <use xlink:href="#DejaVuSans-69" transform="translate(439.013672 0)"/>
       <use xlink:href="#DejaVuSans-73" transform="translate(466.796875 0)"/>
       <use xlink:href="#DejaVuSans-74" transform="translate(518.896484 0)"/>
       <use xlink:href="#DejaVuSans-72" transform="translate(558.105469 0)"/>
       <use xlink:href="#DejaVuSans-69" transform="translate(599.21875 0)"/>
       <use xlink:href="#DejaVuSans-62" transform="translate(627.001953 0)"/>
       <use xlink:href="#DejaVuSans-75" transform="translate(690.478516 0)"/>
       <use xlink:href="#DejaVuSans-74" transform="translate(753.857422 0)"/>
       <use xlink:href="#DejaVuSans-65" transform="translate(793.066406 0)"/>
       <use xlink:href="#DejaVuSans-64" transform="translate(854.589844 0)"/>
       <use xlink:href="#DejaVuSans-2d" transform="translate(918.066406 0)"/>
       <use xlink:href="#DejaVuSans-6f" transform="translate(956.025391 0)"/>
       <use xlink:href="#DejaVuSans-62" transform="translate(1017.207031 0)"/>
       <use xlink:href="#DejaVuSans-6a" transform="translate(1080.683594 0)"/>
       <use xlink:href="#DejaVuSans-65" transform="translate(1108.466797 0)"/>
       <use xlink:href="#DejaVuSans-63" transform="translate(1169.990234 0)"/>
       <use xlink:href="#DejaVuSans-74" transform="translate(1224.970703 0)"/>
       <use xlink:href="#DejaVuSans-2f" transform="translate(1264.179688 0)"/>
       <use xlink:href="#DejaVuSans-63" transform="translate(1297.871094 0)"/>
       <use xlink:href="#DejaVuSans-72" transform="translate(1352.851562 0)"/>
       <use xlink:href="#DejaVuSans-65" transform="translate(1391.714844 0)"/>
       <use xlink:href="#DejaVuSans-61" transform="translate(1453.238281 0)"/>
       <use xlink:href="#DejaVuSans-74" transform="translate(1514.517578 0)"/>
       <use xlink:href="#DejaVuSans-65" transform="translate(1553.726562 0)"/>
      </g>
     </g>
    </g>
    <g id="ytick_2">
     <g id="line2d_4">
      <g>
       <use xlink:href="#me7a7e430d6" x="316.88" y="365.163594" style="fill: #262626; stroke: #262626"/>
      </g>
     </g>
     <g id="text_4">
      <!-- /object/distributed-object/delete -->
      <g style="fill: #262626" transform="translate(130.955156 369.342734) scale(0.11 -0.11)">
       <defs>
        <path id="DejaVuSans-6c" d="M 603 4863 
L 1178 4863 
L 1178 0 
L 603 0 
L 603 4863 
z
" transform="scale(0.015625)"/>
       </defs>
       <use xlink:href="#DejaVuSans-2f"/>
       <use xlink:href="#DejaVuSans-6f" transform="translate(33.691406 0)"/>
       <use xlink:href="#DejaVuSans-62" transform="translate(94.873047 0)"/>
       <use xlink:href="#DejaVuSans-6a" transform="translate(158.349609 0)"/>
       <use xlink:href="#DejaVuSans-65" transform="translate(186.132812 0)"/>
       <use xlink:href="#DejaVuSans-63" transform="translate(247.65625 0)"/>
       <use xlink:href="#DejaVuSans-74" transform="translate(302.636719 0)"/>
       <use xlink:href="#DejaVuSans-2f" transform="translate(341.845703 0)"/>
       <use xlink:href="#DejaVuSans-64" transform="translate(375.537109 0)"/>
       <use xlink:href="#DejaVuSans-69" transform="translate(439.013672 0)"/>
       <use xlink:href="#DejaVuSans-73" transform="translate(466.796875 0)"/>
       <use xlink:href="#DejaVuSans-74" transform="translate(518.896484 0)"/>
       <use xlink:href="#DejaVuSans-72" transform="translate(558.105469 0)"/>
       <use xlink:href="#DejaVuSans-69" transform="translate(599.21875 0)"/>
       <use xlink:href="#DejaVuSans-62" transform="translate(627.001953 0)"/>
       <use xlink:href="#DejaVuSans-75" transform="translate(690.478516 0)"/>
       <use xlink:href="#DejaVuSans-74" transform="translate(753.857422 0)"/>
       <use xlink:href="#DejaVuSans-65" transform="translate(793.066406 0)"/>
       <use xlink:href="#DejaVuSans-64" transform="translate(854.589844 0)"/>
       <use xlink:href="#DejaVuSans-2d" transform="translate(918.066406 0)"/>
       <use xlink:href="#DejaVuSans-6f" transform="translate(956.025391 0)"/>
       <use xlink:href="#DejaVuSans-62" transform="translate(1017.207031 0)"/>
       <use xlink:href="#DejaVuSans-6a" transform="translate(1080.683594 0)"/>
       <use xlink:href="#DejaVuSans-65" transform="translate(1108.466797 0)"/>
       <use xlink:href="#DejaVuSans-63" transform="translate(1169.990234 0)"/>
       <use xlink:href="#DejaVuSans-74" transform="translate(1224.970703 0)"/>
       <use xlink:href="#DejaVuSans-2f" transform="translate(1264.179688 0)"/>
       <use xlink:href="#DejaVuSans-64" transform="translate(1297.871094 0)"/>
       <use xlink:href="#DejaVuSans-65" transform="translate(1361.347656 0)"/>
       <use xlink:href="#DejaVuSans-6c" transform="translate(1422.871094 0)"/>
       <use xlink:href="#DejaVuSans-65" transform="translate(1450.654297 0)"/>
       <use xlink:href="#DejaVuSans-74" transform="translate(1512.177734 0)"/>
       <use xlink:href="#DejaVuSans-65" transform="translate(1551.386719 0)"/>
      </g>
     </g>
    </g>
    <g id="ytick_3">
     <g id="line2d_5">
      <g>
       <use xlink:href="#me7a7e430d6" x="316.88" y="599.96599" style="fill: #262626; stroke: #262626"/>
      </g>
     </g>
     <g id="text_5">
      <!-- /object/distributed-object/read -->
      <g style="fill: #262626" transform="translate(140.844844 604.14513) scale(0.11 -0.11)">
       <use xlink:href="#DejaVuSans-2f"/>
       <use xlink:href="#DejaVuSans-6f" transform="translate(33.691406 0)"/>
       <use xlink:href="#DejaVuSans-62" transform="translate(94.873047 0)"/>
       <use xlink:href="#DejaVuSans-6a" transform="translate(158.349609 0)"/>
       <use xlink:href="#DejaVuSans-65" transform="translate(186.132812 0)"/>
       <use xlink:href="#DejaVuSans-63" transform="translate(247.65625 0)"/>
       <use xlink:href="#DejaVuSans-74" transform="translate(302.636719 0)"/>
       <use xlink:href="#DejaVuSans-2f" transform="translate(341.845703 0)"/>
       <use xlink:href="#DejaVuSans-64" transform="translate(375.537109 0)"/>
       <use xlink:href="#DejaVuSans-69" transform="translate(439.013672 0)"/>
       <use xlink:href="#DejaVuSans-73" transform="translate(466.796875 0)"/>
       <use xlink:href="#DejaVuSans-74" transform="translate(518.896484 0)"/>
       <use xlink:href="#DejaVuSans-72" transform="translate(558.105469 0)"/>
       <use xlink:href="#DejaVuSans-69" transform="translate(599.21875 0)"/>
       <use xlink:href="#DejaVuSans-62" transform="translate(627.001953 0)"/>
       <use xlink:href="#DejaVuSans-75" transform="translate(690.478516 0)"/>
       <use xlink:href="#DejaVuSans-74" transform="translate(753.857422 0)"/>
       <use xlink:href="#DejaVuSans-65" transform="translate(793.066406 0)"/>
       <use xlink:href="#DejaVuSans-64" transform="translate(854.589844 0)"/>
       <use xlink:href="#DejaVuSans-2d" transform="translate(918.066406 0)"/>
       <use xlink:href="#DejaVuSans-6f" transform="translate(956.025391 0)"/>
       <use xlink:href="#DejaVuSans-62" transform="translate(1017.207031 0)"/>
       <use xlink:href="#DejaVuSans-6a" transform="translate(1080.683594 0)"/>
       <use xlink:href="#DejaVuSans-65" transform="translate(1108.466797 0)"/>
       <use xlink:href="#DejaVuSans-63" transform="translate(1169.990234 0)"/>
       <use xlink:href="#DejaVuSans-74" transform="translate(1224.970703 0)"/>
       <use xlink:href="#DejaVuSans-2f" transform="translate(1264.179688 0)"/>
       <use xlink:href="#DejaVuSans-72" transform="translate(1297.871094 0)"/>
       <use xlink:href="#DejaVuSans-65" transform="translate(1336.734375 0)"/>
       <use xlink:href="#DejaVuSans-61" transform="translate(1398.257812 0)"/>
       <use xlink:href="#DejaVuSans-64" transform="translate(1459.537109 0)"/>
      </g>
     </g>
    </g>
    <g id="ytick_4">
     <g id="line2d_6">
      <g>
       <use xlink:href="#me7a7e430d6" x="316.88" y="834.768385" style="fill: #262626; stroke: #262626"/>
      </g>
     </g>
     <g id="text_6">
      <!-- /object/distributed-object/status -->
      <g style="fill: #262626" transform="translate(131.814531 838.947526) scale(0.11 -0.11)">
       <use xlink:href="#DejaVuSans-2f"/>
       <use xlink:href="#DejaVuSans-6f" transform="translate(33.691406 0)"/>
       <use xlink:href="#DejaVuSans-62" transform="translate(94.873047 0)"/>
       <use xlink:href="#DejaVuSans-6a" transform="translate(158.349609 0)"/>
       <use xlink:href="#DejaVuSans-65" transform="translate(186.132812 0)"/>
       <use xlink:href="#DejaVuSans-63" transform="translate(247.65625 0)"/>
       <use xlink:href="#DejaVuSans-74" transform="translate(302.636719 0)"/>
       <use xlink:href="#DejaVuSans-2f" transform="translate(341.845703 0)"/>
       <use xlink:href="#DejaVuSans-64" transform="translate(375.537109 0)"/>
       <use xlink:href="#DejaVuSans-69" transform="translate(439.013672 0)"/>
       <use xlink:href="#DejaVuSans-73" transform="translate(466.796875 0)"/>
       <use xlink:href="#DejaVuSans-74" transform="translate(518.896484 0)"/>
       <use xlink:href="#DejaVuSans-72" transform="translate(558.105469 0)"/>
       <use xlink:href="#DejaVuSans-69" transform="translate(599.21875 0)"/>
       <use xlink:href="#DejaVuSans-62" transform="translate(627.001953 0)"/>
       <use xlink:href="#DejaVuSans-75" transform="translate(690.478516 0)"/>
       <use xlink:href="#DejaVuSans-74" transform="translate(753.857422 0)"/>
       <use xlink:href="#DejaVuSans-65" transform="translate(793.066406 0)"/>
       <use xlink:href="#DejaVuSans-64" transform="translate(854.589844 0)"/>
       <use xlink:href="#DejaVuSans-2d" transform="translate(918.066406 0)"/>
       <use xlink:href="#DejaVuSans-6f" transform="translate(956.025391 0)"/>
       <use xlink:href="#DejaVuSans-62" transform="translate(1017.207031 0)"/>
       <use xlink:href="#DejaVuSans-6a" transform="translate(1080.683594 0)"/>
       <use xlink:href="#DejaVuSans-65" transform="translate(1108.466797 0)"/>
       <use xlink:href="#DejaVuSans-63" transform="translate(1169.990234 0)"/>
       <use xlink:href="#DejaVuSans-74" transform="translate(1224.970703 0)"/>
       <use xlink:href="#DejaVuSans-2f" transform="translate(1264.179688 0)"/>
       <use xlink:href="#DejaVuSans-73" transform="translate(1297.871094 0)"/>
       <use xlink:href="#DejaVuSans-74" transform="translate(1349.970703 0)"/>
       <use xlink:href="#DejaVuSans-61" transform="translate(1389.179688 0)"/>
       <use xlink:href="#DejaVuSans-74" transform="translate(1450.458984 0)"/>
       <use xlink:href="#DejaVuSans-75" transform="translate(1489.667969 0)"/>
       <use xlink:href="#DejaVuSans-73" transform="translate(1553.046875 0)"/>
      </g>
     </g>
    </g>
    <g id="ytick_5">
     <g id="line2d_7">
      <g>
       <use xlink:href="#me7a7e430d6" x="316.88" y="1069.570781" style="fill: #262626; stroke: #262626"/>
      </g>
     </g>
     <g id="text_7">
      <!-- /object/distributed-object/unordered-create-delete -->
      <g style="fill: #262626" transform="translate(31.324375 1073.749922) scale(0.11 -0.11)">
       <use xlink:href="#DejaVuSans-2f"/>
       <use xlink:href="#DejaVuSans-6f" transform="translate(33.691406 0)"/>
       <use xlink:href="#DejaVuSans-62" transform="translate(94.873047 0)"/>
       <use xlink:href="#DejaVuSans-6a" transform="translate(158.349609 0)"/>
       <use xlink:href="#DejaVuSans-65" transform="translate(186.132812 0)"/>
       <use xlink:href="#DejaVuSans-63" transform="translate(247.65625 0)"/>
       <use xlink:href="#DejaVuSans-74" transform="translate(302.636719 0)"/>
       <use xlink:href="#DejaVuSans-2f" transform="translate(341.845703 0)"/>
       <use xlink:href="#DejaVuSans-64" transform="translate(375.537109 0)"/>
       <use xlink:href="#DejaVuSans-69" transform="translate(439.013672 0)"/>
       <use xlink:href="#DejaVuSans-73" transform="translate(466.796875 0)"/>
       <use xlink:href="#DejaVuSans-74" transform="translate(518.896484 0)"/>
       <use xlink:href="#DejaVuSans-72" transform="translate(558.105469 0)"/>
       <use xlink:href="#DejaVuSans-69" transform="translate(599.21875 0)"/>
       <use xlink:href="#DejaVuSans-62" transform="translate(627.001953 0)"/>
       <use xlink:href="#DejaVuSans-75" transform="translate(690.478516 0)"/>
       <use xlink:href="#DejaVuSans-74" transform="translate(753.857422 0)"/>
       <use xlink:href="#DejaVuSans-65" transform="translate(793.066406 0)"/>
       <use xlink:href="#DejaVuSans-64" transform="translate(854.589844 0)"/>
       <use xlink:href="#DejaVuSans-2d" transform="translate(918.066406 0)"/>
       <use xlink:href="#DejaVuSans-6f" transform="translate(956.025391 0)"/>
       <use xlink:href="#DejaVuSans-62" transform="translate(1017.207031 0)"/>
       <use xlink:href="#DejaVuSans-6a" transform="translate(1080.683594 0)"/>
       <use xlink:href="#DejaVuSans-65" transform="translate(1108.466797 0)"/>
       <use xlink:href="#DejaVuSans-63" transform="translate(1169.990234 0)"/>
       <use xlink:href="#DejaVuSans-74" transform="translate(1224.970703 0)"/>
       <use xlink:href="#DejaVuSans-2f" transform="translate(1264.179688 0)"/>
       <use xlink:href="#DejaVuSans-75" transform="translate(1297.871094 0)"/>
       <use xlink:href="#DejaVuSans-6e" transform="translate(1361.25 0)"/>
       <use xlink:href="#DejaVuSans-6f" transform="translate(1424.628906 0)"/>
       <use xlink:href="#DejaVuSans-72" transform="translate(1485.810547 0)"/>
       <use xlink:href="#DejaVuSans-64" transform="translate(1525.173828 0)"/>
       <use xlink:href="#DejaVuSans-65" transform="translate(1588.650391 0)"/>
       <use xlink:href="#DejaVuSans-72" transform="translate(1650.173828 0)"/>
       <use xlink:href="#DejaVuSans-65" transform="translate(1689.037109 0)"/>
       <use xlink:href="#DejaVuSans-64" transform="translate(1750.560547 0)"/>
       <use xlink:href="#DejaVuSans-2d" transform="translate(1814.037109 0)"/>
       <use xlink:href="#DejaVuSans-63" transform="translate(1850.121094 0)"/>
       <use xlink:href="#DejaVuSans-72" transform="translate(1905.101562 0)"/>
       <use xlink:href="#DejaVuSans-65" transform="translate(1943.964844 0)"/>
       <use xlink:href="#DejaVuSans-61" transform="translate(2005.488281 0)"/>
       <use xlink:href="#DejaVuSans-74" transform="translate(2066.767578 0)"/>
       <use xlink:href="#DejaVuSans-65" transform="translate(2105.976562 0)"/>
       <use xlink:href="#DejaVuSans-2d" transform="translate(2167.5 0)"/>
       <use xlink:href="#DejaVuSans-64" transform="translate(2203.583984 0)"/>
       <use xlink:href="#DejaVuSans-65" transform="translate(2267.060547 0)"/>
       <use xlink:href="#DejaVuSans-6c" transform="translate(2328.583984 0)"/>
       <use xlink:href="#DejaVuSans-65" transform="translate(2356.367188 0)"/>
       <use xlink:href="#DejaVuSans-74" transform="translate(2417.890625 0)"/>
       <use xlink:href="#DejaVuSans-65" transform="translate(2457.099609 0)"/>
      </g>
     </g>
    </g>
    <g id="ytick_6">
     <g id="line2d_8">
      <g>
       <use xlink:href="#me7a7e430d6" x="316.88" y="1304.373177" style="fill: #262626; stroke: #262626"/>
      </g>
     </g>
     <g id="text_8">
      <!-- /object/distributed-object/write -->
      <g style="fill: #262626" transform="translate(137.957344 1308.552318) scale(0.11 -0.11)">
       <defs>
        <path id="DejaVuSans-77" d="M 269 3500 
L 844 3500 
L 1563 769 
L 2278 3500 
L 2956 3500 
L 3675 769 
L 4391 3500 
L 4966 3500 
L 4050 0 
L 3372 0 
L 2619 2869 
L 1863 0 
L 1184 0 
L 269 3500 
z
" transform="scale(0.015625)"/>
       </defs>
       <use xlink:href="#DejaVuSans-2f"/>
       <use xlink:href="#DejaVuSans-6f" transform="translate(33.691406 0)"/>
       <use xlink:href="#DejaVuSans-62" transform="translate(94.873047 0)"/>
       <use xlink:href="#DejaVuSans-6a" transform="translate(158.349609 0)"/>
       <use xlink:href="#DejaVuSans-65" transform="translate(186.132812 0)"/>
       <use xlink:href="#DejaVuSans-63" transform="translate(247.65625 0)"/>
       <use xlink:href="#DejaVuSans-74" transform="translate(302.636719 0)"/>
       <use xlink:href="#DejaVuSans-2f" transform="translate(341.845703 0)"/>
       <use xlink:href="#DejaVuSans-64" transform="translate(375.537109 0)"/>
       <use xlink:href="#DejaVuSans-69" transform="translate(439.013672 0)"/>
       <use xlink:href="#DejaVuSans-73" transform="translate(466.796875 0)"/>
       <use xlink:href="#DejaVuSans-74" transform="translate(518.896484 0)"/>
       <use xlink:href="#DejaVuSans-72" transform="translate(558.105469 0)"/>
       <use xlink:href="#DejaVuSans-69" transform="translate(599.21875 0)"/>
       <use xlink:href="#DejaVuSans-62" transform="translate(627.001953 0)"/>
       <use xlink:href="#DejaVuSans-75" transform="translate(690.478516 0)"/>
       <use xlink:href="#DejaVuSans-74" transform="translate(753.857422 0)"/>
       <use xlink:href="#DejaVuSans-65" transform="translate(793.066406 0)"/>
       <use xlink:href="#DejaVuSans-64" transform="translate(854.589844 0)"/>
       <use xlink:href="#DejaVuSans-2d" transform="translate(918.066406 0)"/>
       <use xlink:href="#DejaVuSans-6f" transform="translate(956.025391 0)"/>
       <use xlink:href="#DejaVuSans-62" transform="translate(1017.207031 0)"/>
       <use xlink:href="#DejaVuSans-6a" transform="translate(1080.683594 0)"/>
       <use xlink:href="#DejaVuSans-65" transform="translate(1108.466797 0)"/>
       <use xlink:href="#DejaVuSans-63" transform="translate(1169.990234 0)"/>
       <use xlink:href="#DejaVuSans-74" transform="translate(1224.970703 0)"/>
       <use xlink:href="#DejaVuSans-2f" transform="translate(1264.179688 0)"/>
       <use xlink:href="#DejaVuSans-77" transform="translate(1297.871094 0)"/>
       <use xlink:href="#DejaVuSans-72" transform="translate(1379.658203 0)"/>
       <use xlink:href="#DejaVuSans-69" transform="translate(1420.771484 0)"/>
       <use xlink:href="#DejaVuSans-74" transform="translate(1448.554688 0)"/>
       <use xlink:href="#DejaVuSans-65" transform="translate(1487.763672 0)"/>
      </g>
     </g>
    </g>
    <g id="ytick_7">
     <g id="line2d_9">
      <g>
       <use xlink:href="#me7a7e430d6" x="316.88" y="1539.175573" style="fill: #262626; stroke: #262626"/>
      </g>
     </g>
     <g id="text_9">
      <!-- /object/object/create -->
      <g style="fill: #262626" transform="translate(194.552344 1543.354714) scale(0.11 -0.11)">
       <use xlink:href="#DejaVuSans-2f"/>
       <use xlink:href="#DejaVuSans-6f" transform="translate(33.691406 0)"/>
       <use xlink:href="#DejaVuSans-62" transform="translate(94.873047 0)"/>
       <use xlink:href="#DejaVuSans-6a" transform="translate(158.349609 0)"/>
       <use xlink:href="#DejaVuSans-65" transform="translate(186.132812 0)"/>
       <use xlink:href="#DejaVuSans-63" transform="translate(247.65625 0)"/>
       <use xlink:href="#DejaVuSans-74" transform="translate(302.636719 0)"/>
       <use xlink:href="#DejaVuSans-2f" transform="translate(341.845703 0)"/>
       <use xlink:href="#DejaVuSans-6f" transform="translate(375.537109 0)"/>
       <use xlink:href="#DejaVuSans-62" transform="translate(436.71875 0)"/>
       <use xlink:href="#DejaVuSans-6a" transform="translate(500.195312 0)"/>
       <use xlink:href="#DejaVuSans-65" transform="translate(527.978516 0)"/>
       <use xlink:href="#DejaVuSans-63" transform="translate(589.501953 0)"/>
       <use xlink:href="#DejaVuSans-74" transform="translate(644.482422 0)"/>
       <use xlink:href="#DejaVuSans-2f" transform="translate(683.691406 0)"/>
       <use xlink:href="#DejaVuSans-63" transform="translate(717.382812 0)"/>
       <use xlink:href="#DejaVuSans-72" transform="translate(772.363281 0)"/>
       <use xlink:href="#DejaVuSans-65" transform="translate(811.226562 0)"/>
       <use xlink:href="#DejaVuSans-61" transform="translate(872.75 0)"/>
       <use xlink:href="#DejaVuSans-74" transform="translate(934.029297 0)"/>
       <use xlink:href="#DejaVuSans-65" transform="translate(973.238281 0)"/>
      </g>
     </g>
    </g>
    <g id="ytick_8">
     <g id="line2d_10">
      <g>
       <use xlink:href="#me7a7e430d6" x="316.88" y="1773.977969" style="fill: #262626; stroke: #262626"/>
      </g>
     </g>
     <g id="text_10">
      <!-- /object/object/delete -->
      <g style="fill: #262626" transform="translate(194.808437 1778.157109) scale(0.11 -0.11)">
       <use xlink:href="#DejaVuSans-2f"/>
       <use xlink:href="#DejaVuSans-6f" transform="translate(33.691406 0)"/>
       <use xlink:href="#DejaVuSans-62" transform="translate(94.873047 0)"/>
       <use xlink:href="#DejaVuSans-6a" transform="translate(158.349609 0)"/>
       <use xlink:href="#DejaVuSans-65" transform="translate(186.132812 0)"/>
       <use xlink:href="#DejaVuSans-63" transform="translate(247.65625 0)"/>
       <use xlink:href="#DejaVuSans-74" transform="translate(302.636719 0)"/>
       <use xlink:href="#DejaVuSans-2f" transform="translate(341.845703 0)"/>
       <use xlink:href="#DejaVuSans-6f" transform="translate(375.537109 0)"/>
       <use xlink:href="#DejaVuSans-62" transform="translate(436.71875 0)"/>
       <use xlink:href="#DejaVuSans-6a" transform="translate(500.195312 0)"/>
       <use xlink:href="#DejaVuSans-65" transform="translate(527.978516 0)"/>
       <use xlink:href="#DejaVuSans-63" transform="translate(589.501953 0)"/>
       <use xlink:href="#DejaVuSans-74" transform="translate(644.482422 0)"/>
       <use xlink:href="#DejaVuSans-2f" transform="translate(683.691406 0)"/>
       <use xlink:href="#DejaVuSans-64" transform="translate(717.382812 0)"/>
       <use xlink:href="#DejaVuSans-65" transform="translate(780.859375 0)"/>
       <use xlink:href="#DejaVuSans-6c" transform="translate(842.382812 0)"/>
       <use xlink:href="#DejaVuSans-65" transform="translate(870.166016 0)"/>
       <use xlink:href="#DejaVuSans-74" transform="translate(931.689453 0)"/>
       <use xlink:href="#DejaVuSans-65" transform="translate(970.898438 0)"/>
      </g>
     </g>
    </g>
    <g id="ytick_9">
     <g id="line2d_11">
      <g>
       <use xlink:href="#me7a7e430d6" x="316.88" y="2008.780365" style="fill: #262626; stroke: #262626"/>
      </g>
     </g>
     <g id="text_11">
      <!-- /object/object/read -->
      <g style="fill: #262626" transform="translate(204.698125 2012.959505) scale(0.11 -0.11)">
       <use xlink:href="#DejaVuSans-2f"/>
       <use xlink:href="#DejaVuSans-6f" transform="translate(33.691406 0)"/>
       <use xlink:href="#DejaVuSans-62" transform="translate(94.873047 0)"/>
       <use xlink:href="#DejaVuSans-6a" transform="translate(158.349609 0)"/>
       <use xlink:href="#DejaVuSans-65" transform="translate(186.132812 0)"/>
       <use xlink:href="#DejaVuSans-63" transform="translate(247.65625 0)"/>
       <use xlink:href="#DejaVuSans-74" transform="translate(302.636719 0)"/>
       <use xlink:href="#DejaVuSans-2f" transform="translate(341.845703 0)"/>
       <use xlink:href="#DejaVuSans-6f" transform="translate(375.537109 0)"/>
       <use xlink:href="#DejaVuSans-62" transform="translate(436.71875 0)"/>
       <use xlink:href="#DejaVuSans-6a" transform="translate(500.195312 0)"/>
       <use xlink:href="#DejaVuSans-65" transform="translate(527.978516 0)"/>
       <use xlink:href="#DejaVuSans-63" transform="translate(589.501953 0)"/>
       <use xlink:href="#DejaVuSans-74" transform="translate(644.482422 0)"/>
       <use xlink:href="#DejaVuSans-2f" transform="translate(683.691406 0)"/>
       <use xlink:href="#DejaVuSans-72" transform="translate(717.382812 0)"/>
       <use xlink:href="#DejaVuSans-65" transform="translate(756.246094 0)"/>
       <use xlink:href="#DejaVuSans-61" transform="translate(817.769531 0)"/>
       <use xlink:href="#DejaVuSans-64" transform="translate(879.048828 0)"/>
      </g>
     </g>
    </g>
    <g id="ytick_10">
     <g id="line2d_12">
      <g>
       <use xlink:href="#me7a7e430d6" x="316.88" y="2243.58276" style="fill: #262626; stroke: #262626"/>
      </g>
     </g>
     <g id="text_12">
      <!-- /object/object/status -->
      <g style="fill: #262626" transform="translate(195.667812 2247.761901) scale(0.11 -0.11)">
       <use xlink:href="#DejaVuSans-2f"/>
       <use xlink:href="#DejaVuSans-6f" transform="translate(33.691406 0)"/>
       <use xlink:href="#DejaVuSans-62" transform="translate(94.873047 0)"/>
       <use xlink:href="#DejaVuSans-6a" transform="translate(158.349609 0)"/>
       <use xlink:href="#DejaVuSans-65" transform="translate(186.132812 0)"/>
       <use xlink:href="#DejaVuSans-63" transform="translate(247.65625 0)"/>
       <use xlink:href="#DejaVuSans-74" transform="translate(302.636719 0)"/>
       <use xlink:href="#DejaVuSans-2f" transform="translate(341.845703 0)"/>
       <use xlink:href="#DejaVuSans-6f" transform="translate(375.537109 0)"/>
       <use xlink:href="#DejaVuSans-62" transform="translate(436.71875 0)"/>
       <use xlink:href="#DejaVuSans-6a" transform="translate(500.195312 0)"/>
       <use xlink:href="#DejaVuSans-65" transform="translate(527.978516 0)"/>
       <use xlink:href="#DejaVuSans-63" transform="translate(589.501953 0)"/>
       <use xlink:href="#DejaVuSans-74" transform="translate(644.482422 0)"/>
       <use xlink:href="#DejaVuSans-2f" transform="translate(683.691406 0)"/>
       <use xlink:href="#DejaVuSans-73" transform="translate(717.382812 0)"/>
       <use xlink:href="#DejaVuSans-74" transform="translate(769.482422 0)"/>
       <use xlink:href="#DejaVuSans-61" transform="translate(808.691406 0)"/>
       <use xlink:href="#DejaVuSans-74" transform="translate(869.970703 0)"/>
       <use xlink:href="#DejaVuSans-75" transform="translate(909.179688 0)"/>
       <use xlink:href="#DejaVuSans-73" transform="translate(972.558594 0)"/>
      </g>
     </g>
    </g>
    <g id="ytick_11">
     <g id="line2d_13">
      <g>
       <use xlink:href="#me7a7e430d6" x="316.88" y="2478.385156" style="fill: #262626; stroke: #262626"/>
      </g>
     </g>
     <g id="text_13">
      <!-- /object/object/unordered-create-delete -->
      <g style="fill: #262626" transform="translate(95.177656 2482.564297) scale(0.11 -0.11)">
       <use xlink:href="#DejaVuSans-2f"/>
       <use xlink:href="#DejaVuSans-6f" transform="translate(33.691406 0)"/>
       <use xlink:href="#DejaVuSans-62" transform="translate(94.873047 0)"/>
       <use xlink:href="#DejaVuSans-6a" transform="translate(158.349609 0)"/>
       <use xlink:href="#DejaVuSans-65" transform="translate(186.132812 0)"/>
       <use xlink:href="#DejaVuSans-63" transform="translate(247.65625 0)"/>
       <use xlink:href="#DejaVuSans-74" transform="translate(302.636719 0)"/>
       <use xlink:href="#DejaVuSans-2f" transform="translate(341.845703 0)"/>
       <use xlink:href="#DejaVuSans-6f" transform="translate(375.537109 0)"/>
       <use xlink:href="#DejaVuSans-62" transform="translate(436.71875 0)"/>
       <use xlink:href="#DejaVuSans-6a" transform="translate(500.195312 0)"/>
       <use xlink:href="#DejaVuSans-65" transform="translate(527.978516 0)"/>
       <use xlink:href="#DejaVuSans-63" transform="translate(589.501953 0)"/>
       <use xlink:href="#DejaVuSans-74" transform="translate(644.482422 0)"/>
       <use xlink:href="#DejaVuSans-2f" transform="translate(683.691406 0)"/>
       <use xlink:href="#DejaVuSans-75" transform="translate(717.382812 0)"/>
       <use xlink:href="#DejaVuSans-6e" transform="translate(780.761719 0)"/>
       <use xlink:href="#DejaVuSans-6f" transform="translate(844.140625 0)"/>
       <use xlink:href="#DejaVuSans-72" transform="translate(905.322266 0)"/>
       <use xlink:href="#DejaVuSans-64" transform="translate(944.685547 0)"/>
       <use xlink:href="#DejaVuSans-65" transform="translate(1008.162109 0)"/>
       <use xlink:href="#DejaVuSans-72" transform="translate(1069.685547 0)"/>
       <use xlink:href="#DejaVuSans-65" transform="translate(1108.548828 0)"/>
       <use xlink:href="#DejaVuSans-64" transform="translate(1170.072266 0)"/>
       <use xlink:href="#DejaVuSans-2d" transform="translate(1233.548828 0)"/>
       <use xlink:href="#DejaVuSans-63" transform="translate(1269.632812 0)"/>
       <use xlink:href="#DejaVuSans-72" transform="translate(1324.613281 0)"/>
       <use xlink:href="#DejaVuSans-65" transform="translate(1363.476562 0)"/>
       <use xlink:href="#DejaVuSans-61" transform="translate(1425 0)"/>
       <use xlink:href="#DejaVuSans-74" transform="translate(1486.279297 0)"/>
       <use xlink:href="#DejaVuSans-65" transform="translate(1525.488281 0)"/>
       <use xlink:href="#DejaVuSans-2d" transform="translate(1587.011719 0)"/>
       <use xlink:href="#DejaVuSans-64" transform="translate(1623.095703 0)"/>
       <use xlink:href="#DejaVuSans-65" transform="translate(1686.572266 0)"/>
       <use xlink:href="#DejaVuSans-6c" transform="translate(1748.095703 0)"/>
       <use xlink:href="#DejaVuSans-65" transform="translate(1775.878906 0)"/>
       <use xlink:href="#DejaVuSans-74" transform="translate(1837.402344 0)"/>
       <use xlink:href="#DejaVuSans-65" transform="translate(1876.611328 0)"/>
      </g>
     </g>
    </g>
    <g id="ytick_12">
     <g id="line2d_14">
      <g>
       <use xlink:href="#me7a7e430d6" x="316.88" y="2713.187552" style="fill: #262626; stroke: #262626"/>
      </g>
     </g>
     <g id="text_14">
      <!-- /object/object/write -->
      <g style="fill: #262626" transform="translate(201.810625 2717.366693) scale(0.11 -0.11)">
       <use xlink:href="#DejaVuSans-2f"/>
       <use xlink:href="#DejaVuSans-6f" transform="translate(33.691406 0)"/>
       <use xlink:href="#DejaVuSans-62" transform="translate(94.873047 0)"/>
       <use xlink:href="#DejaVuSans-6a" transform="translate(158.349609 0)"/>
       <use xlink:href="#DejaVuSans-65" transform="translate(186.132812 0)"/>
       <use xlink:href="#DejaVuSans-63" transform="translate(247.65625 0)"/>
       <use xlink:href="#DejaVuSans-74" transform="translate(302.636719 0)"/>
       <use xlink:href="#DejaVuSans-2f" transform="translate(341.845703 0)"/>
       <use xlink:href="#DejaVuSans-6f" transform="translate(375.537109 0)"/>
       <use xlink:href="#DejaVuSans-62" transform="translate(436.71875 0)"/>
       <use xlink:href="#DejaVuSans-6a" transform="translate(500.195312 0)"/>
       <use xlink:href="#DejaVuSans-65" transform="translate(527.978516 0)"/>
       <use xlink:href="#DejaVuSans-63" transform="translate(589.501953 0)"/>
       <use xlink:href="#DejaVuSans-74" transform="translate(644.482422 0)"/>
       <use xlink:href="#DejaVuSans-2f" transform="translate(683.691406 0)"/>
       <use xlink:href="#DejaVuSans-77" transform="translate(717.382812 0)"/>
       <use xlink:href="#DejaVuSans-72" transform="translate(799.169922 0)"/>
       <use xlink:href="#DejaVuSans-69" transform="translate(840.283203 0)"/>
       <use xlink:href="#DejaVuSans-74" transform="translate(868.066406 0)"/>
       <use xlink:href="#DejaVuSans-65" transform="translate(907.275391 0)"/>
      </g>
     </g>
    </g>
    <g id="text_15">
     <!-- name -->
     <g style="fill: #262626" transform="translate(24.82875 1438.79) rotate(-90) scale(0.12 -0.12)">
      <defs>
       <path id="DejaVuSans-6d" d="M 3328 2828 
Q 3544 3216 3844 3400 
Q 4144 3584 4550 3584 
Q 5097 3584 5394 3201 
Q 5691 2819 5691 2113 
L 5691 0 
L 5113 0 
L 5113 2094 
Q 5113 2597 4934 2840 
Q 4756 3084 4391 3084 
Q 3944 3084 3684 2787 
Q 3425 2491 3425 1978 
L 3425 0 
L 2847 0 
L 2847 2094 
Q 2847 2600 2669 2842 
Q 2491 3084 2119 3084 
Q 1678 3084 1418 2786 
Q 1159 2488 1159 1978 
L 1159 0 
L 581 0 
L 581 3500 
L 1159 3500 
L 1159 2956 
Q 1356 3278 1631 3431 
Q 1906 3584 2284 3584 
Q 2666 3584 2933 3390 
Q 3200 3197 3328 2828 
z
" transform="scale(0.015625)"/>
      </defs>
      <use xlink:href="#DejaVuSans-6e"/>
      <use xlink:href="#DejaVuSans-61" transform="translate(63.378906 0)"/>
      <use xlink:href="#DejaVuSans-6d" transform="translate(124.658203 0)"/>
      <use xlink:href="#DejaVuSans-65" transform="translate(222.070312 0)"/>
     </g>
    </g>
   </g>
   <g id="patch_3">
    <path d="M 2143.575 36.44024 
L 403.865476 36.44024 
L 403.865476 224.282156 
L 2143.575 224.282156 
z
" clip-path="url(#pdf194bba91)" style="fill: #5875a4; stroke: #ffffff; stroke-linejoin: miter"/>
   </g>
   <g id="patch_4">
    <path d="M 2143.575 271.242635 
L 771.629796 271.242635 
L 771.629796 459.084552 
L 2143.575 459.084552 
z
" clip-path="url(#pdf194bba91)" style="fill: #5875a4; stroke: #ffffff; stroke-linejoin: miter"/>
   </g>
   <g id="patch_5">
    <path d="M 2143.575 506.045031 
L 595.060492 506.045031 
L 595.060492 693.886948 
L 2143.575 693.886948 
z
" clip-path="url(#pdf194bba91)" style="fill: #5875a4; stroke: #ffffff; stroke-linejoin: miter"/>
   </g>
   <g id="patch_6">
    <path d="M 2143.575 740.847427 
L 893.39932 740.847427 
L 893.39932 928.689344 
L 2143.575 928.689344 
z
" clip-path="url(#pdf194bba91)" style="fill: #5875a4; stroke: #ffffff; stroke-linejoin: miter"/>
   </g>
   <g id="patch_7">
    <path d="M 2143.575 975.649823 
L 893.058686 975.649823 
L 893.058686 1163.49174 
L 2143.575 1163.49174 
z
" clip-path="url(#pdf194bba91)" style="fill: #5875a4; stroke: #ffffff; stroke-linejoin: miter"/>
   </g>
   <g id="patch_8">
    <path d="M 2143.575 1210.452219 
L 513.007544 1210.452219 
L 513.007544 1398.294135 
L 2143.575 1398.294135 
z
" clip-path="url(#pdf194bba91)" style="fill: #5875a4; stroke: #ffffff; stroke-linejoin: miter"/>
   </g>
   <g id="patch_9">
    <path d="M 2143.575 1445.254615 
L 1157.147653 1445.254615 
L 1157.147653 1633.096531 
L 2143.575 1633.096531 
z
" clip-path="url(#pdf194bba91)" style="fill: #5875a4; stroke: #ffffff; stroke-linejoin: miter"/>
   </g>
   <g id="patch_10">
    <path d="M 2143.575 1680.05701 
L 1077.538646 1680.05701 
L 1077.538646 1867.898927 
L 2143.575 1867.898927 
z
" clip-path="url(#pdf194bba91)" style="fill: #5875a4; stroke: #ffffff; stroke-linejoin: miter"/>
   </g>
   <g id="patch_11">
    <path d="M 2143.575 1914.859406 
L 702.51853 1914.859406 
L 702.51853 2102.701323 
L 2143.575 2102.701323 
z
" clip-path="url(#pdf194bba91)" style="fill: #5875a4; stroke: #ffffff; stroke-linejoin: miter"/>
   </g>
   <g id="patch_12">
    <path d="M 2143.575 2149.661802 
L 950.192113 2149.661802 
L 950.192113 2337.503719 
L 2143.575 2337.503719 
z
" clip-path="url(#pdf194bba91)" style="fill: #5875a4; stroke: #ffffff; stroke-linejoin: miter"/>
   </g>
   <g id="patch_13">
    <path d="M 2143.575 2384.464198 
L 812.0367 2384.464198 
L 812.0367 2572.306115 
L 2143.575 2572.306115 
z
" clip-path="url(#pdf194bba91)" style="fill: #5875a4; stroke: #ffffff; stroke-linejoin: miter"/>
   </g>
   <g id="patch_14">
    <path d="M 2143.575 2619.266594 
L 528.88549 2619.266594 
L 528.88549 2807.10851 
L 2143.575 2807.10851 
z
" clip-path="url(#pdf194bba91)" style="fill: #5875a4; stroke: #ffffff; stroke-linejoin: miter"/>
   </g>
   <g id="line2d_15">
    <path clip-path="url(#pdf194bba91)" style="fill: none; stroke: #424242; stroke-width: 2.25; stroke-linecap: round"/>
   </g>
   <g id="line2d_16">
    <path clip-path="url(#pdf194bba91)" style="fill: none; stroke: #424242; stroke-width: 2.25; stroke-linecap: round"/>
   </g>
   <g id="line2d_17">
    <path clip-path="url(#pdf194bba91)" style="fill: none; stroke: #424242; stroke-width: 2.25; stroke-linecap: round"/>
   </g>
   <g id="line2d_18">
    <path clip-path="url(#pdf194bba91)" style="fill: none; stroke: #424242; stroke-width: 2.25; stroke-linecap: round"/>
   </g>
   <g id="line2d_19">
    <path clip-path="url(#pdf194bba91)" style="fill: none; stroke: #424242; stroke-width: 2.25; stroke-linecap: round"/>
   </g>
   <g id="line2d_20">
    <path clip-path="url(#pdf194bba91)" style="fill: none; stroke: #424242; stroke-width: 2.25; stroke-linecap: round"/>
   </g>
   <g id="line2d_21">
    <path clip-path="url(#pdf194bba91)" style="fill: none; stroke: #424242; stroke-width: 2.25; stroke-linecap: round"/>
   </g>
   <g id="line2d_22">
    <path clip-path="url(#pdf194bba91)" style="fill: none; stroke: #424242; stroke-width: 2.25; stroke-linecap: round"/>
   </g>
   <g id="line2d_23">
    <path clip-path="url(#pdf194bba91)" style="fill: none; stroke: #424242; stroke-width: 2.25; stroke-linecap: round"/>
   </g>
   <g id="line2d_24">
    <path clip-path="url(#pdf194bba91)" style="fill: none; stroke: #424242; stroke-width: 2.25; stroke-linecap: round"/>
   </g>
   <g id="line2d_25">
    <path clip-path="url(#pdf194bba91)" style="fill: none; stroke: #424242; stroke-width: 2.25; stroke-linecap: round"/>
   </g>
   <g id="line2d_26">
    <path clip-path="url(#pdf194bba91)" style="fill: none; stroke: #424242; stroke-width: 2.25; stroke-linecap: round"/>
   </g>
   <g id="patch_15">
    <path d="M 316.88 2830.58875 
L 316.88 12.96 
" style="fill: none; stroke: #ffffff; stroke-width: 1.25; stroke-linejoin: miter; stroke-linecap: square"/>
   </g>
   <g id="patch_16">
    <path d="M 2143.575 2830.58875 
L 2143.575 12.96 
" style="fill: none; stroke: #ffffff; stroke-width: 1.25; stroke-linejoin: miter; stroke-linecap: square"/>
   </g>
   <g id="patch_17">
    <path d="M 316.88 2830.58875 
L 2143.575 2830.58875 
" style="fill: none; stroke: #ffffff; stroke-width: 1.25; stroke-linejoin: miter; stroke-linecap: square"/>
   </g>
   <g id="patch_18">
    <path d="M 316.88 12.96 
L 2143.575 12.96 
" style="fill: none; stroke: #ffffff; stroke-width: 1.25; stroke-linejoin: miter; stroke-linecap: square"/>
   </g>
  </g>
 </g>
 <defs>
  <clipPath id="pdf194bba91">
   <rect x="316.88" y="12.96" width="1826.695" height="2817.62875"/>
  </clipPath>
 </defs>
</svg>
