<?xml version="1.0" encoding="utf-8" standalone="no"?>
<!DOCTYPE svg PUBLIC "-//W3C//DTD SVG 1.1//EN"
  "http://www.w3.org/Graphics/SVG/1.1/DTD/svg11.dtd">
<svg xmlns:xlink="http://www.w3.org/1999/xlink" width="460.8pt" height="345.6pt" viewBox="0 0 460.8 345.6" xmlns="http://www.w3.org/2000/svg" version="1.1">
 <metadata>
  <rdf:RDF xmlns:dc="http://purl.org/dc/elements/1.1/" xmlns:cc="http://creativecommons.org/ns#" xmlns:rdf="http://www.w3.org/1999/02/22-rdf-syntax-ns#">
   <cc:Work>
    <dc:type rdf:resource="http://purl.org/dc/dcmitype/StillImage"/>
    <dc:date>2025-02-09T14:59:57.606165</dc:date>
    <dc:format>image/svg+xml</dc:format>
    <dc:creator>
     <cc:Agent>
      <dc:title>Matplotlib v3.10.0, https://matplotlib.org/</dc:title>
     </cc:Agent>
    </dc:creator>
   </cc:Work>
  </rdf:RDF>
 </metadata>
 <defs>
  <style type="text/css">*{stroke-linejoin: round; stroke-linecap: butt}</style>
 </defs>
 <g id="figure_1">
  <g id="patch_1">
   <path d="M 0 345.6 
L 460.8 345.6 
L 460.8 0 
L 0 0 
z
" style="fill: #ffffff"/>
  </g>
  <g id="axes_1">
   <g id="patch_2">
    <path d="M 212.94 295.38 
L 447.84 295.38 
L 447.84 29.04 
L 212.94 29.04 
z
" style="fill: #eaeaf2"/>
   </g>
   <g id="matplotlib.axis_1">
    <g id="xtick_1">
     <g id="line2d_1">
      <path d="M 252.411586 295.38 
L 252.411586 29.04 
" clip-path="url(#pf488970581)" style="fill: none; stroke: #ffffff; stroke-linecap: round"/>
     </g>
     <g id="line2d_2">
      <defs>
       <path id="md756aacace" d="M 0 0 
L 0 6 
" style="stroke: #262626; stroke-width: 1.25"/>
      </defs>
      <g>
       <use xlink:href="#md756aacace" x="252.411586" y="295.38" style="fill: #262626; stroke: #262626; stroke-width: 1.25"/>
      </g>
     </g>
     <g id="text_1">
      <!-- 10000 -->
      <g style="fill: #262626" transform="translate(234.914711 313.238281) scale(0.11 -0.11)">
       <defs>
        <path id="DejaVuSans-31" d="M 794 531 
L 1825 531 
L 1825 4091 
L 703 3866 
L 703 4441 
L 1819 4666 
L 2450 4666 
L 2450 531 
L 3481 531 
L 3481 0 
L 794 0 
L 794 531 
z
" transform="scale(0.015625)"/>
        <path id="DejaVuSans-30" d="M 2034 4250 
Q 1547 4250 1301 3770 
Q 1056 3291 1056 2328 
Q 1056 1369 1301 889 
Q 1547 409 2034 409 
Q 2525 409 2770 889 
Q 3016 1369 3016 2328 
Q 3016 3291 2770 3770 
Q 2525 4250 2034 4250 
z
M 2034 4750 
Q 2819 4750 3233 4129 
Q 3647 3509 3647 2328 
Q 3647 1150 3233 529 
Q 2819 -91 2034 -91 
Q 1250 -91 836 529 
Q 422 1150 422 2328 
Q 422 3509 836 4129 
Q 1250 4750 2034 4750 
z
" transform="scale(0.015625)"/>
       </defs>
       <use xlink:href="#DejaVuSans-31"/>
       <use xlink:href="#DejaVuSans-30" transform="translate(63.623047 0)"/>
       <use xlink:href="#DejaVuSans-30" transform="translate(127.246094 0)"/>
       <use xlink:href="#DejaVuSans-30" transform="translate(190.869141 0)"/>
       <use xlink:href="#DejaVuSans-30" transform="translate(254.492188 0)"/>
      </g>
     </g>
    </g>
    <g id="xtick_2">
     <g id="line2d_3">
      <path d="M 310.999347 295.38 
L 310.999347 29.04 
" clip-path="url(#pf488970581)" style="fill: none; stroke: #ffffff; stroke-linecap: round"/>
     </g>
     <g id="line2d_4">
      <g>
       <use xlink:href="#md756aacace" x="310.999347" y="295.38" style="fill: #262626; stroke: #262626; stroke-width: 1.25"/>
      </g>
     </g>
     <g id="text_2">
      <!-- 20000 -->
      <g style="fill: #262626" transform="translate(293.502472 313.238281) scale(0.11 -0.11)">
       <defs>
        <path id="DejaVuSans-32" d="M 1228 531 
L 3431 531 
L 3431 0 
L 469 0 
L 469 531 
Q 828 903 1448 1529 
Q 2069 2156 2228 2338 
Q 2531 2678 2651 2914 
Q 2772 3150 2772 3378 
Q 2772 3750 2511 3984 
Q 2250 4219 1831 4219 
Q 1534 4219 1204 4116 
Q 875 4013 500 3803 
L 500 4441 
Q 881 4594 1212 4672 
Q 1544 4750 1819 4750 
Q 2544 4750 2975 4387 
Q 3406 4025 3406 3419 
Q 3406 3131 3298 2873 
Q 3191 2616 2906 2266 
Q 2828 2175 2409 1742 
Q 1991 1309 1228 531 
z
" transform="scale(0.015625)"/>
       </defs>
       <use xlink:href="#DejaVuSans-32"/>
       <use xlink:href="#DejaVuSans-30" transform="translate(63.623047 0)"/>
       <use xlink:href="#DejaVuSans-30" transform="translate(127.246094 0)"/>
       <use xlink:href="#DejaVuSans-30" transform="translate(190.869141 0)"/>
       <use xlink:href="#DejaVuSans-30" transform="translate(254.492188 0)"/>
      </g>
     </g>
    </g>
    <g id="xtick_3">
     <g id="line2d_5">
      <path d="M 369.587109 295.38 
L 369.587109 29.04 
" clip-path="url(#pf488970581)" style="fill: none; stroke: #ffffff; stroke-linecap: round"/>
     </g>
     <g id="line2d_6">
      <g>
       <use xlink:href="#md756aacace" x="369.587109" y="295.38" style="fill: #262626; stroke: #262626; stroke-width: 1.25"/>
      </g>
     </g>
     <g id="text_3">
      <!-- 30000 -->
      <g style="fill: #262626" transform="translate(352.090234 313.238281) scale(0.11 -0.11)">
       <defs>
        <path id="DejaVuSans-33" d="M 2597 2516 
Q 3050 2419 3304 2112 
Q 3559 1806 3559 1356 
Q 3559 666 3084 287 
Q 2609 -91 1734 -91 
Q 1441 -91 1130 -33 
Q 819 25 488 141 
L 488 750 
Q 750 597 1062 519 
Q 1375 441 1716 441 
Q 2309 441 2620 675 
Q 2931 909 2931 1356 
Q 2931 1769 2642 2001 
Q 2353 2234 1838 2234 
L 1294 2234 
L 1294 2753 
L 1863 2753 
Q 2328 2753 2575 2939 
Q 2822 3125 2822 3475 
Q 2822 3834 2567 4026 
Q 2313 4219 1838 4219 
Q 1578 4219 1281 4162 
Q 984 4106 628 3988 
L 628 4550 
Q 988 4650 1302 4700 
Q 1616 4750 1894 4750 
Q 2613 4750 3031 4423 
Q 3450 4097 3450 3541 
Q 3450 3153 3228 2886 
Q 3006 2619 2597 2516 
z
" transform="scale(0.015625)"/>
       </defs>
       <use xlink:href="#DejaVuSans-33"/>
       <use xlink:href="#DejaVuSans-30" transform="translate(63.623047 0)"/>
       <use xlink:href="#DejaVuSans-30" transform="translate(127.246094 0)"/>
       <use xlink:href="#DejaVuSans-30" transform="translate(190.869141 0)"/>
       <use xlink:href="#DejaVuSans-30" transform="translate(254.492188 0)"/>
      </g>
     </g>
    </g>
    <g id="xtick_4">
     <g id="line2d_7">
      <path d="M 428.17487 295.38 
L 428.17487 29.04 
" clip-path="url(#pf488970581)" style="fill: none; stroke: #ffffff; stroke-linecap: round"/>
     </g>
     <g id="line2d_8">
      <g>
       <use xlink:href="#md756aacace" x="428.17487" y="295.38" style="fill: #262626; stroke: #262626; stroke-width: 1.25"/>
      </g>
     </g>
     <g id="text_4">
      <!-- 40000 -->
      <g style="fill: #262626" transform="translate(410.677995 313.238281) scale(0.11 -0.11)">
       <defs>
        <path id="DejaVuSans-34" d="M 2419 4116 
L 825 1625 
L 2419 1625 
L 2419 4116 
z
M 2253 4666 
L 3047 4666 
L 3047 1625 
L 3713 1625 
L 3713 1100 
L 3047 1100 
L 3047 0 
L 2419 0 
L 2419 1100 
L 313 1100 
L 313 1709 
L 2253 4666 
z
" transform="scale(0.015625)"/>
       </defs>
       <use xlink:href="#DejaVuSans-34"/>
       <use xlink:href="#DejaVuSans-30" transform="translate(63.623047 0)"/>
       <use xlink:href="#DejaVuSans-30" transform="translate(127.246094 0)"/>
       <use xlink:href="#DejaVuSans-30" transform="translate(190.869141 0)"/>
       <use xlink:href="#DejaVuSans-30" transform="translate(254.492188 0)"/>
      </g>
     </g>
    </g>
    <g id="text_5">
     <!-- operations -->
     <g style="fill: #262626" transform="translate(298.455938 328.644063) scale(0.12 -0.12)">
      <defs>
       <path id="DejaVuSans-6f" d="M 1959 3097 
Q 1497 3097 1228 2736 
Q 959 2375 959 1747 
Q 959 1119 1226 758 
Q 1494 397 1959 397 
Q 2419 397 2687 759 
Q 2956 1122 2956 1747 
Q 2956 2369 2687 2733 
Q 2419 3097 1959 3097 
z
M 1959 3584 
Q 2709 3584 3137 3096 
Q 3566 2609 3566 1747 
Q 3566 888 3137 398 
Q 2709 -91 1959 -91 
Q 1206 -91 779 398 
Q 353 888 353 1747 
Q 353 2609 779 3096 
Q 1206 3584 1959 3584 
z
" transform="scale(0.015625)"/>
       <path id="DejaVuSans-70" d="M 1159 525 
L 1159 -1331 
L 581 -1331 
L 581 3500 
L 1159 3500 
L 1159 2969 
Q 1341 3281 1617 3432 
Q 1894 3584 2278 3584 
Q 2916 3584 3314 3078 
Q 3713 2572 3713 1747 
Q 3713 922 3314 415 
Q 2916 -91 2278 -91 
Q 1894 -91 1617 61 
Q 1341 213 1159 525 
z
M 3116 1747 
Q 3116 2381 2855 2742 
Q 2594 3103 2138 3103 
Q 1681 3103 1420 2742 
Q 1159 2381 1159 1747 
Q 1159 1113 1420 752 
Q 1681 391 2138 391 
Q 2594 391 2855 752 
Q 3116 1113 3116 1747 
z
" transform="scale(0.015625)"/>
       <path id="DejaVuSans-65" d="M 3597 1894 
L 3597 1613 
L 953 1613 
Q 991 1019 1311 708 
Q 1631 397 2203 397 
Q 2534 397 2845 478 
Q 3156 559 3463 722 
L 3463 178 
Q 3153 47 2828 -22 
Q 2503 -91 2169 -91 
Q 1331 -91 842 396 
Q 353 884 353 1716 
Q 353 2575 817 3079 
Q 1281 3584 2069 3584 
Q 2775 3584 3186 3129 
Q 3597 2675 3597 1894 
z
M 3022 2063 
Q 3016 2534 2758 2815 
Q 2500 3097 2075 3097 
Q 1594 3097 1305 2825 
Q 1016 2553 972 2059 
L 3022 2063 
z
" transform="scale(0.015625)"/>
       <path id="DejaVuSans-72" d="M 2631 2963 
Q 2534 3019 2420 3045 
Q 2306 3072 2169 3072 
Q 1681 3072 1420 2755 
Q 1159 2438 1159 1844 
L 1159 0 
L 581 0 
L 581 3500 
L 1159 3500 
L 1159 2956 
Q 1341 3275 1631 3429 
Q 1922 3584 2338 3584 
Q 2397 3584 2469 3576 
Q 2541 3569 2628 3553 
L 2631 2963 
z
" transform="scale(0.015625)"/>
       <path id="DejaVuSans-61" d="M 2194 1759 
Q 1497 1759 1228 1600 
Q 959 1441 959 1056 
Q 959 750 1161 570 
Q 1363 391 1709 391 
Q 2188 391 2477 730 
Q 2766 1069 2766 1631 
L 2766 1759 
L 2194 1759 
z
M 3341 1997 
L 3341 0 
L 2766 0 
L 2766 531 
Q 2569 213 2275 61 
Q 1981 -91 1556 -91 
Q 1019 -91 701 211 
Q 384 513 384 1019 
Q 384 1609 779 1909 
Q 1175 2209 1959 2209 
L 2766 2209 
L 2766 2266 
Q 2766 2663 2505 2880 
Q 2244 3097 1772 3097 
Q 1472 3097 1187 3025 
Q 903 2953 641 2809 
L 641 3341 
Q 956 3463 1253 3523 
Q 1550 3584 1831 3584 
Q 2591 3584 2966 3190 
Q 3341 2797 3341 1997 
z
" transform="scale(0.015625)"/>
       <path id="DejaVuSans-74" d="M 1172 4494 
L 1172 3500 
L 2356 3500 
L 2356 3053 
L 1172 3053 
L 1172 1153 
Q 1172 725 1289 603 
Q 1406 481 1766 481 
L 2356 481 
L 2356 0 
L 1766 0 
Q 1100 0 847 248 
Q 594 497 594 1153 
L 594 3053 
L 172 3053 
L 172 3500 
L 594 3500 
L 594 4494 
L 1172 4494 
z
" transform="scale(0.015625)"/>
       <path id="DejaVuSans-69" d="M 603 3500 
L 1178 3500 
L 1178 0 
L 603 0 
L 603 3500 
z
M 603 4863 
L 1178 4863 
L 1178 4134 
L 603 4134 
L 603 4863 
z
" transform="scale(0.015625)"/>
       <path id="DejaVuSans-6e" d="M 3513 2113 
L 3513 0 
L 2938 0 
L 2938 2094 
Q 2938 2591 2744 2837 
Q 2550 3084 2163 3084 
Q 1697 3084 1428 2787 
Q 1159 2491 1159 1978 
L 1159 0 
L 581 0 
L 581 3500 
L 1159 3500 
L 1159 2956 
Q 1366 3272 1645 3428 
Q 1925 3584 2291 3584 
Q 2894 3584 3203 3211 
Q 3513 2838 3513 2113 
z
" transform="scale(0.015625)"/>
       <path id="DejaVuSans-73" d="M 2834 3397 
L 2834 2853 
Q 2591 2978 2328 3040 
Q 2066 3103 1784 3103 
Q 1356 3103 1142 2972 
Q 928 2841 928 2578 
Q 928 2378 1081 2264 
Q 1234 2150 1697 2047 
L 1894 2003 
Q 2506 1872 2764 1633 
Q 3022 1394 3022 966 
Q 3022 478 2636 193 
Q 2250 -91 1575 -91 
Q 1294 -91 989 -36 
Q 684 19 347 128 
L 347 722 
Q 666 556 975 473 
Q 1284 391 1588 391 
Q 1994 391 2212 530 
Q 2431 669 2431 922 
Q 2431 1156 2273 1281 
Q 2116 1406 1581 1522 
L 1381 1569 
Q 847 1681 609 1914 
Q 372 2147 372 2553 
Q 372 3047 722 3315 
Q 1072 3584 1716 3584 
Q 2034 3584 2315 3537 
Q 2597 3491 2834 3397 
z
" transform="scale(0.015625)"/>
      </defs>
      <use xlink:href="#DejaVuSans-6f"/>
      <use xlink:href="#DejaVuSans-70" transform="translate(61.181641 0)"/>
      <use xlink:href="#DejaVuSans-65" transform="translate(124.658203 0)"/>
      <use xlink:href="#DejaVuSans-72" transform="translate(186.181641 0)"/>
      <use xlink:href="#DejaVuSans-61" transform="translate(227.294922 0)"/>
      <use xlink:href="#DejaVuSans-74" transform="translate(288.574219 0)"/>
      <use xlink:href="#DejaVuSans-69" transform="translate(327.783203 0)"/>
      <use xlink:href="#DejaVuSans-6f" transform="translate(355.566406 0)"/>
      <use xlink:href="#DejaVuSans-6e" transform="translate(416.748047 0)"/>
      <use xlink:href="#DejaVuSans-73" transform="translate(480.126953 0)"/>
     </g>
    </g>
   </g>
   <g id="matplotlib.axis_2">
    <g id="ytick_1">
     <g id="line2d_9">
      <defs>
       <path id="m180d8a195a" d="M 0 0 
L -6 0 
" style="stroke: #262626; stroke-width: 1.25"/>
      </defs>
      <g>
       <use xlink:href="#m180d8a195a" x="212.94" y="45.68625" style="fill: #262626; stroke: #262626; stroke-width: 1.25"/>
      </g>
     </g>
     <g id="text_6">
      <!-- /kv/put -->
      <g style="fill: #262626" transform="translate(164.881563 49.865391) scale(0.11 -0.11)">
       <defs>
        <path id="DejaVuSans-2f" d="M 1625 4666 
L 2156 4666 
L 531 -594 
L 0 -594 
L 1625 4666 
z
" transform="scale(0.015625)"/>
        <path id="DejaVuSans-6b" d="M 581 4863 
L 1159 4863 
L 1159 1991 
L 2875 3500 
L 3609 3500 
L 1753 1863 
L 3688 0 
L 2938 0 
L 1159 1709 
L 1159 0 
L 581 0 
L 581 4863 
z
" transform="scale(0.015625)"/>
        <path id="DejaVuSans-76" d="M 191 3500 
L 800 3500 
L 1894 563 
L 2988 3500 
L 3597 3500 
L 2284 0 
L 1503 0 
L 191 3500 
z
" transform="scale(0.015625)"/>
        <path id="DejaVuSans-75" d="M 544 1381 
L 544 3500 
L 1119 3500 
L 1119 1403 
Q 1119 906 1312 657 
Q 1506 409 1894 409 
Q 2359 409 2629 706 
Q 2900 1003 2900 1516 
L 2900 3500 
L 3475 3500 
L 3475 0 
L 2900 0 
L 2900 538 
Q 2691 219 2414 64 
Q 2138 -91 1772 -91 
Q 1169 -91 856 284 
Q 544 659 544 1381 
z
M 1991 3584 
L 1991 3584 
z
" transform="scale(0.015625)"/>
       </defs>
       <use xlink:href="#DejaVuSans-2f"/>
       <use xlink:href="#DejaVuSans-6b" transform="translate(33.691406 0)"/>
       <use xlink:href="#DejaVuSans-76" transform="translate(91.601562 0)"/>
       <use xlink:href="#DejaVuSans-2f" transform="translate(150.78125 0)"/>
       <use xlink:href="#DejaVuSans-70" transform="translate(184.472656 0)"/>
       <use xlink:href="#DejaVuSans-75" transform="translate(247.949219 0)"/>
       <use xlink:href="#DejaVuSans-74" transform="translate(311.328125 0)"/>
      </g>
     </g>
    </g>
    <g id="ytick_2">
     <g id="line2d_10">
      <g>
       <use xlink:href="#m180d8a195a" x="212.94" y="78.97875" style="fill: #262626; stroke: #262626; stroke-width: 1.25"/>
      </g>
     </g>
     <g id="text_7">
      <!-- /kv/put-batch -->
      <g style="fill: #262626" transform="translate(129.856875 83.157891) scale(0.11 -0.11)">
       <defs>
        <path id="DejaVuSans-2d" d="M 313 2009 
L 1997 2009 
L 1997 1497 
L 313 1497 
L 313 2009 
z
" transform="scale(0.015625)"/>
        <path id="DejaVuSans-62" d="M 3116 1747 
Q 3116 2381 2855 2742 
Q 2594 3103 2138 3103 
Q 1681 3103 1420 2742 
Q 1159 2381 1159 1747 
Q 1159 1113 1420 752 
Q 1681 391 2138 391 
Q 2594 391 2855 752 
Q 3116 1113 3116 1747 
z
M 1159 2969 
Q 1341 3281 1617 3432 
Q 1894 3584 2278 3584 
Q 2916 3584 3314 3078 
Q 3713 2572 3713 1747 
Q 3713 922 3314 415 
Q 2916 -91 2278 -91 
Q 1894 -91 1617 61 
Q 1341 213 1159 525 
L 1159 0 
L 581 0 
L 581 4863 
L 1159 4863 
L 1159 2969 
z
" transform="scale(0.015625)"/>
        <path id="DejaVuSans-63" d="M 3122 3366 
L 3122 2828 
Q 2878 2963 2633 3030 
Q 2388 3097 2138 3097 
Q 1578 3097 1268 2742 
Q 959 2388 959 1747 
Q 959 1106 1268 751 
Q 1578 397 2138 397 
Q 2388 397 2633 464 
Q 2878 531 3122 666 
L 3122 134 
Q 2881 22 2623 -34 
Q 2366 -91 2075 -91 
Q 1284 -91 818 406 
Q 353 903 353 1747 
Q 353 2603 823 3093 
Q 1294 3584 2113 3584 
Q 2378 3584 2631 3529 
Q 2884 3475 3122 3366 
z
" transform="scale(0.015625)"/>
        <path id="DejaVuSans-68" d="M 3513 2113 
L 3513 0 
L 2938 0 
L 2938 2094 
Q 2938 2591 2744 2837 
Q 2550 3084 2163 3084 
Q 1697 3084 1428 2787 
Q 1159 2491 1159 1978 
L 1159 0 
L 581 0 
L 581 4863 
L 1159 4863 
L 1159 2956 
Q 1366 3272 1645 3428 
Q 1925 3584 2291 3584 
Q 2894 3584 3203 3211 
Q 3513 2838 3513 2113 
z
" transform="scale(0.015625)"/>
       </defs>
       <use xlink:href="#DejaVuSans-2f"/>
       <use xlink:href="#DejaVuSans-6b" transform="translate(33.691406 0)"/>
       <use xlink:href="#DejaVuSans-76" transform="translate(91.601562 0)"/>
       <use xlink:href="#DejaVuSans-2f" transform="translate(150.78125 0)"/>
       <use xlink:href="#DejaVuSans-70" transform="translate(184.472656 0)"/>
       <use xlink:href="#DejaVuSans-75" transform="translate(247.949219 0)"/>
       <use xlink:href="#DejaVuSans-74" transform="translate(311.328125 0)"/>
       <use xlink:href="#DejaVuSans-2d" transform="translate(350.537109 0)"/>
       <use xlink:href="#DejaVuSans-62" transform="translate(386.621094 0)"/>
       <use xlink:href="#DejaVuSans-61" transform="translate(450.097656 0)"/>
       <use xlink:href="#DejaVuSans-74" transform="translate(511.376953 0)"/>
       <use xlink:href="#DejaVuSans-63" transform="translate(550.585938 0)"/>
       <use xlink:href="#DejaVuSans-68" transform="translate(605.566406 0)"/>
      </g>
     </g>
    </g>
    <g id="ytick_3">
     <g id="line2d_11">
      <g>
       <use xlink:href="#m180d8a195a" x="212.94" y="112.27125" style="fill: #262626; stroke: #262626; stroke-width: 1.25"/>
      </g>
     </g>
     <g id="text_8">
      <!-- /kv/get -->
      <g style="fill: #262626" transform="translate(165.084375 116.450391) scale(0.11 -0.11)">
       <defs>
        <path id="DejaVuSans-67" d="M 2906 1791 
Q 2906 2416 2648 2759 
Q 2391 3103 1925 3103 
Q 1463 3103 1205 2759 
Q 947 2416 947 1791 
Q 947 1169 1205 825 
Q 1463 481 1925 481 
Q 2391 481 2648 825 
Q 2906 1169 2906 1791 
z
M 3481 434 
Q 3481 -459 3084 -895 
Q 2688 -1331 1869 -1331 
Q 1566 -1331 1297 -1286 
Q 1028 -1241 775 -1147 
L 775 -588 
Q 1028 -725 1275 -790 
Q 1522 -856 1778 -856 
Q 2344 -856 2625 -561 
Q 2906 -266 2906 331 
L 2906 616 
Q 2728 306 2450 153 
Q 2172 0 1784 0 
Q 1141 0 747 490 
Q 353 981 353 1791 
Q 353 2603 747 3093 
Q 1141 3584 1784 3584 
Q 2172 3584 2450 3431 
Q 2728 3278 2906 2969 
L 2906 3500 
L 3481 3500 
L 3481 434 
z
" transform="scale(0.015625)"/>
       </defs>
       <use xlink:href="#DejaVuSans-2f"/>
       <use xlink:href="#DejaVuSans-6b" transform="translate(33.691406 0)"/>
       <use xlink:href="#DejaVuSans-76" transform="translate(91.601562 0)"/>
       <use xlink:href="#DejaVuSans-2f" transform="translate(150.78125 0)"/>
       <use xlink:href="#DejaVuSans-67" transform="translate(184.472656 0)"/>
       <use xlink:href="#DejaVuSans-65" transform="translate(247.949219 0)"/>
       <use xlink:href="#DejaVuSans-74" transform="translate(309.472656 0)"/>
      </g>
     </g>
    </g>
    <g id="ytick_4">
     <g id="line2d_12">
      <g>
       <use xlink:href="#m180d8a195a" x="212.94" y="145.56375" style="fill: #262626; stroke: #262626; stroke-width: 1.25"/>
      </g>
     </g>
     <g id="text_9">
      <!-- /kv/get-batch -->
      <g style="fill: #262626" transform="translate(130.059688 149.742891) scale(0.11 -0.11)">
       <use xlink:href="#DejaVuSans-2f"/>
       <use xlink:href="#DejaVuSans-6b" transform="translate(33.691406 0)"/>
       <use xlink:href="#DejaVuSans-76" transform="translate(91.601562 0)"/>
       <use xlink:href="#DejaVuSans-2f" transform="translate(150.78125 0)"/>
       <use xlink:href="#DejaVuSans-67" transform="translate(184.472656 0)"/>
       <use xlink:href="#DejaVuSans-65" transform="translate(247.949219 0)"/>
       <use xlink:href="#DejaVuSans-74" transform="translate(309.472656 0)"/>
       <use xlink:href="#DejaVuSans-2d" transform="translate(348.681641 0)"/>
       <use xlink:href="#DejaVuSans-62" transform="translate(384.765625 0)"/>
       <use xlink:href="#DejaVuSans-61" transform="translate(448.242188 0)"/>
       <use xlink:href="#DejaVuSans-74" transform="translate(509.521484 0)"/>
       <use xlink:href="#DejaVuSans-63" transform="translate(548.730469 0)"/>
       <use xlink:href="#DejaVuSans-68" transform="translate(603.710938 0)"/>
      </g>
     </g>
    </g>
    <g id="ytick_5">
     <g id="line2d_13">
      <g>
       <use xlink:href="#m180d8a195a" x="212.94" y="178.85625" style="fill: #262626; stroke: #262626; stroke-width: 1.25"/>
      </g>
     </g>
     <g id="text_10">
      <!-- /kv/delete -->
      <g style="fill: #262626" transform="translate(148.491563 183.035391) scale(0.11 -0.11)">
       <defs>
        <path id="DejaVuSans-64" d="M 2906 2969 
L 2906 4863 
L 3481 4863 
L 3481 0 
L 2906 0 
L 2906 525 
Q 2725 213 2448 61 
Q 2172 -91 1784 -91 
Q 1150 -91 751 415 
Q 353 922 353 1747 
Q 353 2572 751 3078 
Q 1150 3584 1784 3584 
Q 2172 3584 2448 3432 
Q 2725 3281 2906 2969 
z
M 947 1747 
Q 947 1113 1208 752 
Q 1469 391 1925 391 
Q 2381 391 2643 752 
Q 2906 1113 2906 1747 
Q 2906 2381 2643 2742 
Q 2381 3103 1925 3103 
Q 1469 3103 1208 2742 
Q 947 2381 947 1747 
z
" transform="scale(0.015625)"/>
        <path id="DejaVuSans-6c" d="M 603 4863 
L 1178 4863 
L 1178 0 
L 603 0 
L 603 4863 
z
" transform="scale(0.015625)"/>
       </defs>
       <use xlink:href="#DejaVuSans-2f"/>
       <use xlink:href="#DejaVuSans-6b" transform="translate(33.691406 0)"/>
       <use xlink:href="#DejaVuSans-76" transform="translate(91.601562 0)"/>
       <use xlink:href="#DejaVuSans-2f" transform="translate(150.78125 0)"/>
       <use xlink:href="#DejaVuSans-64" transform="translate(184.472656 0)"/>
       <use xlink:href="#DejaVuSans-65" transform="translate(247.949219 0)"/>
       <use xlink:href="#DejaVuSans-6c" transform="translate(309.472656 0)"/>
       <use xlink:href="#DejaVuSans-65" transform="translate(337.255859 0)"/>
       <use xlink:href="#DejaVuSans-74" transform="translate(398.779297 0)"/>
       <use xlink:href="#DejaVuSans-65" transform="translate(437.988281 0)"/>
      </g>
     </g>
    </g>
    <g id="ytick_6">
     <g id="line2d_14">
      <g>
       <use xlink:href="#m180d8a195a" x="212.94" y="212.14875" style="fill: #262626; stroke: #262626; stroke-width: 1.25"/>
      </g>
     </g>
     <g id="text_11">
      <!-- /kv/delete-batch -->
      <g style="fill: #262626" transform="translate(113.466875 216.327891) scale(0.11 -0.11)">
       <use xlink:href="#DejaVuSans-2f"/>
       <use xlink:href="#DejaVuSans-6b" transform="translate(33.691406 0)"/>
       <use xlink:href="#DejaVuSans-76" transform="translate(91.601562 0)"/>
       <use xlink:href="#DejaVuSans-2f" transform="translate(150.78125 0)"/>
       <use xlink:href="#DejaVuSans-64" transform="translate(184.472656 0)"/>
       <use xlink:href="#DejaVuSans-65" transform="translate(247.949219 0)"/>
       <use xlink:href="#DejaVuSans-6c" transform="translate(309.472656 0)"/>
       <use xlink:href="#DejaVuSans-65" transform="translate(337.255859 0)"/>
       <use xlink:href="#DejaVuSans-74" transform="translate(398.779297 0)"/>
       <use xlink:href="#DejaVuSans-65" transform="translate(437.988281 0)"/>
       <use xlink:href="#DejaVuSans-2d" transform="translate(499.511719 0)"/>
       <use xlink:href="#DejaVuSans-62" transform="translate(535.595703 0)"/>
       <use xlink:href="#DejaVuSans-61" transform="translate(599.072266 0)"/>
       <use xlink:href="#DejaVuSans-74" transform="translate(660.351562 0)"/>
       <use xlink:href="#DejaVuSans-63" transform="translate(699.560547 0)"/>
       <use xlink:href="#DejaVuSans-68" transform="translate(754.541016 0)"/>
      </g>
     </g>
    </g>
    <g id="ytick_7">
     <g id="line2d_15">
      <g>
       <use xlink:href="#m180d8a195a" x="212.94" y="245.44125" style="fill: #262626; stroke: #262626; stroke-width: 1.25"/>
      </g>
     </g>
     <g id="text_12">
      <!-- /kv/unordered-put-delete -->
      <g style="fill: #262626" transform="translate(65.506875 249.620391) scale(0.11 -0.11)">
       <use xlink:href="#DejaVuSans-2f"/>
       <use xlink:href="#DejaVuSans-6b" transform="translate(33.691406 0)"/>
       <use xlink:href="#DejaVuSans-76" transform="translate(91.601562 0)"/>
       <use xlink:href="#DejaVuSans-2f" transform="translate(150.78125 0)"/>
       <use xlink:href="#DejaVuSans-75" transform="translate(184.472656 0)"/>
       <use xlink:href="#DejaVuSans-6e" transform="translate(247.851562 0)"/>
       <use xlink:href="#DejaVuSans-6f" transform="translate(311.230469 0)"/>
       <use xlink:href="#DejaVuSans-72" transform="translate(372.412109 0)"/>
       <use xlink:href="#DejaVuSans-64" transform="translate(411.775391 0)"/>
       <use xlink:href="#DejaVuSans-65" transform="translate(475.251953 0)"/>
       <use xlink:href="#DejaVuSans-72" transform="translate(536.775391 0)"/>
       <use xlink:href="#DejaVuSans-65" transform="translate(575.638672 0)"/>
       <use xlink:href="#DejaVuSans-64" transform="translate(637.162109 0)"/>
       <use xlink:href="#DejaVuSans-2d" transform="translate(700.638672 0)"/>
       <use xlink:href="#DejaVuSans-70" transform="translate(736.722656 0)"/>
       <use xlink:href="#DejaVuSans-75" transform="translate(800.199219 0)"/>
       <use xlink:href="#DejaVuSans-74" transform="translate(863.578125 0)"/>
       <use xlink:href="#DejaVuSans-2d" transform="translate(902.787109 0)"/>
       <use xlink:href="#DejaVuSans-64" transform="translate(938.871094 0)"/>
       <use xlink:href="#DejaVuSans-65" transform="translate(1002.347656 0)"/>
       <use xlink:href="#DejaVuSans-6c" transform="translate(1063.871094 0)"/>
       <use xlink:href="#DejaVuSans-65" transform="translate(1091.654297 0)"/>
       <use xlink:href="#DejaVuSans-74" transform="translate(1153.177734 0)"/>
       <use xlink:href="#DejaVuSans-65" transform="translate(1192.386719 0)"/>
      </g>
     </g>
    </g>
    <g id="ytick_8">
     <g id="line2d_16">
      <g>
       <use xlink:href="#m180d8a195a" x="212.94" y="278.73375" style="fill: #262626; stroke: #262626; stroke-width: 1.25"/>
      </g>
     </g>
     <g id="text_13">
      <!-- /kv/unordered-put-delete-batch -->
      <g style="fill: #262626" transform="translate(30.482188 282.912891) scale(0.11 -0.11)">
       <use xlink:href="#DejaVuSans-2f"/>
       <use xlink:href="#DejaVuSans-6b" transform="translate(33.691406 0)"/>
       <use xlink:href="#DejaVuSans-76" transform="translate(91.601562 0)"/>
       <use xlink:href="#DejaVuSans-2f" transform="translate(150.78125 0)"/>
       <use xlink:href="#DejaVuSans-75" transform="translate(184.472656 0)"/>
       <use xlink:href="#DejaVuSans-6e" transform="translate(247.851562 0)"/>
       <use xlink:href="#DejaVuSans-6f" transform="translate(311.230469 0)"/>
       <use xlink:href="#DejaVuSans-72" transform="translate(372.412109 0)"/>
       <use xlink:href="#DejaVuSans-64" transform="translate(411.775391 0)"/>
       <use xlink:href="#DejaVuSans-65" transform="translate(475.251953 0)"/>
       <use xlink:href="#DejaVuSans-72" transform="translate(536.775391 0)"/>
       <use xlink:href="#DejaVuSans-65" transform="translate(575.638672 0)"/>
       <use xlink:href="#DejaVuSans-64" transform="translate(637.162109 0)"/>
       <use xlink:href="#DejaVuSans-2d" transform="translate(700.638672 0)"/>
       <use xlink:href="#DejaVuSans-70" transform="translate(736.722656 0)"/>
       <use xlink:href="#DejaVuSans-75" transform="translate(800.199219 0)"/>
       <use xlink:href="#DejaVuSans-74" transform="translate(863.578125 0)"/>
       <use xlink:href="#DejaVuSans-2d" transform="translate(902.787109 0)"/>
       <use xlink:href="#DejaVuSans-64" transform="translate(938.871094 0)"/>
       <use xlink:href="#DejaVuSans-65" transform="translate(1002.347656 0)"/>
       <use xlink:href="#DejaVuSans-6c" transform="translate(1063.871094 0)"/>
       <use xlink:href="#DejaVuSans-65" transform="translate(1091.654297 0)"/>
       <use xlink:href="#DejaVuSans-74" transform="translate(1153.177734 0)"/>
       <use xlink:href="#DejaVuSans-65" transform="translate(1192.386719 0)"/>
       <use xlink:href="#DejaVuSans-2d" transform="translate(1253.910156 0)"/>
       <use xlink:href="#DejaVuSans-62" transform="translate(1289.994141 0)"/>
       <use xlink:href="#DejaVuSans-61" transform="translate(1353.470703 0)"/>
       <use xlink:href="#DejaVuSans-74" transform="translate(1414.75 0)"/>
       <use xlink:href="#DejaVuSans-63" transform="translate(1453.958984 0)"/>
       <use xlink:href="#DejaVuSans-68" transform="translate(1508.939453 0)"/>
      </g>
     </g>
    </g>
    <g id="text_14">
     <!-- name -->
     <g style="fill: #262626" transform="translate(23.986563 179.225625) rotate(-90) scale(0.12 -0.12)">
      <defs>
       <path id="DejaVuSans-6d" d="M 3328 2828 
Q 3544 3216 3844 3400 
Q 4144 3584 4550 3584 
Q 5097 3584 5394 3201 
Q 5691 2819 5691 2113 
L 5691 0 
L 5113 0 
L 5113 2094 
Q 5113 2597 4934 2840 
Q 4756 3084 4391 3084 
Q 3944 3084 3684 2787 
Q 3425 2491 3425 1978 
L 3425 0 
L 2847 0 
L 2847 2094 
Q 2847 2600 2669 2842 
Q 2491 3084 2119 3084 
Q 1678 3084 1418 2786 
Q 1159 2488 1159 1978 
L 1159 0 
L 581 0 
L 581 3500 
L 1159 3500 
L 1159 2956 
Q 1356 3278 1631 3431 
Q 1906 3584 2284 3584 
Q 2666 3584 2933 3390 
Q 3200 3197 3328 2828 
z
" transform="scale(0.015625)"/>
      </defs>
      <use xlink:href="#DejaVuSans-6e"/>
      <use xlink:href="#DejaVuSans-61" transform="translate(63.378906 0)"/>
      <use xlink:href="#DejaVuSans-6d" transform="translate(124.658203 0)"/>
      <use xlink:href="#DejaVuSans-65" transform="translate(222.070312 0)"/>
     </g>
    </g>
   </g>
   <g id="patch_3">
    <path d="M 224.061703 32.36925 
L 224.061703 59.00325 
L 225.68636 59.00325 
L 225.68636 32.36925 
L 224.061703 32.36925 
z
" clip-path="url(#pf488970581)" style="fill: #5875a4; stroke: #4c4c4c; stroke-linejoin: miter"/>
   </g>
   <g id="line2d_17">
    <path d="M 224.061703 45.68625 
L 223.80101 45.68625 
" clip-path="url(#pf488970581)" style="fill: none; stroke: #4c4c4c"/>
   </g>
   <g id="line2d_18">
    <path d="M 225.68636 45.68625 
L 226.549855 45.68625 
" clip-path="url(#pf488970581)" style="fill: none; stroke: #4c4c4c"/>
   </g>
   <g id="line2d_19">
    <path d="M 223.80101 39.02775 
L 223.80101 52.34475 
" clip-path="url(#pf488970581)" style="fill: none; stroke: #4c4c4c; stroke-linecap: round"/>
   </g>
   <g id="line2d_20">
    <path d="M 226.549855 39.02775 
L 226.549855 52.34475 
" clip-path="url(#pf488970581)" style="fill: none; stroke: #4c4c4c; stroke-linecap: round"/>
   </g>
   <g id="line2d_21"/>
   <g id="patch_4">
    <path d="M 224.168324 65.66175 
L 224.168324 92.29575 
L 225.324554 92.29575 
L 225.324554 65.66175 
L 224.168324 65.66175 
z
" clip-path="url(#pf488970581)" style="fill: #5875a4; stroke: #4c4c4c; stroke-linejoin: miter"/>
   </g>
   <g id="line2d_22">
    <path d="M 224.168324 78.97875 
L 223.924504 78.97875 
" clip-path="url(#pf488970581)" style="fill: none; stroke: #4c4c4c"/>
   </g>
   <g id="line2d_23">
    <path d="M 225.324554 78.97875 
L 226.127759 78.97875 
" clip-path="url(#pf488970581)" style="fill: none; stroke: #4c4c4c"/>
   </g>
   <g id="line2d_24">
    <path d="M 223.924504 72.32025 
L 223.924504 85.63725 
" clip-path="url(#pf488970581)" style="fill: none; stroke: #4c4c4c; stroke-linecap: round"/>
   </g>
   <g id="line2d_25">
    <path d="M 226.127759 72.32025 
L 226.127759 85.63725 
" clip-path="url(#pf488970581)" style="fill: none; stroke: #4c4c4c; stroke-linecap: round"/>
   </g>
   <g id="line2d_26"/>
   <g id="patch_5">
    <path d="M 411.991906 98.95425 
L 411.991906 125.58825 
L 426.275213 125.58825 
L 426.275213 98.95425 
L 411.991906 98.95425 
z
" clip-path="url(#pf488970581)" style="fill: #5875a4; stroke: #4c4c4c; stroke-linejoin: miter"/>
   </g>
   <g id="line2d_27">
    <path d="M 411.991906 112.27125 
L 406.852433 112.27125 
" clip-path="url(#pf488970581)" style="fill: none; stroke: #4c4c4c"/>
   </g>
   <g id="line2d_28">
    <path d="M 426.275213 112.27125 
L 431.932742 112.27125 
" clip-path="url(#pf488970581)" style="fill: none; stroke: #4c4c4c"/>
   </g>
   <g id="line2d_29">
    <path d="M 406.852433 105.61275 
L 406.852433 118.92975 
" clip-path="url(#pf488970581)" style="fill: none; stroke: #4c4c4c; stroke-linecap: round"/>
   </g>
   <g id="line2d_30">
    <path d="M 431.932742 105.61275 
L 431.932742 118.92975 
" clip-path="url(#pf488970581)" style="fill: none; stroke: #4c4c4c; stroke-linecap: round"/>
   </g>
   <g id="line2d_31">
    <defs>
     <path id="m8a84c933fb" d="M 0 3 
C 0.795609 3 1.55874 2.683901 2.12132 2.12132 
C 2.683901 1.55874 3 0.795609 3 0 
C 3 -0.795609 2.683901 -1.55874 2.12132 -2.12132 
C 1.55874 -2.683901 0.795609 -3 0 -3 
C -0.795609 -3 -1.55874 -2.683901 -2.12132 -2.12132 
C -2.683901 -1.55874 -3 -0.795609 -3 0 
C -3 0.795609 -2.683901 1.55874 -2.12132 2.12132 
C -1.55874 2.683901 -0.795609 3 0 3 
z
" style="stroke: #4c4c4c"/>
    </defs>
    <g clip-path="url(#pf488970581)">
     <use xlink:href="#m8a84c933fb" x="376.30433" y="112.27125" style="fill-opacity: 0; stroke: #4c4c4c"/>
     <use xlink:href="#m8a84c933fb" x="378.214458" y="112.27125" style="fill-opacity: 0; stroke: #4c4c4c"/>
     <use xlink:href="#m8a84c933fb" x="375.434625" y="112.27125" style="fill-opacity: 0; stroke: #4c4c4c"/>
     <use xlink:href="#m8a84c933fb" x="380.331835" y="112.27125" style="fill-opacity: 0; stroke: #4c4c4c"/>
    </g>
   </g>
   <g id="patch_6">
    <path d="M 426.454554 132.24675 
L 426.454554 158.88075 
L 432.775651 158.88075 
L 432.775651 132.24675 
L 426.454554 132.24675 
z
" clip-path="url(#pf488970581)" style="fill: #5875a4; stroke: #4c4c4c; stroke-linejoin: miter"/>
   </g>
   <g id="line2d_32">
    <path d="M 426.454554 145.56375 
L 424.756148 145.56375 
" clip-path="url(#pf488970581)" style="fill: none; stroke: #4c4c4c"/>
   </g>
   <g id="line2d_33">
    <path d="M 432.775651 145.56375 
L 437.162727 145.56375 
" clip-path="url(#pf488970581)" style="fill: none; stroke: #4c4c4c"/>
   </g>
   <g id="line2d_34">
    <path d="M 424.756148 138.90525 
L 424.756148 152.22225 
" clip-path="url(#pf488970581)" style="fill: none; stroke: #4c4c4c; stroke-linecap: round"/>
   </g>
   <g id="line2d_35">
    <path d="M 437.162727 138.90525 
L 437.162727 152.22225 
" clip-path="url(#pf488970581)" style="fill: none; stroke: #4c4c4c; stroke-linecap: round"/>
   </g>
   <g id="line2d_36"/>
   <g id="patch_7">
    <path d="M 223.857152 165.53925 
L 223.857152 192.17325 
L 224.054785 192.17325 
L 224.054785 165.53925 
L 223.857152 165.53925 
z
" clip-path="url(#pf488970581)" style="fill: #5875a4; stroke: #4c4c4c; stroke-linejoin: miter"/>
   </g>
   <g id="line2d_37">
    <path d="M 223.857152 178.85625 
L 223.727542 178.85625 
" clip-path="url(#pf488970581)" style="fill: none; stroke: #4c4c4c"/>
   </g>
   <g id="line2d_38">
    <path d="M 224.054785 178.85625 
L 224.198969 178.85625 
" clip-path="url(#pf488970581)" style="fill: none; stroke: #4c4c4c"/>
   </g>
   <g id="line2d_39">
    <path d="M 223.727542 172.19775 
L 223.727542 185.51475 
" clip-path="url(#pf488970581)" style="fill: none; stroke: #4c4c4c; stroke-linecap: round"/>
   </g>
   <g id="line2d_40">
    <path d="M 224.198969 172.19775 
L 224.198969 185.51475 
" clip-path="url(#pf488970581)" style="fill: none; stroke: #4c4c4c; stroke-linecap: round"/>
   </g>
   <g id="line2d_41">
    <g clip-path="url(#pf488970581)">
     <use xlink:href="#m8a84c933fb" x="224.962214" y="178.85625" style="fill-opacity: 0; stroke: #4c4c4c"/>
    </g>
   </g>
   <g id="patch_8">
    <path d="M 223.859173 198.83175 
L 223.859173 225.46575 
L 224.066987 225.46575 
L 224.066987 198.83175 
L 223.859173 198.83175 
z
" clip-path="url(#pf488970581)" style="fill: #5875a4; stroke: #4c4c4c; stroke-linejoin: miter"/>
   </g>
   <g id="line2d_42">
    <path d="M 223.859173 212.14875 
L 223.617273 212.14875 
" clip-path="url(#pf488970581)" style="fill: none; stroke: #4c4c4c"/>
   </g>
   <g id="line2d_43">
    <path d="M 224.066987 212.14875 
L 224.248492 212.14875 
" clip-path="url(#pf488970581)" style="fill: none; stroke: #4c4c4c"/>
   </g>
   <g id="line2d_44">
    <path d="M 223.617273 205.49025 
L 223.617273 218.80725 
" clip-path="url(#pf488970581)" style="fill: none; stroke: #4c4c4c; stroke-linecap: round"/>
   </g>
   <g id="line2d_45">
    <path d="M 224.248492 205.49025 
L 224.248492 218.80725 
" clip-path="url(#pf488970581)" style="fill: none; stroke: #4c4c4c; stroke-linecap: round"/>
   </g>
   <g id="line2d_46">
    <g clip-path="url(#pf488970581)">
     <use xlink:href="#m8a84c933fb" x="225.711213" y="212.14875" style="fill-opacity: 0; stroke: #4c4c4c"/>
    </g>
   </g>
   <g id="patch_9">
    <path d="M 228.761392 232.12425 
L 228.761392 258.75825 
L 228.920119 258.75825 
L 228.920119 232.12425 
L 228.761392 232.12425 
z
" clip-path="url(#pf488970581)" style="fill: #5875a4; stroke: #4c4c4c; stroke-linejoin: miter"/>
   </g>
   <g id="line2d_47">
    <path d="M 228.761392 245.44125 
L 228.56614 245.44125 
" clip-path="url(#pf488970581)" style="fill: none; stroke: #4c4c4c"/>
   </g>
   <g id="line2d_48">
    <path d="M 228.920119 245.44125 
L 229.018362 245.44125 
" clip-path="url(#pf488970581)" style="fill: none; stroke: #4c4c4c"/>
   </g>
   <g id="line2d_49">
    <path d="M 228.56614 238.78275 
L 228.56614 252.09975 
" clip-path="url(#pf488970581)" style="fill: none; stroke: #4c4c4c; stroke-linecap: round"/>
   </g>
   <g id="line2d_50">
    <path d="M 229.018362 238.78275 
L 229.018362 252.09975 
" clip-path="url(#pf488970581)" style="fill: none; stroke: #4c4c4c; stroke-linecap: round"/>
   </g>
   <g id="line2d_51">
    <g clip-path="url(#pf488970581)">
     <use xlink:href="#m8a84c933fb" x="230.278327" y="245.44125" style="fill-opacity: 0; stroke: #4c4c4c"/>
    </g>
   </g>
   <g id="patch_10">
    <path d="M 228.862187 265.41675 
L 228.862187 292.05075 
L 229.064366 292.05075 
L 229.064366 265.41675 
L 228.862187 265.41675 
z
" clip-path="url(#pf488970581)" style="fill: #5875a4; stroke: #4c4c4c; stroke-linejoin: miter"/>
   </g>
   <g id="line2d_52">
    <path d="M 228.862187 278.73375 
L 228.702267 278.73375 
" clip-path="url(#pf488970581)" style="fill: none; stroke: #4c4c4c"/>
   </g>
   <g id="line2d_53">
    <path d="M 229.064366 278.73375 
L 229.146466 278.73375 
" clip-path="url(#pf488970581)" style="fill: none; stroke: #4c4c4c"/>
   </g>
   <g id="line2d_54">
    <path d="M 228.702267 272.07525 
L 228.702267 285.39225 
" clip-path="url(#pf488970581)" style="fill: none; stroke: #4c4c4c; stroke-linecap: round"/>
   </g>
   <g id="line2d_55">
    <path d="M 229.146466 272.07525 
L 229.146466 285.39225 
" clip-path="url(#pf488970581)" style="fill: none; stroke: #4c4c4c; stroke-linecap: round"/>
   </g>
   <g id="line2d_56">
    <g clip-path="url(#pf488970581)">
     <use xlink:href="#m8a84c933fb" x="231.0928" y="278.73375" style="fill-opacity: 0; stroke: #4c4c4c"/>
    </g>
   </g>
   <g id="line2d_57">
    <path d="M 225.176985 32.36925 
L 225.176985 59.00325 
" clip-path="url(#pf488970581)" style="fill: none; stroke: #4c4c4c"/>
   </g>
   <g id="line2d_58">
    <path d="M 225.224583 65.66175 
L 225.224583 92.29575 
" clip-path="url(#pf488970581)" style="fill: none; stroke: #4c4c4c"/>
   </g>
   <g id="line2d_59">
    <path d="M 421.060224 98.95425 
L 421.060224 125.58825 
" clip-path="url(#pf488970581)" style="fill: none; stroke: #4c4c4c"/>
   </g>
   <g id="line2d_60">
    <path d="M 430.497859 132.24675 
L 430.497859 158.88075 
" clip-path="url(#pf488970581)" style="fill: none; stroke: #4c4c4c"/>
   </g>
   <g id="line2d_61">
    <path d="M 223.933732 165.53925 
L 223.933732 192.17325 
" clip-path="url(#pf488970581)" style="fill: none; stroke: #4c4c4c"/>
   </g>
   <g id="line2d_62">
    <path d="M 223.989607 198.83175 
L 223.989607 225.46575 
" clip-path="url(#pf488970581)" style="fill: none; stroke: #4c4c4c"/>
   </g>
   <g id="line2d_63">
    <path d="M 228.841373 232.12425 
L 228.841373 258.75825 
" clip-path="url(#pf488970581)" style="fill: none; stroke: #4c4c4c"/>
   </g>
   <g id="line2d_64">
    <path d="M 228.891878 265.41675 
L 228.891878 292.05075 
" clip-path="url(#pf488970581)" style="fill: none; stroke: #4c4c4c"/>
   </g>
   <g id="patch_11">
    <path d="M 212.94 295.38 
L 212.94 29.04 
" style="fill: none; stroke: #ffffff; stroke-width: 1.25; stroke-linejoin: miter; stroke-linecap: square"/>
   </g>
   <g id="patch_12">
    <path d="M 447.84 295.38 
L 447.84 29.04 
" style="fill: none; stroke: #ffffff; stroke-width: 1.25; stroke-linejoin: miter; stroke-linecap: square"/>
   </g>
   <g id="patch_13">
    <path d="M 212.94 295.38 
L 447.84 295.38 
" style="fill: none; stroke: #ffffff; stroke-width: 1.25; stroke-linejoin: miter; stroke-linecap: square"/>
   </g>
   <g id="patch_14">
    <path d="M 212.94 29.04 
L 447.84 29.04 
" style="fill: none; stroke: #ffffff; stroke-width: 1.25; stroke-linejoin: miter; stroke-linecap: square"/>
   </g>
   <g id="text_15">
    <!-- Apptainer - kv -->
    <g style="fill: #262626" transform="translate(288.006563 23.04) scale(0.12 -0.12)">
     <defs>
      <path id="DejaVuSans-41" d="M 2188 4044 
L 1331 1722 
L 3047 1722 
L 2188 4044 
z
M 1831 4666 
L 2547 4666 
L 4325 0 
L 3669 0 
L 3244 1197 
L 1141 1197 
L 716 0 
L 50 0 
L 1831 4666 
z
" transform="scale(0.015625)"/>
      <path id="DejaVuSans-20" transform="scale(0.015625)"/>
     </defs>
     <use xlink:href="#DejaVuSans-41"/>
     <use xlink:href="#DejaVuSans-70" transform="translate(68.408203 0)"/>
     <use xlink:href="#DejaVuSans-70" transform="translate(131.884766 0)"/>
     <use xlink:href="#DejaVuSans-74" transform="translate(195.361328 0)"/>
     <use xlink:href="#DejaVuSans-61" transform="translate(234.570312 0)"/>
     <use xlink:href="#DejaVuSans-69" transform="translate(295.849609 0)"/>
     <use xlink:href="#DejaVuSans-6e" transform="translate(323.632812 0)"/>
     <use xlink:href="#DejaVuSans-65" transform="translate(387.011719 0)"/>
     <use xlink:href="#DejaVuSans-72" transform="translate(448.535156 0)"/>
     <use xlink:href="#DejaVuSans-20" transform="translate(489.648438 0)"/>
     <use xlink:href="#DejaVuSans-2d" transform="translate(521.435547 0)"/>
     <use xlink:href="#DejaVuSans-20" transform="translate(557.519531 0)"/>
     <use xlink:href="#DejaVuSans-6b" transform="translate(589.306641 0)"/>
     <use xlink:href="#DejaVuSans-76" transform="translate(647.216797 0)"/>
    </g>
   </g>
  </g>
 </g>
 <defs>
  <clipPath id="pf488970581">
   <rect x="212.94" y="29.04" width="234.9" height="266.34"/>
  </clipPath>
 </defs>
</svg>
