<?xml version="1.0" encoding="utf-8" standalone="no"?>
<!DOCTYPE svg PUBLIC "-//W3C//DTD SVG 1.1//EN"
  "http://www.w3.org/Graphics/SVG/1.1/DTD/svg11.dtd">
<svg xmlns:xlink="http://www.w3.org/1999/xlink" width="1440pt" height="720pt" viewBox="0 0 1440 720" xmlns="http://www.w3.org/2000/svg" version="1.1">
 <metadata>
  <rdf:RDF xmlns:dc="http://purl.org/dc/elements/1.1/" xmlns:cc="http://creativecommons.org/ns#" xmlns:rdf="http://www.w3.org/1999/02/22-rdf-syntax-ns#">
   <cc:Work>
    <dc:type rdf:resource="http://purl.org/dc/dcmitype/StillImage"/>
    <dc:date>2025-03-16T19:19:25.566412</dc:date>
    <dc:format>image/svg+xml</dc:format>
    <dc:creator>
     <cc:Agent>
      <dc:title>Matplotlib v3.10.0, https://matplotlib.org/</dc:title>
     </cc:Agent>
    </dc:creator>
   </cc:Work>
  </rdf:RDF>
 </metadata>
 <defs>
  <style type="text/css">*{stroke-linejoin: round; stroke-linecap: butt}</style>
 </defs>
 <g id="figure_1">
  <g id="patch_1">
   <path d="M 0 720 
L 1440 720 
L 1440 0 
L 0 0 
z
" style="fill: #ffffff"/>
  </g>
  <g id="axes_1">
   <g id="patch_2">
    <path d="M 212.94 669.78 
L 1427.04 669.78 
L 1427.04 29.04 
L 212.94 29.04 
z
" style="fill: #eaeaf2"/>
   </g>
   <g id="matplotlib.axis_1">
    <g id="xtick_1">
     <g id="line2d_1">
      <path d="M 272.047645 669.78 
L 272.047645 29.04 
" clip-path="url(#pa701f506db)" style="fill: none; stroke: #ffffff; stroke-linecap: round"/>
     </g>
     <g id="line2d_2">
      <defs>
       <path id="m2547eda305" d="M 0 0 
L 0 6 
" style="stroke: #262626; stroke-width: 1.25"/>
      </defs>
      <g>
       <use xlink:href="#m2547eda305" x="272.047645" y="669.78" style="fill: #262626; stroke: #262626; stroke-width: 1.25"/>
      </g>
     </g>
     <g id="text_1">
      <!-- 5000 -->
      <g style="fill: #262626" transform="translate(258.050145 687.638281) scale(0.11 -0.11)">
       <defs>
        <path id="DejaVuSans-35" d="M 691 4666 
L 3169 4666 
L 3169 4134 
L 1269 4134 
L 1269 2991 
Q 1406 3038 1543 3061 
Q 1681 3084 1819 3084 
Q 2600 3084 3056 2656 
Q 3513 2228 3513 1497 
Q 3513 744 3044 326 
Q 2575 -91 1722 -91 
Q 1428 -91 1123 -41 
Q 819 9 494 109 
L 494 744 
Q 775 591 1075 516 
Q 1375 441 1709 441 
Q 2250 441 2565 725 
Q 2881 1009 2881 1497 
Q 2881 1984 2565 2268 
Q 2250 2553 1709 2553 
Q 1456 2553 1204 2497 
Q 953 2441 691 2322 
L 691 4666 
z
" transform="scale(0.015625)"/>
        <path id="DejaVuSans-30" d="M 2034 4250 
Q 1547 4250 1301 3770 
Q 1056 3291 1056 2328 
Q 1056 1369 1301 889 
Q 1547 409 2034 409 
Q 2525 409 2770 889 
Q 3016 1369 3016 2328 
Q 3016 3291 2770 3770 
Q 2525 4250 2034 4250 
z
M 2034 4750 
Q 2819 4750 3233 4129 
Q 3647 3509 3647 2328 
Q 3647 1150 3233 529 
Q 2819 -91 2034 -91 
Q 1250 -91 836 529 
Q 422 1150 422 2328 
Q 422 3509 836 4129 
Q 1250 4750 2034 4750 
z
" transform="scale(0.015625)"/>
       </defs>
       <use xlink:href="#DejaVuSans-35"/>
       <use xlink:href="#DejaVuSans-30" transform="translate(63.623047 0)"/>
       <use xlink:href="#DejaVuSans-30" transform="translate(127.246094 0)"/>
       <use xlink:href="#DejaVuSans-30" transform="translate(190.869141 0)"/>
      </g>
     </g>
    </g>
    <g id="xtick_2">
     <g id="line2d_3">
      <path d="M 425.613838 669.78 
L 425.613838 29.04 
" clip-path="url(#pa701f506db)" style="fill: none; stroke: #ffffff; stroke-linecap: round"/>
     </g>
     <g id="line2d_4">
      <g>
       <use xlink:href="#m2547eda305" x="425.613838" y="669.78" style="fill: #262626; stroke: #262626; stroke-width: 1.25"/>
      </g>
     </g>
     <g id="text_2">
      <!-- 10000 -->
      <g style="fill: #262626" transform="translate(408.116963 687.638281) scale(0.11 -0.11)">
       <defs>
        <path id="DejaVuSans-31" d="M 794 531 
L 1825 531 
L 1825 4091 
L 703 3866 
L 703 4441 
L 1819 4666 
L 2450 4666 
L 2450 531 
L 3481 531 
L 3481 0 
L 794 0 
L 794 531 
z
" transform="scale(0.015625)"/>
       </defs>
       <use xlink:href="#DejaVuSans-31"/>
       <use xlink:href="#DejaVuSans-30" transform="translate(63.623047 0)"/>
       <use xlink:href="#DejaVuSans-30" transform="translate(127.246094 0)"/>
       <use xlink:href="#DejaVuSans-30" transform="translate(190.869141 0)"/>
       <use xlink:href="#DejaVuSans-30" transform="translate(254.492188 0)"/>
      </g>
     </g>
    </g>
    <g id="xtick_3">
     <g id="line2d_5">
      <path d="M 579.180031 669.78 
L 579.180031 29.04 
" clip-path="url(#pa701f506db)" style="fill: none; stroke: #ffffff; stroke-linecap: round"/>
     </g>
     <g id="line2d_6">
      <g>
       <use xlink:href="#m2547eda305" x="579.180031" y="669.78" style="fill: #262626; stroke: #262626; stroke-width: 1.25"/>
      </g>
     </g>
     <g id="text_3">
      <!-- 15000 -->
      <g style="fill: #262626" transform="translate(561.683156 687.638281) scale(0.11 -0.11)">
       <use xlink:href="#DejaVuSans-31"/>
       <use xlink:href="#DejaVuSans-35" transform="translate(63.623047 0)"/>
       <use xlink:href="#DejaVuSans-30" transform="translate(127.246094 0)"/>
       <use xlink:href="#DejaVuSans-30" transform="translate(190.869141 0)"/>
       <use xlink:href="#DejaVuSans-30" transform="translate(254.492188 0)"/>
      </g>
     </g>
    </g>
    <g id="xtick_4">
     <g id="line2d_7">
      <path d="M 732.746224 669.78 
L 732.746224 29.04 
" clip-path="url(#pa701f506db)" style="fill: none; stroke: #ffffff; stroke-linecap: round"/>
     </g>
     <g id="line2d_8">
      <g>
       <use xlink:href="#m2547eda305" x="732.746224" y="669.78" style="fill: #262626; stroke: #262626; stroke-width: 1.25"/>
      </g>
     </g>
     <g id="text_4">
      <!-- 20000 -->
      <g style="fill: #262626" transform="translate(715.249349 687.638281) scale(0.11 -0.11)">
       <defs>
        <path id="DejaVuSans-32" d="M 1228 531 
L 3431 531 
L 3431 0 
L 469 0 
L 469 531 
Q 828 903 1448 1529 
Q 2069 2156 2228 2338 
Q 2531 2678 2651 2914 
Q 2772 3150 2772 3378 
Q 2772 3750 2511 3984 
Q 2250 4219 1831 4219 
Q 1534 4219 1204 4116 
Q 875 4013 500 3803 
L 500 4441 
Q 881 4594 1212 4672 
Q 1544 4750 1819 4750 
Q 2544 4750 2975 4387 
Q 3406 4025 3406 3419 
Q 3406 3131 3298 2873 
Q 3191 2616 2906 2266 
Q 2828 2175 2409 1742 
Q 1991 1309 1228 531 
z
" transform="scale(0.015625)"/>
       </defs>
       <use xlink:href="#DejaVuSans-32"/>
       <use xlink:href="#DejaVuSans-30" transform="translate(63.623047 0)"/>
       <use xlink:href="#DejaVuSans-30" transform="translate(127.246094 0)"/>
       <use xlink:href="#DejaVuSans-30" transform="translate(190.869141 0)"/>
       <use xlink:href="#DejaVuSans-30" transform="translate(254.492188 0)"/>
      </g>
     </g>
    </g>
    <g id="xtick_5">
     <g id="line2d_9">
      <path d="M 886.312418 669.78 
L 886.312418 29.04 
" clip-path="url(#pa701f506db)" style="fill: none; stroke: #ffffff; stroke-linecap: round"/>
     </g>
     <g id="line2d_10">
      <g>
       <use xlink:href="#m2547eda305" x="886.312418" y="669.78" style="fill: #262626; stroke: #262626; stroke-width: 1.25"/>
      </g>
     </g>
     <g id="text_5">
      <!-- 25000 -->
      <g style="fill: #262626" transform="translate(868.815543 687.638281) scale(0.11 -0.11)">
       <use xlink:href="#DejaVuSans-32"/>
       <use xlink:href="#DejaVuSans-35" transform="translate(63.623047 0)"/>
       <use xlink:href="#DejaVuSans-30" transform="translate(127.246094 0)"/>
       <use xlink:href="#DejaVuSans-30" transform="translate(190.869141 0)"/>
       <use xlink:href="#DejaVuSans-30" transform="translate(254.492188 0)"/>
      </g>
     </g>
    </g>
    <g id="xtick_6">
     <g id="line2d_11">
      <path d="M 1039.878611 669.78 
L 1039.878611 29.04 
" clip-path="url(#pa701f506db)" style="fill: none; stroke: #ffffff; stroke-linecap: round"/>
     </g>
     <g id="line2d_12">
      <g>
       <use xlink:href="#m2547eda305" x="1039.878611" y="669.78" style="fill: #262626; stroke: #262626; stroke-width: 1.25"/>
      </g>
     </g>
     <g id="text_6">
      <!-- 30000 -->
      <g style="fill: #262626" transform="translate(1022.381736 687.638281) scale(0.11 -0.11)">
       <defs>
        <path id="DejaVuSans-33" d="M 2597 2516 
Q 3050 2419 3304 2112 
Q 3559 1806 3559 1356 
Q 3559 666 3084 287 
Q 2609 -91 1734 -91 
Q 1441 -91 1130 -33 
Q 819 25 488 141 
L 488 750 
Q 750 597 1062 519 
Q 1375 441 1716 441 
Q 2309 441 2620 675 
Q 2931 909 2931 1356 
Q 2931 1769 2642 2001 
Q 2353 2234 1838 2234 
L 1294 2234 
L 1294 2753 
L 1863 2753 
Q 2328 2753 2575 2939 
Q 2822 3125 2822 3475 
Q 2822 3834 2567 4026 
Q 2313 4219 1838 4219 
Q 1578 4219 1281 4162 
Q 984 4106 628 3988 
L 628 4550 
Q 988 4650 1302 4700 
Q 1616 4750 1894 4750 
Q 2613 4750 3031 4423 
Q 3450 4097 3450 3541 
Q 3450 3153 3228 2886 
Q 3006 2619 2597 2516 
z
" transform="scale(0.015625)"/>
       </defs>
       <use xlink:href="#DejaVuSans-33"/>
       <use xlink:href="#DejaVuSans-30" transform="translate(63.623047 0)"/>
       <use xlink:href="#DejaVuSans-30" transform="translate(127.246094 0)"/>
       <use xlink:href="#DejaVuSans-30" transform="translate(190.869141 0)"/>
       <use xlink:href="#DejaVuSans-30" transform="translate(254.492188 0)"/>
      </g>
     </g>
    </g>
    <g id="xtick_7">
     <g id="line2d_13">
      <path d="M 1193.444804 669.78 
L 1193.444804 29.04 
" clip-path="url(#pa701f506db)" style="fill: none; stroke: #ffffff; stroke-linecap: round"/>
     </g>
     <g id="line2d_14">
      <g>
       <use xlink:href="#m2547eda305" x="1193.444804" y="669.78" style="fill: #262626; stroke: #262626; stroke-width: 1.25"/>
      </g>
     </g>
     <g id="text_7">
      <!-- 35000 -->
      <g style="fill: #262626" transform="translate(1175.947929 687.638281) scale(0.11 -0.11)">
       <use xlink:href="#DejaVuSans-33"/>
       <use xlink:href="#DejaVuSans-35" transform="translate(63.623047 0)"/>
       <use xlink:href="#DejaVuSans-30" transform="translate(127.246094 0)"/>
       <use xlink:href="#DejaVuSans-30" transform="translate(190.869141 0)"/>
       <use xlink:href="#DejaVuSans-30" transform="translate(254.492188 0)"/>
      </g>
     </g>
    </g>
    <g id="xtick_8">
     <g id="line2d_15">
      <path d="M 1347.010997 669.78 
L 1347.010997 29.04 
" clip-path="url(#pa701f506db)" style="fill: none; stroke: #ffffff; stroke-linecap: round"/>
     </g>
     <g id="line2d_16">
      <g>
       <use xlink:href="#m2547eda305" x="1347.010997" y="669.78" style="fill: #262626; stroke: #262626; stroke-width: 1.25"/>
      </g>
     </g>
     <g id="text_8">
      <!-- 40000 -->
      <g style="fill: #262626" transform="translate(1329.514122 687.638281) scale(0.11 -0.11)">
       <defs>
        <path id="DejaVuSans-34" d="M 2419 4116 
L 825 1625 
L 2419 1625 
L 2419 4116 
z
M 2253 4666 
L 3047 4666 
L 3047 1625 
L 3713 1625 
L 3713 1100 
L 3047 1100 
L 3047 0 
L 2419 0 
L 2419 1100 
L 313 1100 
L 313 1709 
L 2253 4666 
z
" transform="scale(0.015625)"/>
       </defs>
       <use xlink:href="#DejaVuSans-34"/>
       <use xlink:href="#DejaVuSans-30" transform="translate(63.623047 0)"/>
       <use xlink:href="#DejaVuSans-30" transform="translate(127.246094 0)"/>
       <use xlink:href="#DejaVuSans-30" transform="translate(190.869141 0)"/>
       <use xlink:href="#DejaVuSans-30" transform="translate(254.492188 0)"/>
      </g>
     </g>
    </g>
    <g id="text_9">
     <!-- operations -->
     <g style="fill: #262626" transform="translate(788.055938 703.044062) scale(0.12 -0.12)">
      <defs>
       <path id="DejaVuSans-6f" d="M 1959 3097 
Q 1497 3097 1228 2736 
Q 959 2375 959 1747 
Q 959 1119 1226 758 
Q 1494 397 1959 397 
Q 2419 397 2687 759 
Q 2956 1122 2956 1747 
Q 2956 2369 2687 2733 
Q 2419 3097 1959 3097 
z
M 1959 3584 
Q 2709 3584 3137 3096 
Q 3566 2609 3566 1747 
Q 3566 888 3137 398 
Q 2709 -91 1959 -91 
Q 1206 -91 779 398 
Q 353 888 353 1747 
Q 353 2609 779 3096 
Q 1206 3584 1959 3584 
z
" transform="scale(0.015625)"/>
       <path id="DejaVuSans-70" d="M 1159 525 
L 1159 -1331 
L 581 -1331 
L 581 3500 
L 1159 3500 
L 1159 2969 
Q 1341 3281 1617 3432 
Q 1894 3584 2278 3584 
Q 2916 3584 3314 3078 
Q 3713 2572 3713 1747 
Q 3713 922 3314 415 
Q 2916 -91 2278 -91 
Q 1894 -91 1617 61 
Q 1341 213 1159 525 
z
M 3116 1747 
Q 3116 2381 2855 2742 
Q 2594 3103 2138 3103 
Q 1681 3103 1420 2742 
Q 1159 2381 1159 1747 
Q 1159 1113 1420 752 
Q 1681 391 2138 391 
Q 2594 391 2855 752 
Q 3116 1113 3116 1747 
z
" transform="scale(0.015625)"/>
       <path id="DejaVuSans-65" d="M 3597 1894 
L 3597 1613 
L 953 1613 
Q 991 1019 1311 708 
Q 1631 397 2203 397 
Q 2534 397 2845 478 
Q 3156 559 3463 722 
L 3463 178 
Q 3153 47 2828 -22 
Q 2503 -91 2169 -91 
Q 1331 -91 842 396 
Q 353 884 353 1716 
Q 353 2575 817 3079 
Q 1281 3584 2069 3584 
Q 2775 3584 3186 3129 
Q 3597 2675 3597 1894 
z
M 3022 2063 
Q 3016 2534 2758 2815 
Q 2500 3097 2075 3097 
Q 1594 3097 1305 2825 
Q 1016 2553 972 2059 
L 3022 2063 
z
" transform="scale(0.015625)"/>
       <path id="DejaVuSans-72" d="M 2631 2963 
Q 2534 3019 2420 3045 
Q 2306 3072 2169 3072 
Q 1681 3072 1420 2755 
Q 1159 2438 1159 1844 
L 1159 0 
L 581 0 
L 581 3500 
L 1159 3500 
L 1159 2956 
Q 1341 3275 1631 3429 
Q 1922 3584 2338 3584 
Q 2397 3584 2469 3576 
Q 2541 3569 2628 3553 
L 2631 2963 
z
" transform="scale(0.015625)"/>
       <path id="DejaVuSans-61" d="M 2194 1759 
Q 1497 1759 1228 1600 
Q 959 1441 959 1056 
Q 959 750 1161 570 
Q 1363 391 1709 391 
Q 2188 391 2477 730 
Q 2766 1069 2766 1631 
L 2766 1759 
L 2194 1759 
z
M 3341 1997 
L 3341 0 
L 2766 0 
L 2766 531 
Q 2569 213 2275 61 
Q 1981 -91 1556 -91 
Q 1019 -91 701 211 
Q 384 513 384 1019 
Q 384 1609 779 1909 
Q 1175 2209 1959 2209 
L 2766 2209 
L 2766 2266 
Q 2766 2663 2505 2880 
Q 2244 3097 1772 3097 
Q 1472 3097 1187 3025 
Q 903 2953 641 2809 
L 641 3341 
Q 956 3463 1253 3523 
Q 1550 3584 1831 3584 
Q 2591 3584 2966 3190 
Q 3341 2797 3341 1997 
z
" transform="scale(0.015625)"/>
       <path id="DejaVuSans-74" d="M 1172 4494 
L 1172 3500 
L 2356 3500 
L 2356 3053 
L 1172 3053 
L 1172 1153 
Q 1172 725 1289 603 
Q 1406 481 1766 481 
L 2356 481 
L 2356 0 
L 1766 0 
Q 1100 0 847 248 
Q 594 497 594 1153 
L 594 3053 
L 172 3053 
L 172 3500 
L 594 3500 
L 594 4494 
L 1172 4494 
z
" transform="scale(0.015625)"/>
       <path id="DejaVuSans-69" d="M 603 3500 
L 1178 3500 
L 1178 0 
L 603 0 
L 603 3500 
z
M 603 4863 
L 1178 4863 
L 1178 4134 
L 603 4134 
L 603 4863 
z
" transform="scale(0.015625)"/>
       <path id="DejaVuSans-6e" d="M 3513 2113 
L 3513 0 
L 2938 0 
L 2938 2094 
Q 2938 2591 2744 2837 
Q 2550 3084 2163 3084 
Q 1697 3084 1428 2787 
Q 1159 2491 1159 1978 
L 1159 0 
L 581 0 
L 581 3500 
L 1159 3500 
L 1159 2956 
Q 1366 3272 1645 3428 
Q 1925 3584 2291 3584 
Q 2894 3584 3203 3211 
Q 3513 2838 3513 2113 
z
" transform="scale(0.015625)"/>
       <path id="DejaVuSans-73" d="M 2834 3397 
L 2834 2853 
Q 2591 2978 2328 3040 
Q 2066 3103 1784 3103 
Q 1356 3103 1142 2972 
Q 928 2841 928 2578 
Q 928 2378 1081 2264 
Q 1234 2150 1697 2047 
L 1894 2003 
Q 2506 1872 2764 1633 
Q 3022 1394 3022 966 
Q 3022 478 2636 193 
Q 2250 -91 1575 -91 
Q 1294 -91 989 -36 
Q 684 19 347 128 
L 347 722 
Q 666 556 975 473 
Q 1284 391 1588 391 
Q 1994 391 2212 530 
Q 2431 669 2431 922 
Q 2431 1156 2273 1281 
Q 2116 1406 1581 1522 
L 1381 1569 
Q 847 1681 609 1914 
Q 372 2147 372 2553 
Q 372 3047 722 3315 
Q 1072 3584 1716 3584 
Q 2034 3584 2315 3537 
Q 2597 3491 2834 3397 
z
" transform="scale(0.015625)"/>
      </defs>
      <use xlink:href="#DejaVuSans-6f"/>
      <use xlink:href="#DejaVuSans-70" transform="translate(61.181641 0)"/>
      <use xlink:href="#DejaVuSans-65" transform="translate(124.658203 0)"/>
      <use xlink:href="#DejaVuSans-72" transform="translate(186.181641 0)"/>
      <use xlink:href="#DejaVuSans-61" transform="translate(227.294922 0)"/>
      <use xlink:href="#DejaVuSans-74" transform="translate(288.574219 0)"/>
      <use xlink:href="#DejaVuSans-69" transform="translate(327.783203 0)"/>
      <use xlink:href="#DejaVuSans-6f" transform="translate(355.566406 0)"/>
      <use xlink:href="#DejaVuSans-6e" transform="translate(416.748047 0)"/>
      <use xlink:href="#DejaVuSans-73" transform="translate(480.126953 0)"/>
     </g>
    </g>
   </g>
   <g id="matplotlib.axis_2">
    <g id="ytick_1">
     <g id="line2d_17">
      <defs>
       <path id="m9918d58416" d="M 0 0 
L -6 0 
" style="stroke: #262626; stroke-width: 1.25"/>
      </defs>
      <g>
       <use xlink:href="#m9918d58416" x="212.94" y="69.08625" style="fill: #262626; stroke: #262626; stroke-width: 1.25"/>
      </g>
     </g>
     <g id="text_10">
      <!-- /kv/put -->
      <g style="fill: #262626" transform="translate(164.881563 73.265391) scale(0.11 -0.11)">
       <defs>
        <path id="DejaVuSans-2f" d="M 1625 4666 
L 2156 4666 
L 531 -594 
L 0 -594 
L 1625 4666 
z
" transform="scale(0.015625)"/>
        <path id="DejaVuSans-6b" d="M 581 4863 
L 1159 4863 
L 1159 1991 
L 2875 3500 
L 3609 3500 
L 1753 1863 
L 3688 0 
L 2938 0 
L 1159 1709 
L 1159 0 
L 581 0 
L 581 4863 
z
" transform="scale(0.015625)"/>
        <path id="DejaVuSans-76" d="M 191 3500 
L 800 3500 
L 1894 563 
L 2988 3500 
L 3597 3500 
L 2284 0 
L 1503 0 
L 191 3500 
z
" transform="scale(0.015625)"/>
        <path id="DejaVuSans-75" d="M 544 1381 
L 544 3500 
L 1119 3500 
L 1119 1403 
Q 1119 906 1312 657 
Q 1506 409 1894 409 
Q 2359 409 2629 706 
Q 2900 1003 2900 1516 
L 2900 3500 
L 3475 3500 
L 3475 0 
L 2900 0 
L 2900 538 
Q 2691 219 2414 64 
Q 2138 -91 1772 -91 
Q 1169 -91 856 284 
Q 544 659 544 1381 
z
M 1991 3584 
L 1991 3584 
z
" transform="scale(0.015625)"/>
       </defs>
       <use xlink:href="#DejaVuSans-2f"/>
       <use xlink:href="#DejaVuSans-6b" transform="translate(33.691406 0)"/>
       <use xlink:href="#DejaVuSans-76" transform="translate(91.601562 0)"/>
       <use xlink:href="#DejaVuSans-2f" transform="translate(150.78125 0)"/>
       <use xlink:href="#DejaVuSans-70" transform="translate(184.472656 0)"/>
       <use xlink:href="#DejaVuSans-75" transform="translate(247.949219 0)"/>
       <use xlink:href="#DejaVuSans-74" transform="translate(311.328125 0)"/>
      </g>
     </g>
    </g>
    <g id="ytick_2">
     <g id="line2d_18">
      <g>
       <use xlink:href="#m9918d58416" x="212.94" y="149.17875" style="fill: #262626; stroke: #262626; stroke-width: 1.25"/>
      </g>
     </g>
     <g id="text_11">
      <!-- /kv/put-batch -->
      <g style="fill: #262626" transform="translate(129.856875 153.357891) scale(0.11 -0.11)">
       <defs>
        <path id="DejaVuSans-2d" d="M 313 2009 
L 1997 2009 
L 1997 1497 
L 313 1497 
L 313 2009 
z
" transform="scale(0.015625)"/>
        <path id="DejaVuSans-62" d="M 3116 1747 
Q 3116 2381 2855 2742 
Q 2594 3103 2138 3103 
Q 1681 3103 1420 2742 
Q 1159 2381 1159 1747 
Q 1159 1113 1420 752 
Q 1681 391 2138 391 
Q 2594 391 2855 752 
Q 3116 1113 3116 1747 
z
M 1159 2969 
Q 1341 3281 1617 3432 
Q 1894 3584 2278 3584 
Q 2916 3584 3314 3078 
Q 3713 2572 3713 1747 
Q 3713 922 3314 415 
Q 2916 -91 2278 -91 
Q 1894 -91 1617 61 
Q 1341 213 1159 525 
L 1159 0 
L 581 0 
L 581 4863 
L 1159 4863 
L 1159 2969 
z
" transform="scale(0.015625)"/>
        <path id="DejaVuSans-63" d="M 3122 3366 
L 3122 2828 
Q 2878 2963 2633 3030 
Q 2388 3097 2138 3097 
Q 1578 3097 1268 2742 
Q 959 2388 959 1747 
Q 959 1106 1268 751 
Q 1578 397 2138 397 
Q 2388 397 2633 464 
Q 2878 531 3122 666 
L 3122 134 
Q 2881 22 2623 -34 
Q 2366 -91 2075 -91 
Q 1284 -91 818 406 
Q 353 903 353 1747 
Q 353 2603 823 3093 
Q 1294 3584 2113 3584 
Q 2378 3584 2631 3529 
Q 2884 3475 3122 3366 
z
" transform="scale(0.015625)"/>
        <path id="DejaVuSans-68" d="M 3513 2113 
L 3513 0 
L 2938 0 
L 2938 2094 
Q 2938 2591 2744 2837 
Q 2550 3084 2163 3084 
Q 1697 3084 1428 2787 
Q 1159 2491 1159 1978 
L 1159 0 
L 581 0 
L 581 4863 
L 1159 4863 
L 1159 2956 
Q 1366 3272 1645 3428 
Q 1925 3584 2291 3584 
Q 2894 3584 3203 3211 
Q 3513 2838 3513 2113 
z
" transform="scale(0.015625)"/>
       </defs>
       <use xlink:href="#DejaVuSans-2f"/>
       <use xlink:href="#DejaVuSans-6b" transform="translate(33.691406 0)"/>
       <use xlink:href="#DejaVuSans-76" transform="translate(91.601562 0)"/>
       <use xlink:href="#DejaVuSans-2f" transform="translate(150.78125 0)"/>
       <use xlink:href="#DejaVuSans-70" transform="translate(184.472656 0)"/>
       <use xlink:href="#DejaVuSans-75" transform="translate(247.949219 0)"/>
       <use xlink:href="#DejaVuSans-74" transform="translate(311.328125 0)"/>
       <use xlink:href="#DejaVuSans-2d" transform="translate(350.537109 0)"/>
       <use xlink:href="#DejaVuSans-62" transform="translate(386.621094 0)"/>
       <use xlink:href="#DejaVuSans-61" transform="translate(450.097656 0)"/>
       <use xlink:href="#DejaVuSans-74" transform="translate(511.376953 0)"/>
       <use xlink:href="#DejaVuSans-63" transform="translate(550.585938 0)"/>
       <use xlink:href="#DejaVuSans-68" transform="translate(605.566406 0)"/>
      </g>
     </g>
    </g>
    <g id="ytick_3">
     <g id="line2d_19">
      <g>
       <use xlink:href="#m9918d58416" x="212.94" y="229.27125" style="fill: #262626; stroke: #262626; stroke-width: 1.25"/>
      </g>
     </g>
     <g id="text_12">
      <!-- /kv/get -->
      <g style="fill: #262626" transform="translate(165.084375 233.450391) scale(0.11 -0.11)">
       <defs>
        <path id="DejaVuSans-67" d="M 2906 1791 
Q 2906 2416 2648 2759 
Q 2391 3103 1925 3103 
Q 1463 3103 1205 2759 
Q 947 2416 947 1791 
Q 947 1169 1205 825 
Q 1463 481 1925 481 
Q 2391 481 2648 825 
Q 2906 1169 2906 1791 
z
M 3481 434 
Q 3481 -459 3084 -895 
Q 2688 -1331 1869 -1331 
Q 1566 -1331 1297 -1286 
Q 1028 -1241 775 -1147 
L 775 -588 
Q 1028 -725 1275 -790 
Q 1522 -856 1778 -856 
Q 2344 -856 2625 -561 
Q 2906 -266 2906 331 
L 2906 616 
Q 2728 306 2450 153 
Q 2172 0 1784 0 
Q 1141 0 747 490 
Q 353 981 353 1791 
Q 353 2603 747 3093 
Q 1141 3584 1784 3584 
Q 2172 3584 2450 3431 
Q 2728 3278 2906 2969 
L 2906 3500 
L 3481 3500 
L 3481 434 
z
" transform="scale(0.015625)"/>
       </defs>
       <use xlink:href="#DejaVuSans-2f"/>
       <use xlink:href="#DejaVuSans-6b" transform="translate(33.691406 0)"/>
       <use xlink:href="#DejaVuSans-76" transform="translate(91.601562 0)"/>
       <use xlink:href="#DejaVuSans-2f" transform="translate(150.78125 0)"/>
       <use xlink:href="#DejaVuSans-67" transform="translate(184.472656 0)"/>
       <use xlink:href="#DejaVuSans-65" transform="translate(247.949219 0)"/>
       <use xlink:href="#DejaVuSans-74" transform="translate(309.472656 0)"/>
      </g>
     </g>
    </g>
    <g id="ytick_4">
     <g id="line2d_20">
      <g>
       <use xlink:href="#m9918d58416" x="212.94" y="309.36375" style="fill: #262626; stroke: #262626; stroke-width: 1.25"/>
      </g>
     </g>
     <g id="text_13">
      <!-- /kv/get-batch -->
      <g style="fill: #262626" transform="translate(130.059687 313.542891) scale(0.11 -0.11)">
       <use xlink:href="#DejaVuSans-2f"/>
       <use xlink:href="#DejaVuSans-6b" transform="translate(33.691406 0)"/>
       <use xlink:href="#DejaVuSans-76" transform="translate(91.601562 0)"/>
       <use xlink:href="#DejaVuSans-2f" transform="translate(150.78125 0)"/>
       <use xlink:href="#DejaVuSans-67" transform="translate(184.472656 0)"/>
       <use xlink:href="#DejaVuSans-65" transform="translate(247.949219 0)"/>
       <use xlink:href="#DejaVuSans-74" transform="translate(309.472656 0)"/>
       <use xlink:href="#DejaVuSans-2d" transform="translate(348.681641 0)"/>
       <use xlink:href="#DejaVuSans-62" transform="translate(384.765625 0)"/>
       <use xlink:href="#DejaVuSans-61" transform="translate(448.242188 0)"/>
       <use xlink:href="#DejaVuSans-74" transform="translate(509.521484 0)"/>
       <use xlink:href="#DejaVuSans-63" transform="translate(548.730469 0)"/>
       <use xlink:href="#DejaVuSans-68" transform="translate(603.710938 0)"/>
      </g>
     </g>
    </g>
    <g id="ytick_5">
     <g id="line2d_21">
      <g>
       <use xlink:href="#m9918d58416" x="212.94" y="389.45625" style="fill: #262626; stroke: #262626; stroke-width: 1.25"/>
      </g>
     </g>
     <g id="text_14">
      <!-- /kv/delete -->
      <g style="fill: #262626" transform="translate(148.491562 393.635391) scale(0.11 -0.11)">
       <defs>
        <path id="DejaVuSans-64" d="M 2906 2969 
L 2906 4863 
L 3481 4863 
L 3481 0 
L 2906 0 
L 2906 525 
Q 2725 213 2448 61 
Q 2172 -91 1784 -91 
Q 1150 -91 751 415 
Q 353 922 353 1747 
Q 353 2572 751 3078 
Q 1150 3584 1784 3584 
Q 2172 3584 2448 3432 
Q 2725 3281 2906 2969 
z
M 947 1747 
Q 947 1113 1208 752 
Q 1469 391 1925 391 
Q 2381 391 2643 752 
Q 2906 1113 2906 1747 
Q 2906 2381 2643 2742 
Q 2381 3103 1925 3103 
Q 1469 3103 1208 2742 
Q 947 2381 947 1747 
z
" transform="scale(0.015625)"/>
        <path id="DejaVuSans-6c" d="M 603 4863 
L 1178 4863 
L 1178 0 
L 603 0 
L 603 4863 
z
" transform="scale(0.015625)"/>
       </defs>
       <use xlink:href="#DejaVuSans-2f"/>
       <use xlink:href="#DejaVuSans-6b" transform="translate(33.691406 0)"/>
       <use xlink:href="#DejaVuSans-76" transform="translate(91.601562 0)"/>
       <use xlink:href="#DejaVuSans-2f" transform="translate(150.78125 0)"/>
       <use xlink:href="#DejaVuSans-64" transform="translate(184.472656 0)"/>
       <use xlink:href="#DejaVuSans-65" transform="translate(247.949219 0)"/>
       <use xlink:href="#DejaVuSans-6c" transform="translate(309.472656 0)"/>
       <use xlink:href="#DejaVuSans-65" transform="translate(337.255859 0)"/>
       <use xlink:href="#DejaVuSans-74" transform="translate(398.779297 0)"/>
       <use xlink:href="#DejaVuSans-65" transform="translate(437.988281 0)"/>
      </g>
     </g>
    </g>
    <g id="ytick_6">
     <g id="line2d_22">
      <g>
       <use xlink:href="#m9918d58416" x="212.94" y="469.54875" style="fill: #262626; stroke: #262626; stroke-width: 1.25"/>
      </g>
     </g>
     <g id="text_15">
      <!-- /kv/delete-batch -->
      <g style="fill: #262626" transform="translate(113.466875 473.727891) scale(0.11 -0.11)">
       <use xlink:href="#DejaVuSans-2f"/>
       <use xlink:href="#DejaVuSans-6b" transform="translate(33.691406 0)"/>
       <use xlink:href="#DejaVuSans-76" transform="translate(91.601562 0)"/>
       <use xlink:href="#DejaVuSans-2f" transform="translate(150.78125 0)"/>
       <use xlink:href="#DejaVuSans-64" transform="translate(184.472656 0)"/>
       <use xlink:href="#DejaVuSans-65" transform="translate(247.949219 0)"/>
       <use xlink:href="#DejaVuSans-6c" transform="translate(309.472656 0)"/>
       <use xlink:href="#DejaVuSans-65" transform="translate(337.255859 0)"/>
       <use xlink:href="#DejaVuSans-74" transform="translate(398.779297 0)"/>
       <use xlink:href="#DejaVuSans-65" transform="translate(437.988281 0)"/>
       <use xlink:href="#DejaVuSans-2d" transform="translate(499.511719 0)"/>
       <use xlink:href="#DejaVuSans-62" transform="translate(535.595703 0)"/>
       <use xlink:href="#DejaVuSans-61" transform="translate(599.072266 0)"/>
       <use xlink:href="#DejaVuSans-74" transform="translate(660.351562 0)"/>
       <use xlink:href="#DejaVuSans-63" transform="translate(699.560547 0)"/>
       <use xlink:href="#DejaVuSans-68" transform="translate(754.541016 0)"/>
      </g>
     </g>
    </g>
    <g id="ytick_7">
     <g id="line2d_23">
      <g>
       <use xlink:href="#m9918d58416" x="212.94" y="549.64125" style="fill: #262626; stroke: #262626; stroke-width: 1.25"/>
      </g>
     </g>
     <g id="text_16">
      <!-- /kv/unordered-put-delete -->
      <g style="fill: #262626" transform="translate(65.506875 553.820391) scale(0.11 -0.11)">
       <use xlink:href="#DejaVuSans-2f"/>
       <use xlink:href="#DejaVuSans-6b" transform="translate(33.691406 0)"/>
       <use xlink:href="#DejaVuSans-76" transform="translate(91.601562 0)"/>
       <use xlink:href="#DejaVuSans-2f" transform="translate(150.78125 0)"/>
       <use xlink:href="#DejaVuSans-75" transform="translate(184.472656 0)"/>
       <use xlink:href="#DejaVuSans-6e" transform="translate(247.851562 0)"/>
       <use xlink:href="#DejaVuSans-6f" transform="translate(311.230469 0)"/>
       <use xlink:href="#DejaVuSans-72" transform="translate(372.412109 0)"/>
       <use xlink:href="#DejaVuSans-64" transform="translate(411.775391 0)"/>
       <use xlink:href="#DejaVuSans-65" transform="translate(475.251953 0)"/>
       <use xlink:href="#DejaVuSans-72" transform="translate(536.775391 0)"/>
       <use xlink:href="#DejaVuSans-65" transform="translate(575.638672 0)"/>
       <use xlink:href="#DejaVuSans-64" transform="translate(637.162109 0)"/>
       <use xlink:href="#DejaVuSans-2d" transform="translate(700.638672 0)"/>
       <use xlink:href="#DejaVuSans-70" transform="translate(736.722656 0)"/>
       <use xlink:href="#DejaVuSans-75" transform="translate(800.199219 0)"/>
       <use xlink:href="#DejaVuSans-74" transform="translate(863.578125 0)"/>
       <use xlink:href="#DejaVuSans-2d" transform="translate(902.787109 0)"/>
       <use xlink:href="#DejaVuSans-64" transform="translate(938.871094 0)"/>
       <use xlink:href="#DejaVuSans-65" transform="translate(1002.347656 0)"/>
       <use xlink:href="#DejaVuSans-6c" transform="translate(1063.871094 0)"/>
       <use xlink:href="#DejaVuSans-65" transform="translate(1091.654297 0)"/>
       <use xlink:href="#DejaVuSans-74" transform="translate(1153.177734 0)"/>
       <use xlink:href="#DejaVuSans-65" transform="translate(1192.386719 0)"/>
      </g>
     </g>
    </g>
    <g id="ytick_8">
     <g id="line2d_24">
      <g>
       <use xlink:href="#m9918d58416" x="212.94" y="629.73375" style="fill: #262626; stroke: #262626; stroke-width: 1.25"/>
      </g>
     </g>
     <g id="text_17">
      <!-- /kv/unordered-put-delete-batch -->
      <g style="fill: #262626" transform="translate(30.482188 633.912891) scale(0.11 -0.11)">
       <use xlink:href="#DejaVuSans-2f"/>
       <use xlink:href="#DejaVuSans-6b" transform="translate(33.691406 0)"/>
       <use xlink:href="#DejaVuSans-76" transform="translate(91.601562 0)"/>
       <use xlink:href="#DejaVuSans-2f" transform="translate(150.78125 0)"/>
       <use xlink:href="#DejaVuSans-75" transform="translate(184.472656 0)"/>
       <use xlink:href="#DejaVuSans-6e" transform="translate(247.851562 0)"/>
       <use xlink:href="#DejaVuSans-6f" transform="translate(311.230469 0)"/>
       <use xlink:href="#DejaVuSans-72" transform="translate(372.412109 0)"/>
       <use xlink:href="#DejaVuSans-64" transform="translate(411.775391 0)"/>
       <use xlink:href="#DejaVuSans-65" transform="translate(475.251953 0)"/>
       <use xlink:href="#DejaVuSans-72" transform="translate(536.775391 0)"/>
       <use xlink:href="#DejaVuSans-65" transform="translate(575.638672 0)"/>
       <use xlink:href="#DejaVuSans-64" transform="translate(637.162109 0)"/>
       <use xlink:href="#DejaVuSans-2d" transform="translate(700.638672 0)"/>
       <use xlink:href="#DejaVuSans-70" transform="translate(736.722656 0)"/>
       <use xlink:href="#DejaVuSans-75" transform="translate(800.199219 0)"/>
       <use xlink:href="#DejaVuSans-74" transform="translate(863.578125 0)"/>
       <use xlink:href="#DejaVuSans-2d" transform="translate(902.787109 0)"/>
       <use xlink:href="#DejaVuSans-64" transform="translate(938.871094 0)"/>
       <use xlink:href="#DejaVuSans-65" transform="translate(1002.347656 0)"/>
       <use xlink:href="#DejaVuSans-6c" transform="translate(1063.871094 0)"/>
       <use xlink:href="#DejaVuSans-65" transform="translate(1091.654297 0)"/>
       <use xlink:href="#DejaVuSans-74" transform="translate(1153.177734 0)"/>
       <use xlink:href="#DejaVuSans-65" transform="translate(1192.386719 0)"/>
       <use xlink:href="#DejaVuSans-2d" transform="translate(1253.910156 0)"/>
       <use xlink:href="#DejaVuSans-62" transform="translate(1289.994141 0)"/>
       <use xlink:href="#DejaVuSans-61" transform="translate(1353.470703 0)"/>
       <use xlink:href="#DejaVuSans-74" transform="translate(1414.75 0)"/>
       <use xlink:href="#DejaVuSans-63" transform="translate(1453.958984 0)"/>
       <use xlink:href="#DejaVuSans-68" transform="translate(1508.939453 0)"/>
      </g>
     </g>
    </g>
    <g id="text_18">
     <!-- name -->
     <g style="fill: #262626" transform="translate(23.986563 366.425625) rotate(-90) scale(0.12 -0.12)">
      <defs>
       <path id="DejaVuSans-6d" d="M 3328 2828 
Q 3544 3216 3844 3400 
Q 4144 3584 4550 3584 
Q 5097 3584 5394 3201 
Q 5691 2819 5691 2113 
L 5691 0 
L 5113 0 
L 5113 2094 
Q 5113 2597 4934 2840 
Q 4756 3084 4391 3084 
Q 3944 3084 3684 2787 
Q 3425 2491 3425 1978 
L 3425 0 
L 2847 0 
L 2847 2094 
Q 2847 2600 2669 2842 
Q 2491 3084 2119 3084 
Q 1678 3084 1418 2786 
Q 1159 2488 1159 1978 
L 1159 0 
L 581 0 
L 581 3500 
L 1159 3500 
L 1159 2956 
Q 1356 3278 1631 3431 
Q 1906 3584 2284 3584 
Q 2666 3584 2933 3390 
Q 3200 3197 3328 2828 
z
" transform="scale(0.015625)"/>
      </defs>
      <use xlink:href="#DejaVuSans-6e"/>
      <use xlink:href="#DejaVuSans-61" transform="translate(63.378906 0)"/>
      <use xlink:href="#DejaVuSans-6d" transform="translate(124.658203 0)"/>
      <use xlink:href="#DejaVuSans-65" transform="translate(222.070312 0)"/>
     </g>
    </g>
   </g>
   <g id="patch_3">
    <path d="M 282.390512 37.04925 
L 282.390512 101.12325 
L 283.59019 101.12325 
L 283.59019 37.04925 
L 282.390512 37.04925 
z
" clip-path="url(#pa701f506db)" style="fill: #5875a4; stroke: #4c4c4c; stroke-linejoin: miter"/>
   </g>
   <g id="line2d_25">
    <path d="M 282.390512 69.08625 
L 282.072741 69.08625 
" clip-path="url(#pa701f506db)" style="fill: none; stroke: #4c4c4c"/>
   </g>
   <g id="line2d_26">
    <path d="M 283.59019 69.08625 
L 284.615777 69.08625 
" clip-path="url(#pa701f506db)" style="fill: none; stroke: #4c4c4c"/>
   </g>
   <g id="line2d_27">
    <path d="M 282.072741 53.06775 
L 282.072741 85.10475 
" clip-path="url(#pa701f506db)" style="fill: none; stroke: #4c4c4c; stroke-linecap: round"/>
   </g>
   <g id="line2d_28">
    <path d="M 284.615777 53.06775 
L 284.615777 85.10475 
" clip-path="url(#pa701f506db)" style="fill: none; stroke: #4c4c4c; stroke-linecap: round"/>
   </g>
   <g id="line2d_29">
    <defs>
     <path id="m5c257880c1" d="M 0 3 
C 0.795609 3 1.55874 2.683901 2.12132 2.12132 
C 2.683901 1.55874 3 0.795609 3 0 
C 3 -0.795609 2.683901 -1.55874 2.12132 -2.12132 
C 1.55874 -2.683901 0.795609 -3 0 -3 
C -0.795609 -3 -1.55874 -2.683901 -2.12132 -2.12132 
C -2.683901 -1.55874 -3 -0.795609 -3 0 
C -3 0.795609 -2.683901 1.55874 -2.12132 2.12132 
C -1.55874 2.683901 -0.795609 3 0 3 
z
" style="stroke: #4c4c4c"/>
    </defs>
    <g clip-path="url(#pa701f506db)">
     <use xlink:href="#m5c257880c1" x="279.527817" y="69.08625" style="fill-opacity: 0; stroke: #4c4c4c"/>
     <use xlink:href="#m5c257880c1" x="291.608814" y="69.08625" style="fill-opacity: 0; stroke: #4c4c4c"/>
    </g>
   </g>
   <g id="patch_4">
    <path d="M 282.64568 117.14175 
L 282.64568 181.21575 
L 283.84585 181.21575 
L 283.84585 117.14175 
L 282.64568 117.14175 
z
" clip-path="url(#pa701f506db)" style="fill: #5875a4; stroke: #4c4c4c; stroke-linejoin: miter"/>
   </g>
   <g id="line2d_30">
    <path d="M 282.64568 149.17875 
L 281.165609 149.17875 
" clip-path="url(#pa701f506db)" style="fill: none; stroke: #4c4c4c"/>
   </g>
   <g id="line2d_31">
    <path d="M 283.84585 149.17875 
L 283.902899 149.17875 
" clip-path="url(#pa701f506db)" style="fill: none; stroke: #4c4c4c"/>
   </g>
   <g id="line2d_32">
    <path d="M 281.165609 133.16025 
L 281.165609 165.19725 
" clip-path="url(#pa701f506db)" style="fill: none; stroke: #4c4c4c; stroke-linecap: round"/>
   </g>
   <g id="line2d_33">
    <path d="M 283.902899 133.16025 
L 283.902899 165.19725 
" clip-path="url(#pa701f506db)" style="fill: none; stroke: #4c4c4c; stroke-linecap: round"/>
   </g>
   <g id="line2d_34">
    <g clip-path="url(#pa701f506db)">
     <use xlink:href="#m5c257880c1" x="279.100634" y="149.17875" style="fill-opacity: 0; stroke: #4c4c4c"/>
     <use xlink:href="#m5c257880c1" x="286.904833" y="149.17875" style="fill-opacity: 0; stroke: #4c4c4c"/>
    </g>
   </g>
   <g id="patch_5">
    <path d="M 1316.463442 197.23425 
L 1316.463442 261.30825 
L 1340.096888 261.30825 
L 1340.096888 197.23425 
L 1316.463442 197.23425 
z
" clip-path="url(#pa701f506db)" style="fill: #5875a4; stroke: #4c4c4c; stroke-linejoin: miter"/>
   </g>
   <g id="line2d_35">
    <path d="M 1316.463442 229.27125 
L 1314.487374 229.27125 
" clip-path="url(#pa701f506db)" style="fill: none; stroke: #4c4c4c"/>
   </g>
   <g id="line2d_36">
    <path d="M 1340.096888 229.27125 
L 1344.56054 229.27125 
" clip-path="url(#pa701f506db)" style="fill: none; stroke: #4c4c4c"/>
   </g>
   <g id="line2d_37">
    <path d="M 1314.487374 213.25275 
L 1314.487374 245.28975 
" clip-path="url(#pa701f506db)" style="fill: none; stroke: #4c4c4c; stroke-linecap: round"/>
   </g>
   <g id="line2d_38">
    <path d="M 1344.56054 213.25275 
L 1344.56054 245.28975 
" clip-path="url(#pa701f506db)" style="fill: none; stroke: #4c4c4c; stroke-linecap: round"/>
   </g>
   <g id="line2d_39">
    <g clip-path="url(#pa701f506db)">
     <use xlink:href="#m5c257880c1" x="1280.631446" y="229.27125" style="fill-opacity: 0; stroke: #4c4c4c"/>
     <use xlink:href="#m5c257880c1" x="1280.056222" y="229.27125" style="fill-opacity: 0; stroke: #4c4c4c"/>
    </g>
   </g>
   <g id="patch_6">
    <path d="M 1343.455574 277.32675 
L 1343.455574 341.40075 
L 1363.935859 341.40075 
L 1363.935859 277.32675 
L 1343.455574 277.32675 
z
" clip-path="url(#pa701f506db)" style="fill: #5875a4; stroke: #4c4c4c; stroke-linejoin: miter"/>
   </g>
   <g id="line2d_40">
    <path d="M 1343.455574 309.36375 
L 1326.135471 309.36375 
" clip-path="url(#pa701f506db)" style="fill: none; stroke: #4c4c4c"/>
   </g>
   <g id="line2d_41">
    <path d="M 1363.935859 309.36375 
L 1371.853636 309.36375 
" clip-path="url(#pa701f506db)" style="fill: none; stroke: #4c4c4c"/>
   </g>
   <g id="line2d_42">
    <path d="M 1326.135471 293.34525 
L 1326.135471 325.38225 
" clip-path="url(#pa701f506db)" style="fill: none; stroke: #4c4c4c; stroke-linecap: round"/>
   </g>
   <g id="line2d_43">
    <path d="M 1371.853636 293.34525 
L 1371.853636 325.38225 
" clip-path="url(#pa701f506db)" style="fill: none; stroke: #4c4c4c; stroke-linecap: round"/>
   </g>
   <g id="line2d_44">
    <g clip-path="url(#pa701f506db)">
     <use xlink:href="#m5c257880c1" x="1284.650419" y="309.36375" style="fill-opacity: 0; stroke: #4c4c4c"/>
    </g>
   </g>
   <g id="patch_7">
    <path d="M 276.089994 357.41925 
L 276.089994 421.49325 
L 276.893371 421.49325 
L 276.893371 357.41925 
L 276.089994 357.41925 
z
" clip-path="url(#pa701f506db)" style="fill: #5875a4; stroke: #4c4c4c; stroke-linejoin: miter"/>
   </g>
   <g id="line2d_45">
    <path d="M 276.089994 389.45625 
L 275.388548 389.45625 
" clip-path="url(#pa701f506db)" style="fill: none; stroke: #4c4c4c"/>
   </g>
   <g id="line2d_46">
    <path d="M 276.893371 389.45625 
L 277.125768 389.45625 
" clip-path="url(#pa701f506db)" style="fill: none; stroke: #4c4c4c"/>
   </g>
   <g id="line2d_47">
    <path d="M 275.388548 373.43775 
L 275.388548 405.47475 
" clip-path="url(#pa701f506db)" style="fill: none; stroke: #4c4c4c; stroke-linecap: round"/>
   </g>
   <g id="line2d_48">
    <path d="M 277.125768 373.43775 
L 277.125768 405.47475 
" clip-path="url(#pa701f506db)" style="fill: none; stroke: #4c4c4c; stroke-linecap: round"/>
   </g>
   <g id="line2d_49">
    <g clip-path="url(#pa701f506db)">
     <use xlink:href="#m5c257880c1" x="280.074055" y="389.45625" style="fill-opacity: 0; stroke: #4c4c4c"/>
    </g>
   </g>
   <g id="patch_8">
    <path d="M 276.350974 437.51175 
L 276.350974 501.58575 
L 277.313824 501.58575 
L 277.313824 437.51175 
L 276.350974 437.51175 
z
" clip-path="url(#pa701f506db)" style="fill: #5875a4; stroke: #4c4c4c; stroke-linejoin: miter"/>
   </g>
   <g id="line2d_50">
    <path d="M 276.350974 469.54875 
L 275.364372 469.54875 
" clip-path="url(#pa701f506db)" style="fill: none; stroke: #4c4c4c"/>
   </g>
   <g id="line2d_51">
    <path d="M 277.313824 469.54875 
L 277.815989 469.54875 
" clip-path="url(#pa701f506db)" style="fill: none; stroke: #4c4c4c"/>
   </g>
   <g id="line2d_52">
    <path d="M 275.364372 453.53025 
L 275.364372 485.56725 
" clip-path="url(#pa701f506db)" style="fill: none; stroke: #4c4c4c; stroke-linecap: round"/>
   </g>
   <g id="line2d_53">
    <path d="M 277.815989 453.53025 
L 277.815989 485.56725 
" clip-path="url(#pa701f506db)" style="fill: none; stroke: #4c4c4c; stroke-linecap: round"/>
   </g>
   <g id="line2d_54">
    <g clip-path="url(#pa701f506db)">
     <use xlink:href="#m5c257880c1" x="268.126364" y="469.54875" style="fill-opacity: 0; stroke: #4c4c4c"/>
     <use xlink:href="#m5c257880c1" x="279.643333" y="469.54875" style="fill-opacity: 0; stroke: #4c4c4c"/>
    </g>
   </g>
   <g id="patch_9">
    <path d="M 301.947192 517.60425 
L 301.947192 581.67825 
L 304.041195 581.67825 
L 304.041195 517.60425 
L 301.947192 517.60425 
z
" clip-path="url(#pa701f506db)" style="fill: #5875a4; stroke: #4c4c4c; stroke-linejoin: miter"/>
   </g>
   <g id="line2d_55">
    <path d="M 301.947192 549.64125 
L 301.151198 549.64125 
" clip-path="url(#pa701f506db)" style="fill: none; stroke: #4c4c4c"/>
   </g>
   <g id="line2d_56">
    <path d="M 304.041195 549.64125 
L 304.338142 549.64125 
" clip-path="url(#pa701f506db)" style="fill: none; stroke: #4c4c4c"/>
   </g>
   <g id="line2d_57">
    <path d="M 301.151198 533.62275 
L 301.151198 565.65975 
" clip-path="url(#pa701f506db)" style="fill: none; stroke: #4c4c4c; stroke-linecap: round"/>
   </g>
   <g id="line2d_58">
    <path d="M 304.338142 533.62275 
L 304.338142 565.65975 
" clip-path="url(#pa701f506db)" style="fill: none; stroke: #4c4c4c; stroke-linecap: round"/>
   </g>
   <g id="line2d_59">
    <g clip-path="url(#pa701f506db)">
     <use xlink:href="#m5c257880c1" x="296.132999" y="549.64125" style="fill-opacity: 0; stroke: #4c4c4c"/>
     <use xlink:href="#m5c257880c1" x="307.921945" y="549.64125" style="fill-opacity: 0; stroke: #4c4c4c"/>
     <use xlink:href="#m5c257880c1" x="313.188562" y="549.64125" style="fill-opacity: 0; stroke: #4c4c4c"/>
    </g>
   </g>
   <g id="patch_10">
    <path d="M 302.36924 597.69675 
L 302.36924 661.77075 
L 304.08795 661.77075 
L 304.08795 597.69675 
L 302.36924 597.69675 
z
" clip-path="url(#pa701f506db)" style="fill: #5875a4; stroke: #4c4c4c; stroke-linejoin: miter"/>
   </g>
   <g id="line2d_60">
    <path d="M 302.36924 629.73375 
L 301.504263 629.73375 
" clip-path="url(#pa701f506db)" style="fill: none; stroke: #4c4c4c"/>
   </g>
   <g id="line2d_61">
    <path d="M 304.08795 629.73375 
L 305.102346 629.73375 
" clip-path="url(#pa701f506db)" style="fill: none; stroke: #4c4c4c"/>
   </g>
   <g id="line2d_62">
    <path d="M 301.504263 613.71525 
L 301.504263 645.75225 
" clip-path="url(#pa701f506db)" style="fill: none; stroke: #4c4c4c; stroke-linecap: round"/>
   </g>
   <g id="line2d_63">
    <path d="M 305.102346 613.71525 
L 305.102346 645.75225 
" clip-path="url(#pa701f506db)" style="fill: none; stroke: #4c4c4c; stroke-linecap: round"/>
   </g>
   <g id="line2d_64"/>
   <g id="line2d_65">
    <path d="M 283.116381 37.04925 
L 283.116381 101.12325 
" clip-path="url(#pa701f506db)" style="fill: none; stroke: #4c4c4c"/>
   </g>
   <g id="line2d_66">
    <path d="M 283.436178 117.14175 
L 283.436178 181.21575 
" clip-path="url(#pa701f506db)" style="fill: none; stroke: #4c4c4c"/>
   </g>
   <g id="line2d_67">
    <path d="M 1331.934715 197.23425 
L 1331.934715 261.30825 
" clip-path="url(#pa701f506db)" style="fill: none; stroke: #4c4c4c"/>
   </g>
   <g id="line2d_68">
    <path d="M 1358.06717 277.32675 
L 1358.06717 341.40075 
" clip-path="url(#pa701f506db)" style="fill: none; stroke: #4c4c4c"/>
   </g>
   <g id="line2d_69">
    <path d="M 276.67141 357.41925 
L 276.67141 421.49325 
" clip-path="url(#pa701f506db)" style="fill: none; stroke: #4c4c4c"/>
   </g>
   <g id="line2d_70">
    <path d="M 276.789209 437.51175 
L 276.789209 501.58575 
" clip-path="url(#pa701f506db)" style="fill: none; stroke: #4c4c4c"/>
   </g>
   <g id="line2d_71">
    <path d="M 302.692253 517.60425 
L 302.692253 581.67825 
" clip-path="url(#pa701f506db)" style="fill: none; stroke: #4c4c4c"/>
   </g>
   <g id="line2d_72">
    <path d="M 303.281413 597.69675 
L 303.281413 661.77075 
" clip-path="url(#pa701f506db)" style="fill: none; stroke: #4c4c4c"/>
   </g>
   <g id="patch_11">
    <path d="M 212.94 669.78 
L 212.94 29.04 
" style="fill: none; stroke: #ffffff; stroke-width: 1.25; stroke-linejoin: miter; stroke-linecap: square"/>
   </g>
   <g id="patch_12">
    <path d="M 1427.04 669.78 
L 1427.04 29.04 
" style="fill: none; stroke: #ffffff; stroke-width: 1.25; stroke-linejoin: miter; stroke-linecap: square"/>
   </g>
   <g id="patch_13">
    <path d="M 212.94 669.78 
L 1427.04 669.78 
" style="fill: none; stroke: #ffffff; stroke-width: 1.25; stroke-linejoin: miter; stroke-linecap: square"/>
   </g>
   <g id="patch_14">
    <path d="M 212.94 29.04 
L 1427.04 29.04 
" style="fill: none; stroke: #ffffff; stroke-width: 1.25; stroke-linejoin: miter; stroke-linecap: square"/>
   </g>
   <g id="text_19">
    <!-- System - kv -->
    <g style="fill: #262626" transform="translate(784.611562 23.04) scale(0.12 -0.12)">
     <defs>
      <path id="DejaVuSans-53" d="M 3425 4513 
L 3425 3897 
Q 3066 4069 2747 4153 
Q 2428 4238 2131 4238 
Q 1616 4238 1336 4038 
Q 1056 3838 1056 3469 
Q 1056 3159 1242 3001 
Q 1428 2844 1947 2747 
L 2328 2669 
Q 3034 2534 3370 2195 
Q 3706 1856 3706 1288 
Q 3706 609 3251 259 
Q 2797 -91 1919 -91 
Q 1588 -91 1214 -16 
Q 841 59 441 206 
L 441 856 
Q 825 641 1194 531 
Q 1563 422 1919 422 
Q 2459 422 2753 634 
Q 3047 847 3047 1241 
Q 3047 1584 2836 1778 
Q 2625 1972 2144 2069 
L 1759 2144 
Q 1053 2284 737 2584 
Q 422 2884 422 3419 
Q 422 4038 858 4394 
Q 1294 4750 2059 4750 
Q 2388 4750 2728 4690 
Q 3069 4631 3425 4513 
z
" transform="scale(0.015625)"/>
      <path id="DejaVuSans-79" d="M 2059 -325 
Q 1816 -950 1584 -1140 
Q 1353 -1331 966 -1331 
L 506 -1331 
L 506 -850 
L 844 -850 
Q 1081 -850 1212 -737 
Q 1344 -625 1503 -206 
L 1606 56 
L 191 3500 
L 800 3500 
L 1894 763 
L 2988 3500 
L 3597 3500 
L 2059 -325 
z
" transform="scale(0.015625)"/>
      <path id="DejaVuSans-20" transform="scale(0.015625)"/>
     </defs>
     <use xlink:href="#DejaVuSans-53"/>
     <use xlink:href="#DejaVuSans-79" transform="translate(63.476562 0)"/>
     <use xlink:href="#DejaVuSans-73" transform="translate(122.65625 0)"/>
     <use xlink:href="#DejaVuSans-74" transform="translate(174.755859 0)"/>
     <use xlink:href="#DejaVuSans-65" transform="translate(213.964844 0)"/>
     <use xlink:href="#DejaVuSans-6d" transform="translate(275.488281 0)"/>
     <use xlink:href="#DejaVuSans-20" transform="translate(372.900391 0)"/>
     <use xlink:href="#DejaVuSans-2d" transform="translate(404.6875 0)"/>
     <use xlink:href="#DejaVuSans-20" transform="translate(440.771484 0)"/>
     <use xlink:href="#DejaVuSans-6b" transform="translate(472.558594 0)"/>
     <use xlink:href="#DejaVuSans-76" transform="translate(530.46875 0)"/>
    </g>
   </g>
  </g>
 </g>
 <defs>
  <clipPath id="pa701f506db">
   <rect x="212.94" y="29.04" width="1214.1" height="640.74"/>
  </clipPath>
 </defs>
</svg>
