<?xml version="1.0" encoding="utf-8" standalone="no"?>
<!DOCTYPE svg PUBLIC "-//W3C//DTD SVG 1.1//EN"
  "http://www.w3.org/Graphics/SVG/1.1/DTD/svg11.dtd">
<svg xmlns:xlink="http://www.w3.org/1999/xlink" width="2160pt" height="2880pt" viewBox="0 0 2160 2880" xmlns="http://www.w3.org/2000/svg" version="1.1">
 <metadata>
  <rdf:RDF xmlns:dc="http://purl.org/dc/elements/1.1/" xmlns:cc="http://creativecommons.org/ns#" xmlns:rdf="http://www.w3.org/1999/02/22-rdf-syntax-ns#">
   <cc:Work>
    <dc:type rdf:resource="http://purl.org/dc/dcmitype/StillImage"/>
    <dc:date>2025-02-09T14:59:58.457994</dc:date>
    <dc:format>image/svg+xml</dc:format>
    <dc:creator>
     <cc:Agent>
      <dc:title>Matplotlib v3.10.0, https://matplotlib.org/</dc:title>
     </cc:Agent>
    </dc:creator>
   </cc:Work>
  </rdf:RDF>
 </metadata>
 <defs>
  <style type="text/css">*{stroke-linejoin: round; stroke-linecap: butt}</style>
 </defs>
 <g id="figure_1">
  <g id="patch_1">
   <path d="M 0 2880 
L 2160 2880 
L 2160 0 
L 0 0 
z
" style="fill: #ffffff"/>
  </g>
  <g id="axes_1">
   <g id="patch_2">
    <path d="M 214.28 2830.58875 
L 2147.04 2830.58875 
L 2147.04 12.96 
L 214.28 12.96 
z
" style="fill: #eaeaf2"/>
   </g>
   <g id="matplotlib.axis_1">
    <g id="xtick_1">
     <g id="line2d_1">
      <path d="M 692.651955 2830.58875 
L 692.651955 12.96 
" clip-path="url(#p023c0472a7)" style="fill: none; stroke: #ffffff; stroke-linecap: round"/>
     </g>
     <g id="line2d_2">
      <defs>
       <path id="m1f7ff4677d" d="M 0 0 
L 0 5 
" style="stroke: #262626"/>
      </defs>
      <g>
       <use xlink:href="#m1f7ff4677d" x="692.651955" y="2830.58875" style="fill: #262626; stroke: #262626"/>
      </g>
     </g>
     <g id="text_1">
      <!-- 0 -->
      <g style="fill: #262626" transform="translate(689.15258 2847.447031) scale(0.11 -0.11)">
       <defs>
        <path id="DejaVuSans-30" d="M 2034 4250 
Q 1547 4250 1301 3770 
Q 1056 3291 1056 2328 
Q 1056 1369 1301 889 
Q 1547 409 2034 409 
Q 2525 409 2770 889 
Q 3016 1369 3016 2328 
Q 3016 3291 2770 3770 
Q 2525 4250 2034 4250 
z
M 2034 4750 
Q 2819 4750 3233 4129 
Q 3647 3509 3647 2328 
Q 3647 1150 3233 529 
Q 2819 -91 2034 -91 
Q 1250 -91 836 529 
Q 422 1150 422 2328 
Q 422 3509 836 4129 
Q 1250 4750 2034 4750 
z
" transform="scale(0.015625)"/>
       </defs>
       <use xlink:href="#DejaVuSans-30"/>
      </g>
     </g>
    </g>
    <g id="xtick_2">
     <g id="line2d_3">
      <defs>
       <path id="mbfc30caff6" d="M 0 0 
L 0 2.5 
" style="stroke: #262626; stroke-width: 0.75"/>
      </defs>
      <g>
       <use xlink:href="#mbfc30caff6" x="315.342812" y="2830.58875" style="fill: #262626; stroke: #262626; stroke-width: 0.75"/>
      </g>
     </g>
    </g>
    <g id="xtick_3">
     <g id="line2d_4">
      <g>
       <use xlink:href="#mbfc30caff6" x="503.997384" y="2830.58875" style="fill: #262626; stroke: #262626; stroke-width: 0.75"/>
      </g>
     </g>
    </g>
    <g id="xtick_4">
     <g id="line2d_5">
      <g>
       <use xlink:href="#mbfc30caff6" x="881.306527" y="2830.58875" style="fill: #262626; stroke: #262626; stroke-width: 0.75"/>
      </g>
     </g>
    </g>
    <g id="xtick_5">
     <g id="line2d_6">
      <g>
       <use xlink:href="#mbfc30caff6" x="1069.961098" y="2830.58875" style="fill: #262626; stroke: #262626; stroke-width: 0.75"/>
      </g>
     </g>
    </g>
    <g id="xtick_6">
     <g id="line2d_7">
      <g>
       <use xlink:href="#mbfc30caff6" x="1258.61567" y="2830.58875" style="fill: #262626; stroke: #262626; stroke-width: 0.75"/>
      </g>
     </g>
    </g>
    <g id="xtick_7">
     <g id="line2d_8">
      <g>
       <use xlink:href="#mbfc30caff6" x="1447.270241" y="2830.58875" style="fill: #262626; stroke: #262626; stroke-width: 0.75"/>
      </g>
     </g>
    </g>
    <g id="xtick_8">
     <g id="line2d_9">
      <g>
       <use xlink:href="#mbfc30caff6" x="1635.924812" y="2830.58875" style="fill: #262626; stroke: #262626; stroke-width: 0.75"/>
      </g>
     </g>
    </g>
    <g id="xtick_9">
     <g id="line2d_10">
      <g>
       <use xlink:href="#mbfc30caff6" x="1824.579384" y="2830.58875" style="fill: #262626; stroke: #262626; stroke-width: 0.75"/>
      </g>
     </g>
    </g>
    <g id="xtick_10">
     <g id="line2d_11">
      <g>
       <use xlink:href="#mbfc30caff6" x="2013.233955" y="2830.58875" style="fill: #262626; stroke: #262626; stroke-width: 0.75"/>
      </g>
     </g>
    </g>
    <g id="text_2">
     <!-- difference_operations -->
     <g style="fill: #262626" transform="translate(1115.516875 2862.852812) scale(0.12 -0.12)">
      <defs>
       <path id="DejaVuSans-64" d="M 2906 2969 
L 2906 4863 
L 3481 4863 
L 3481 0 
L 2906 0 
L 2906 525 
Q 2725 213 2448 61 
Q 2172 -91 1784 -91 
Q 1150 -91 751 415 
Q 353 922 353 1747 
Q 353 2572 751 3078 
Q 1150 3584 1784 3584 
Q 2172 3584 2448 3432 
Q 2725 3281 2906 2969 
z
M 947 1747 
Q 947 1113 1208 752 
Q 1469 391 1925 391 
Q 2381 391 2643 752 
Q 2906 1113 2906 1747 
Q 2906 2381 2643 2742 
Q 2381 3103 1925 3103 
Q 1469 3103 1208 2742 
Q 947 2381 947 1747 
z
" transform="scale(0.015625)"/>
       <path id="DejaVuSans-69" d="M 603 3500 
L 1178 3500 
L 1178 0 
L 603 0 
L 603 3500 
z
M 603 4863 
L 1178 4863 
L 1178 4134 
L 603 4134 
L 603 4863 
z
" transform="scale(0.015625)"/>
       <path id="DejaVuSans-66" d="M 2375 4863 
L 2375 4384 
L 1825 4384 
Q 1516 4384 1395 4259 
Q 1275 4134 1275 3809 
L 1275 3500 
L 2222 3500 
L 2222 3053 
L 1275 3053 
L 1275 0 
L 697 0 
L 697 3053 
L 147 3053 
L 147 3500 
L 697 3500 
L 697 3744 
Q 697 4328 969 4595 
Q 1241 4863 1831 4863 
L 2375 4863 
z
" transform="scale(0.015625)"/>
       <path id="DejaVuSans-65" d="M 3597 1894 
L 3597 1613 
L 953 1613 
Q 991 1019 1311 708 
Q 1631 397 2203 397 
Q 2534 397 2845 478 
Q 3156 559 3463 722 
L 3463 178 
Q 3153 47 2828 -22 
Q 2503 -91 2169 -91 
Q 1331 -91 842 396 
Q 353 884 353 1716 
Q 353 2575 817 3079 
Q 1281 3584 2069 3584 
Q 2775 3584 3186 3129 
Q 3597 2675 3597 1894 
z
M 3022 2063 
Q 3016 2534 2758 2815 
Q 2500 3097 2075 3097 
Q 1594 3097 1305 2825 
Q 1016 2553 972 2059 
L 3022 2063 
z
" transform="scale(0.015625)"/>
       <path id="DejaVuSans-72" d="M 2631 2963 
Q 2534 3019 2420 3045 
Q 2306 3072 2169 3072 
Q 1681 3072 1420 2755 
Q 1159 2438 1159 1844 
L 1159 0 
L 581 0 
L 581 3500 
L 1159 3500 
L 1159 2956 
Q 1341 3275 1631 3429 
Q 1922 3584 2338 3584 
Q 2397 3584 2469 3576 
Q 2541 3569 2628 3553 
L 2631 2963 
z
" transform="scale(0.015625)"/>
       <path id="DejaVuSans-6e" d="M 3513 2113 
L 3513 0 
L 2938 0 
L 2938 2094 
Q 2938 2591 2744 2837 
Q 2550 3084 2163 3084 
Q 1697 3084 1428 2787 
Q 1159 2491 1159 1978 
L 1159 0 
L 581 0 
L 581 3500 
L 1159 3500 
L 1159 2956 
Q 1366 3272 1645 3428 
Q 1925 3584 2291 3584 
Q 2894 3584 3203 3211 
Q 3513 2838 3513 2113 
z
" transform="scale(0.015625)"/>
       <path id="DejaVuSans-63" d="M 3122 3366 
L 3122 2828 
Q 2878 2963 2633 3030 
Q 2388 3097 2138 3097 
Q 1578 3097 1268 2742 
Q 959 2388 959 1747 
Q 959 1106 1268 751 
Q 1578 397 2138 397 
Q 2388 397 2633 464 
Q 2878 531 3122 666 
L 3122 134 
Q 2881 22 2623 -34 
Q 2366 -91 2075 -91 
Q 1284 -91 818 406 
Q 353 903 353 1747 
Q 353 2603 823 3093 
Q 1294 3584 2113 3584 
Q 2378 3584 2631 3529 
Q 2884 3475 3122 3366 
z
" transform="scale(0.015625)"/>
       <path id="DejaVuSans-5f" d="M 3263 -1063 
L 3263 -1509 
L -63 -1509 
L -63 -1063 
L 3263 -1063 
z
" transform="scale(0.015625)"/>
       <path id="DejaVuSans-6f" d="M 1959 3097 
Q 1497 3097 1228 2736 
Q 959 2375 959 1747 
Q 959 1119 1226 758 
Q 1494 397 1959 397 
Q 2419 397 2687 759 
Q 2956 1122 2956 1747 
Q 2956 2369 2687 2733 
Q 2419 3097 1959 3097 
z
M 1959 3584 
Q 2709 3584 3137 3096 
Q 3566 2609 3566 1747 
Q 3566 888 3137 398 
Q 2709 -91 1959 -91 
Q 1206 -91 779 398 
Q 353 888 353 1747 
Q 353 2609 779 3096 
Q 1206 3584 1959 3584 
z
" transform="scale(0.015625)"/>
       <path id="DejaVuSans-70" d="M 1159 525 
L 1159 -1331 
L 581 -1331 
L 581 3500 
L 1159 3500 
L 1159 2969 
Q 1341 3281 1617 3432 
Q 1894 3584 2278 3584 
Q 2916 3584 3314 3078 
Q 3713 2572 3713 1747 
Q 3713 922 3314 415 
Q 2916 -91 2278 -91 
Q 1894 -91 1617 61 
Q 1341 213 1159 525 
z
M 3116 1747 
Q 3116 2381 2855 2742 
Q 2594 3103 2138 3103 
Q 1681 3103 1420 2742 
Q 1159 2381 1159 1747 
Q 1159 1113 1420 752 
Q 1681 391 2138 391 
Q 2594 391 2855 752 
Q 3116 1113 3116 1747 
z
" transform="scale(0.015625)"/>
       <path id="DejaVuSans-61" d="M 2194 1759 
Q 1497 1759 1228 1600 
Q 959 1441 959 1056 
Q 959 750 1161 570 
Q 1363 391 1709 391 
Q 2188 391 2477 730 
Q 2766 1069 2766 1631 
L 2766 1759 
L 2194 1759 
z
M 3341 1997 
L 3341 0 
L 2766 0 
L 2766 531 
Q 2569 213 2275 61 
Q 1981 -91 1556 -91 
Q 1019 -91 701 211 
Q 384 513 384 1019 
Q 384 1609 779 1909 
Q 1175 2209 1959 2209 
L 2766 2209 
L 2766 2266 
Q 2766 2663 2505 2880 
Q 2244 3097 1772 3097 
Q 1472 3097 1187 3025 
Q 903 2953 641 2809 
L 641 3341 
Q 956 3463 1253 3523 
Q 1550 3584 1831 3584 
Q 2591 3584 2966 3190 
Q 3341 2797 3341 1997 
z
" transform="scale(0.015625)"/>
       <path id="DejaVuSans-74" d="M 1172 4494 
L 1172 3500 
L 2356 3500 
L 2356 3053 
L 1172 3053 
L 1172 1153 
Q 1172 725 1289 603 
Q 1406 481 1766 481 
L 2356 481 
L 2356 0 
L 1766 0 
Q 1100 0 847 248 
Q 594 497 594 1153 
L 594 3053 
L 172 3053 
L 172 3500 
L 594 3500 
L 594 4494 
L 1172 4494 
z
" transform="scale(0.015625)"/>
       <path id="DejaVuSans-73" d="M 2834 3397 
L 2834 2853 
Q 2591 2978 2328 3040 
Q 2066 3103 1784 3103 
Q 1356 3103 1142 2972 
Q 928 2841 928 2578 
Q 928 2378 1081 2264 
Q 1234 2150 1697 2047 
L 1894 2003 
Q 2506 1872 2764 1633 
Q 3022 1394 3022 966 
Q 3022 478 2636 193 
Q 2250 -91 1575 -91 
Q 1294 -91 989 -36 
Q 684 19 347 128 
L 347 722 
Q 666 556 975 473 
Q 1284 391 1588 391 
Q 1994 391 2212 530 
Q 2431 669 2431 922 
Q 2431 1156 2273 1281 
Q 2116 1406 1581 1522 
L 1381 1569 
Q 847 1681 609 1914 
Q 372 2147 372 2553 
Q 372 3047 722 3315 
Q 1072 3584 1716 3584 
Q 2034 3584 2315 3537 
Q 2597 3491 2834 3397 
z
" transform="scale(0.015625)"/>
      </defs>
      <use xlink:href="#DejaVuSans-64"/>
      <use xlink:href="#DejaVuSans-69" transform="translate(63.476562 0)"/>
      <use xlink:href="#DejaVuSans-66" transform="translate(91.259766 0)"/>
      <use xlink:href="#DejaVuSans-66" transform="translate(126.464844 0)"/>
      <use xlink:href="#DejaVuSans-65" transform="translate(161.669922 0)"/>
      <use xlink:href="#DejaVuSans-72" transform="translate(223.193359 0)"/>
      <use xlink:href="#DejaVuSans-65" transform="translate(262.056641 0)"/>
      <use xlink:href="#DejaVuSans-6e" transform="translate(323.580078 0)"/>
      <use xlink:href="#DejaVuSans-63" transform="translate(386.958984 0)"/>
      <use xlink:href="#DejaVuSans-65" transform="translate(441.939453 0)"/>
      <use xlink:href="#DejaVuSans-5f" transform="translate(503.462891 0)"/>
      <use xlink:href="#DejaVuSans-6f" transform="translate(553.462891 0)"/>
      <use xlink:href="#DejaVuSans-70" transform="translate(614.644531 0)"/>
      <use xlink:href="#DejaVuSans-65" transform="translate(678.121094 0)"/>
      <use xlink:href="#DejaVuSans-72" transform="translate(739.644531 0)"/>
      <use xlink:href="#DejaVuSans-61" transform="translate(780.757812 0)"/>
      <use xlink:href="#DejaVuSans-74" transform="translate(842.037109 0)"/>
      <use xlink:href="#DejaVuSans-69" transform="translate(881.246094 0)"/>
      <use xlink:href="#DejaVuSans-6f" transform="translate(909.029297 0)"/>
      <use xlink:href="#DejaVuSans-6e" transform="translate(970.210938 0)"/>
      <use xlink:href="#DejaVuSans-73" transform="translate(1033.589844 0)"/>
     </g>
    </g>
   </g>
   <g id="matplotlib.axis_2">
    <g id="ytick_1">
     <g id="line2d_12">
      <defs>
       <path id="m396777bd3d" d="M 0 0 
L -5 0 
" style="stroke: #262626"/>
      </defs>
      <g>
       <use xlink:href="#m396777bd3d" x="214.28" y="130.361198" style="fill: #262626; stroke: #262626"/>
      </g>
     </g>
     <g id="text_3">
      <!-- /db/entry/delete -->
      <g style="fill: #262626" transform="translate(116.955 134.540339) scale(0.11 -0.11)">
       <defs>
        <path id="DejaVuSans-2f" d="M 1625 4666 
L 2156 4666 
L 531 -594 
L 0 -594 
L 1625 4666 
z
" transform="scale(0.015625)"/>
        <path id="DejaVuSans-62" d="M 3116 1747 
Q 3116 2381 2855 2742 
Q 2594 3103 2138 3103 
Q 1681 3103 1420 2742 
Q 1159 2381 1159 1747 
Q 1159 1113 1420 752 
Q 1681 391 2138 391 
Q 2594 391 2855 752 
Q 3116 1113 3116 1747 
z
M 1159 2969 
Q 1341 3281 1617 3432 
Q 1894 3584 2278 3584 
Q 2916 3584 3314 3078 
Q 3713 2572 3713 1747 
Q 3713 922 3314 415 
Q 2916 -91 2278 -91 
Q 1894 -91 1617 61 
Q 1341 213 1159 525 
L 1159 0 
L 581 0 
L 581 4863 
L 1159 4863 
L 1159 2969 
z
" transform="scale(0.015625)"/>
        <path id="DejaVuSans-79" d="M 2059 -325 
Q 1816 -950 1584 -1140 
Q 1353 -1331 966 -1331 
L 506 -1331 
L 506 -850 
L 844 -850 
Q 1081 -850 1212 -737 
Q 1344 -625 1503 -206 
L 1606 56 
L 191 3500 
L 800 3500 
L 1894 763 
L 2988 3500 
L 3597 3500 
L 2059 -325 
z
" transform="scale(0.015625)"/>
        <path id="DejaVuSans-6c" d="M 603 4863 
L 1178 4863 
L 1178 0 
L 603 0 
L 603 4863 
z
" transform="scale(0.015625)"/>
       </defs>
       <use xlink:href="#DejaVuSans-2f"/>
       <use xlink:href="#DejaVuSans-64" transform="translate(33.691406 0)"/>
       <use xlink:href="#DejaVuSans-62" transform="translate(97.167969 0)"/>
       <use xlink:href="#DejaVuSans-2f" transform="translate(160.644531 0)"/>
       <use xlink:href="#DejaVuSans-65" transform="translate(194.335938 0)"/>
       <use xlink:href="#DejaVuSans-6e" transform="translate(255.859375 0)"/>
       <use xlink:href="#DejaVuSans-74" transform="translate(319.238281 0)"/>
       <use xlink:href="#DejaVuSans-72" transform="translate(358.447266 0)"/>
       <use xlink:href="#DejaVuSans-79" transform="translate(399.560547 0)"/>
       <use xlink:href="#DejaVuSans-2f" transform="translate(458.740234 0)"/>
       <use xlink:href="#DejaVuSans-64" transform="translate(492.431641 0)"/>
       <use xlink:href="#DejaVuSans-65" transform="translate(555.908203 0)"/>
       <use xlink:href="#DejaVuSans-6c" transform="translate(617.431641 0)"/>
       <use xlink:href="#DejaVuSans-65" transform="translate(645.214844 0)"/>
       <use xlink:href="#DejaVuSans-74" transform="translate(706.738281 0)"/>
       <use xlink:href="#DejaVuSans-65" transform="translate(745.947266 0)"/>
      </g>
     </g>
    </g>
    <g id="ytick_2">
     <g id="line2d_13">
      <g>
       <use xlink:href="#m396777bd3d" x="214.28" y="365.163594" style="fill: #262626; stroke: #262626"/>
      </g>
     </g>
     <g id="text_4">
      <!-- /db/entry/delete-index-all -->
      <g style="fill: #262626" transform="translate(66.067969 369.342734) scale(0.11 -0.11)">
       <defs>
        <path id="DejaVuSans-2d" d="M 313 2009 
L 1997 2009 
L 1997 1497 
L 313 1497 
L 313 2009 
z
" transform="scale(0.015625)"/>
        <path id="DejaVuSans-78" d="M 3513 3500 
L 2247 1797 
L 3578 0 
L 2900 0 
L 1881 1375 
L 863 0 
L 184 0 
L 1544 1831 
L 300 3500 
L 978 3500 
L 1906 2253 
L 2834 3500 
L 3513 3500 
z
" transform="scale(0.015625)"/>
       </defs>
       <use xlink:href="#DejaVuSans-2f"/>
       <use xlink:href="#DejaVuSans-64" transform="translate(33.691406 0)"/>
       <use xlink:href="#DejaVuSans-62" transform="translate(97.167969 0)"/>
       <use xlink:href="#DejaVuSans-2f" transform="translate(160.644531 0)"/>
       <use xlink:href="#DejaVuSans-65" transform="translate(194.335938 0)"/>
       <use xlink:href="#DejaVuSans-6e" transform="translate(255.859375 0)"/>
       <use xlink:href="#DejaVuSans-74" transform="translate(319.238281 0)"/>
       <use xlink:href="#DejaVuSans-72" transform="translate(358.447266 0)"/>
       <use xlink:href="#DejaVuSans-79" transform="translate(399.560547 0)"/>
       <use xlink:href="#DejaVuSans-2f" transform="translate(458.740234 0)"/>
       <use xlink:href="#DejaVuSans-64" transform="translate(492.431641 0)"/>
       <use xlink:href="#DejaVuSans-65" transform="translate(555.908203 0)"/>
       <use xlink:href="#DejaVuSans-6c" transform="translate(617.431641 0)"/>
       <use xlink:href="#DejaVuSans-65" transform="translate(645.214844 0)"/>
       <use xlink:href="#DejaVuSans-74" transform="translate(706.738281 0)"/>
       <use xlink:href="#DejaVuSans-65" transform="translate(745.947266 0)"/>
       <use xlink:href="#DejaVuSans-2d" transform="translate(807.470703 0)"/>
       <use xlink:href="#DejaVuSans-69" transform="translate(843.554688 0)"/>
       <use xlink:href="#DejaVuSans-6e" transform="translate(871.337891 0)"/>
       <use xlink:href="#DejaVuSans-64" transform="translate(934.716797 0)"/>
       <use xlink:href="#DejaVuSans-65" transform="translate(998.193359 0)"/>
       <use xlink:href="#DejaVuSans-78" transform="translate(1057.966797 0)"/>
       <use xlink:href="#DejaVuSans-2d" transform="translate(1117.146484 0)"/>
       <use xlink:href="#DejaVuSans-61" transform="translate(1153.230469 0)"/>
       <use xlink:href="#DejaVuSans-6c" transform="translate(1214.509766 0)"/>
       <use xlink:href="#DejaVuSans-6c" transform="translate(1242.292969 0)"/>
      </g>
     </g>
    </g>
    <g id="ytick_3">
     <g id="line2d_14">
      <g>
       <use xlink:href="#m396777bd3d" x="214.28" y="599.96599" style="fill: #262626; stroke: #262626"/>
      </g>
     </g>
     <g id="text_5">
      <!-- /db/entry/insert -->
      <g style="fill: #262626" transform="translate(120.251563 604.14513) scale(0.11 -0.11)">
       <use xlink:href="#DejaVuSans-2f"/>
       <use xlink:href="#DejaVuSans-64" transform="translate(33.691406 0)"/>
       <use xlink:href="#DejaVuSans-62" transform="translate(97.167969 0)"/>
       <use xlink:href="#DejaVuSans-2f" transform="translate(160.644531 0)"/>
       <use xlink:href="#DejaVuSans-65" transform="translate(194.335938 0)"/>
       <use xlink:href="#DejaVuSans-6e" transform="translate(255.859375 0)"/>
       <use xlink:href="#DejaVuSans-74" transform="translate(319.238281 0)"/>
       <use xlink:href="#DejaVuSans-72" transform="translate(358.447266 0)"/>
       <use xlink:href="#DejaVuSans-79" transform="translate(399.560547 0)"/>
       <use xlink:href="#DejaVuSans-2f" transform="translate(458.740234 0)"/>
       <use xlink:href="#DejaVuSans-69" transform="translate(492.431641 0)"/>
       <use xlink:href="#DejaVuSans-6e" transform="translate(520.214844 0)"/>
       <use xlink:href="#DejaVuSans-73" transform="translate(583.59375 0)"/>
       <use xlink:href="#DejaVuSans-65" transform="translate(635.693359 0)"/>
       <use xlink:href="#DejaVuSans-72" transform="translate(697.216797 0)"/>
       <use xlink:href="#DejaVuSans-74" transform="translate(738.330078 0)"/>
      </g>
     </g>
    </g>
    <g id="ytick_4">
     <g id="line2d_15">
      <g>
       <use xlink:href="#m396777bd3d" x="214.28" y="834.768385" style="fill: #262626; stroke: #262626"/>
      </g>
     </g>
     <g id="text_6">
      <!-- /db/entry/insert-index-all -->
      <g style="fill: #262626" transform="translate(69.364531 838.947526) scale(0.11 -0.11)">
       <use xlink:href="#DejaVuSans-2f"/>
       <use xlink:href="#DejaVuSans-64" transform="translate(33.691406 0)"/>
       <use xlink:href="#DejaVuSans-62" transform="translate(97.167969 0)"/>
       <use xlink:href="#DejaVuSans-2f" transform="translate(160.644531 0)"/>
       <use xlink:href="#DejaVuSans-65" transform="translate(194.335938 0)"/>
       <use xlink:href="#DejaVuSans-6e" transform="translate(255.859375 0)"/>
       <use xlink:href="#DejaVuSans-74" transform="translate(319.238281 0)"/>
       <use xlink:href="#DejaVuSans-72" transform="translate(358.447266 0)"/>
       <use xlink:href="#DejaVuSans-79" transform="translate(399.560547 0)"/>
       <use xlink:href="#DejaVuSans-2f" transform="translate(458.740234 0)"/>
       <use xlink:href="#DejaVuSans-69" transform="translate(492.431641 0)"/>
       <use xlink:href="#DejaVuSans-6e" transform="translate(520.214844 0)"/>
       <use xlink:href="#DejaVuSans-73" transform="translate(583.59375 0)"/>
       <use xlink:href="#DejaVuSans-65" transform="translate(635.693359 0)"/>
       <use xlink:href="#DejaVuSans-72" transform="translate(697.216797 0)"/>
       <use xlink:href="#DejaVuSans-74" transform="translate(738.330078 0)"/>
       <use xlink:href="#DejaVuSans-2d" transform="translate(777.539062 0)"/>
       <use xlink:href="#DejaVuSans-69" transform="translate(813.623047 0)"/>
       <use xlink:href="#DejaVuSans-6e" transform="translate(841.40625 0)"/>
       <use xlink:href="#DejaVuSans-64" transform="translate(904.785156 0)"/>
       <use xlink:href="#DejaVuSans-65" transform="translate(968.261719 0)"/>
       <use xlink:href="#DejaVuSans-78" transform="translate(1028.035156 0)"/>
       <use xlink:href="#DejaVuSans-2d" transform="translate(1087.214844 0)"/>
       <use xlink:href="#DejaVuSans-61" transform="translate(1123.298828 0)"/>
       <use xlink:href="#DejaVuSans-6c" transform="translate(1184.578125 0)"/>
       <use xlink:href="#DejaVuSans-6c" transform="translate(1212.361328 0)"/>
      </g>
     </g>
    </g>
    <g id="ytick_5">
     <g id="line2d_16">
      <g>
       <use xlink:href="#m396777bd3d" x="214.28" y="1069.570781" style="fill: #262626; stroke: #262626"/>
      </g>
     </g>
     <g id="text_7">
      <!-- /db/entry/update -->
      <g style="fill: #262626" transform="translate(112.852344 1073.749922) scale(0.11 -0.11)">
       <defs>
        <path id="DejaVuSans-75" d="M 544 1381 
L 544 3500 
L 1119 3500 
L 1119 1403 
Q 1119 906 1312 657 
Q 1506 409 1894 409 
Q 2359 409 2629 706 
Q 2900 1003 2900 1516 
L 2900 3500 
L 3475 3500 
L 3475 0 
L 2900 0 
L 2900 538 
Q 2691 219 2414 64 
Q 2138 -91 1772 -91 
Q 1169 -91 856 284 
Q 544 659 544 1381 
z
M 1991 3584 
L 1991 3584 
z
" transform="scale(0.015625)"/>
       </defs>
       <use xlink:href="#DejaVuSans-2f"/>
       <use xlink:href="#DejaVuSans-64" transform="translate(33.691406 0)"/>
       <use xlink:href="#DejaVuSans-62" transform="translate(97.167969 0)"/>
       <use xlink:href="#DejaVuSans-2f" transform="translate(160.644531 0)"/>
       <use xlink:href="#DejaVuSans-65" transform="translate(194.335938 0)"/>
       <use xlink:href="#DejaVuSans-6e" transform="translate(255.859375 0)"/>
       <use xlink:href="#DejaVuSans-74" transform="translate(319.238281 0)"/>
       <use xlink:href="#DejaVuSans-72" transform="translate(358.447266 0)"/>
       <use xlink:href="#DejaVuSans-79" transform="translate(399.560547 0)"/>
       <use xlink:href="#DejaVuSans-2f" transform="translate(458.740234 0)"/>
       <use xlink:href="#DejaVuSans-75" transform="translate(492.431641 0)"/>
       <use xlink:href="#DejaVuSans-70" transform="translate(555.810547 0)"/>
       <use xlink:href="#DejaVuSans-64" transform="translate(619.287109 0)"/>
       <use xlink:href="#DejaVuSans-61" transform="translate(682.763672 0)"/>
       <use xlink:href="#DejaVuSans-74" transform="translate(744.042969 0)"/>
       <use xlink:href="#DejaVuSans-65" transform="translate(783.251953 0)"/>
      </g>
     </g>
    </g>
    <g id="ytick_6">
     <g id="line2d_17">
      <g>
       <use xlink:href="#m396777bd3d" x="214.28" y="1304.373177" style="fill: #262626; stroke: #262626"/>
      </g>
     </g>
     <g id="text_8">
      <!-- /db/entry/update-index-all -->
      <g style="fill: #262626" transform="translate(61.965313 1308.552318) scale(0.11 -0.11)">
       <use xlink:href="#DejaVuSans-2f"/>
       <use xlink:href="#DejaVuSans-64" transform="translate(33.691406 0)"/>
       <use xlink:href="#DejaVuSans-62" transform="translate(97.167969 0)"/>
       <use xlink:href="#DejaVuSans-2f" transform="translate(160.644531 0)"/>
       <use xlink:href="#DejaVuSans-65" transform="translate(194.335938 0)"/>
       <use xlink:href="#DejaVuSans-6e" transform="translate(255.859375 0)"/>
       <use xlink:href="#DejaVuSans-74" transform="translate(319.238281 0)"/>
       <use xlink:href="#DejaVuSans-72" transform="translate(358.447266 0)"/>
       <use xlink:href="#DejaVuSans-79" transform="translate(399.560547 0)"/>
       <use xlink:href="#DejaVuSans-2f" transform="translate(458.740234 0)"/>
       <use xlink:href="#DejaVuSans-75" transform="translate(492.431641 0)"/>
       <use xlink:href="#DejaVuSans-70" transform="translate(555.810547 0)"/>
       <use xlink:href="#DejaVuSans-64" transform="translate(619.287109 0)"/>
       <use xlink:href="#DejaVuSans-61" transform="translate(682.763672 0)"/>
       <use xlink:href="#DejaVuSans-74" transform="translate(744.042969 0)"/>
       <use xlink:href="#DejaVuSans-65" transform="translate(783.251953 0)"/>
       <use xlink:href="#DejaVuSans-2d" transform="translate(844.775391 0)"/>
       <use xlink:href="#DejaVuSans-69" transform="translate(880.859375 0)"/>
       <use xlink:href="#DejaVuSans-6e" transform="translate(908.642578 0)"/>
       <use xlink:href="#DejaVuSans-64" transform="translate(972.021484 0)"/>
       <use xlink:href="#DejaVuSans-65" transform="translate(1035.498047 0)"/>
       <use xlink:href="#DejaVuSans-78" transform="translate(1095.271484 0)"/>
       <use xlink:href="#DejaVuSans-2d" transform="translate(1154.451172 0)"/>
       <use xlink:href="#DejaVuSans-61" transform="translate(1190.535156 0)"/>
       <use xlink:href="#DejaVuSans-6c" transform="translate(1251.814453 0)"/>
       <use xlink:href="#DejaVuSans-6c" transform="translate(1279.597656 0)"/>
      </g>
     </g>
    </g>
    <g id="ytick_7">
     <g id="line2d_18">
      <g>
       <use xlink:href="#m396777bd3d" x="214.28" y="1539.175573" style="fill: #262626; stroke: #262626"/>
      </g>
     </g>
     <g id="text_9">
      <!-- /db/iterator/get-range -->
      <g style="fill: #262626" transform="translate(85.713281 1543.354714) scale(0.11 -0.11)">
       <defs>
        <path id="DejaVuSans-67" d="M 2906 1791 
Q 2906 2416 2648 2759 
Q 2391 3103 1925 3103 
Q 1463 3103 1205 2759 
Q 947 2416 947 1791 
Q 947 1169 1205 825 
Q 1463 481 1925 481 
Q 2391 481 2648 825 
Q 2906 1169 2906 1791 
z
M 3481 434 
Q 3481 -459 3084 -895 
Q 2688 -1331 1869 -1331 
Q 1566 -1331 1297 -1286 
Q 1028 -1241 775 -1147 
L 775 -588 
Q 1028 -725 1275 -790 
Q 1522 -856 1778 -856 
Q 2344 -856 2625 -561 
Q 2906 -266 2906 331 
L 2906 616 
Q 2728 306 2450 153 
Q 2172 0 1784 0 
Q 1141 0 747 490 
Q 353 981 353 1791 
Q 353 2603 747 3093 
Q 1141 3584 1784 3584 
Q 2172 3584 2450 3431 
Q 2728 3278 2906 2969 
L 2906 3500 
L 3481 3500 
L 3481 434 
z
" transform="scale(0.015625)"/>
       </defs>
       <use xlink:href="#DejaVuSans-2f"/>
       <use xlink:href="#DejaVuSans-64" transform="translate(33.691406 0)"/>
       <use xlink:href="#DejaVuSans-62" transform="translate(97.167969 0)"/>
       <use xlink:href="#DejaVuSans-2f" transform="translate(160.644531 0)"/>
       <use xlink:href="#DejaVuSans-69" transform="translate(194.335938 0)"/>
       <use xlink:href="#DejaVuSans-74" transform="translate(222.119141 0)"/>
       <use xlink:href="#DejaVuSans-65" transform="translate(261.328125 0)"/>
       <use xlink:href="#DejaVuSans-72" transform="translate(322.851562 0)"/>
       <use xlink:href="#DejaVuSans-61" transform="translate(363.964844 0)"/>
       <use xlink:href="#DejaVuSans-74" transform="translate(425.244141 0)"/>
       <use xlink:href="#DejaVuSans-6f" transform="translate(464.453125 0)"/>
       <use xlink:href="#DejaVuSans-72" transform="translate(525.634766 0)"/>
       <use xlink:href="#DejaVuSans-2f" transform="translate(566.748047 0)"/>
       <use xlink:href="#DejaVuSans-67" transform="translate(600.439453 0)"/>
       <use xlink:href="#DejaVuSans-65" transform="translate(663.916016 0)"/>
       <use xlink:href="#DejaVuSans-74" transform="translate(725.439453 0)"/>
       <use xlink:href="#DejaVuSans-2d" transform="translate(764.648438 0)"/>
       <use xlink:href="#DejaVuSans-72" transform="translate(800.732422 0)"/>
       <use xlink:href="#DejaVuSans-61" transform="translate(841.845703 0)"/>
       <use xlink:href="#DejaVuSans-6e" transform="translate(903.125 0)"/>
       <use xlink:href="#DejaVuSans-67" transform="translate(966.503906 0)"/>
       <use xlink:href="#DejaVuSans-65" transform="translate(1029.980469 0)"/>
      </g>
     </g>
    </g>
    <g id="ytick_8">
     <g id="line2d_19">
      <g>
       <use xlink:href="#m396777bd3d" x="214.28" y="1773.977969" style="fill: #262626; stroke: #262626"/>
      </g>
     </g>
     <g id="text_10">
      <!-- /db/iterator/get-range-index-all -->
      <g style="fill: #262626" transform="translate(34.82625 1778.157109) scale(0.11 -0.11)">
       <use xlink:href="#DejaVuSans-2f"/>
       <use xlink:href="#DejaVuSans-64" transform="translate(33.691406 0)"/>
       <use xlink:href="#DejaVuSans-62" transform="translate(97.167969 0)"/>
       <use xlink:href="#DejaVuSans-2f" transform="translate(160.644531 0)"/>
       <use xlink:href="#DejaVuSans-69" transform="translate(194.335938 0)"/>
       <use xlink:href="#DejaVuSans-74" transform="translate(222.119141 0)"/>
       <use xlink:href="#DejaVuSans-65" transform="translate(261.328125 0)"/>
       <use xlink:href="#DejaVuSans-72" transform="translate(322.851562 0)"/>
       <use xlink:href="#DejaVuSans-61" transform="translate(363.964844 0)"/>
       <use xlink:href="#DejaVuSans-74" transform="translate(425.244141 0)"/>
       <use xlink:href="#DejaVuSans-6f" transform="translate(464.453125 0)"/>
       <use xlink:href="#DejaVuSans-72" transform="translate(525.634766 0)"/>
       <use xlink:href="#DejaVuSans-2f" transform="translate(566.748047 0)"/>
       <use xlink:href="#DejaVuSans-67" transform="translate(600.439453 0)"/>
       <use xlink:href="#DejaVuSans-65" transform="translate(663.916016 0)"/>
       <use xlink:href="#DejaVuSans-74" transform="translate(725.439453 0)"/>
       <use xlink:href="#DejaVuSans-2d" transform="translate(764.648438 0)"/>
       <use xlink:href="#DejaVuSans-72" transform="translate(800.732422 0)"/>
       <use xlink:href="#DejaVuSans-61" transform="translate(841.845703 0)"/>
       <use xlink:href="#DejaVuSans-6e" transform="translate(903.125 0)"/>
       <use xlink:href="#DejaVuSans-67" transform="translate(966.503906 0)"/>
       <use xlink:href="#DejaVuSans-65" transform="translate(1029.980469 0)"/>
       <use xlink:href="#DejaVuSans-2d" transform="translate(1091.503906 0)"/>
       <use xlink:href="#DejaVuSans-69" transform="translate(1127.587891 0)"/>
       <use xlink:href="#DejaVuSans-6e" transform="translate(1155.371094 0)"/>
       <use xlink:href="#DejaVuSans-64" transform="translate(1218.75 0)"/>
       <use xlink:href="#DejaVuSans-65" transform="translate(1282.226562 0)"/>
       <use xlink:href="#DejaVuSans-78" transform="translate(1342 0)"/>
       <use xlink:href="#DejaVuSans-2d" transform="translate(1401.179688 0)"/>
       <use xlink:href="#DejaVuSans-61" transform="translate(1437.263672 0)"/>
       <use xlink:href="#DejaVuSans-6c" transform="translate(1498.542969 0)"/>
       <use xlink:href="#DejaVuSans-6c" transform="translate(1526.326172 0)"/>
      </g>
     </g>
    </g>
    <g id="ytick_9">
     <g id="line2d_20">
      <g>
       <use xlink:href="#m396777bd3d" x="214.28" y="2008.780365" style="fill: #262626; stroke: #262626"/>
      </g>
     </g>
     <g id="text_11">
      <!-- /db/iterator/get-simple -->
      <g style="fill: #262626" transform="translate(81.390625 2012.959505) scale(0.11 -0.11)">
       <defs>
        <path id="DejaVuSans-6d" d="M 3328 2828 
Q 3544 3216 3844 3400 
Q 4144 3584 4550 3584 
Q 5097 3584 5394 3201 
Q 5691 2819 5691 2113 
L 5691 0 
L 5113 0 
L 5113 2094 
Q 5113 2597 4934 2840 
Q 4756 3084 4391 3084 
Q 3944 3084 3684 2787 
Q 3425 2491 3425 1978 
L 3425 0 
L 2847 0 
L 2847 2094 
Q 2847 2600 2669 2842 
Q 2491 3084 2119 3084 
Q 1678 3084 1418 2786 
Q 1159 2488 1159 1978 
L 1159 0 
L 581 0 
L 581 3500 
L 1159 3500 
L 1159 2956 
Q 1356 3278 1631 3431 
Q 1906 3584 2284 3584 
Q 2666 3584 2933 3390 
Q 3200 3197 3328 2828 
z
" transform="scale(0.015625)"/>
       </defs>
       <use xlink:href="#DejaVuSans-2f"/>
       <use xlink:href="#DejaVuSans-64" transform="translate(33.691406 0)"/>
       <use xlink:href="#DejaVuSans-62" transform="translate(97.167969 0)"/>
       <use xlink:href="#DejaVuSans-2f" transform="translate(160.644531 0)"/>
       <use xlink:href="#DejaVuSans-69" transform="translate(194.335938 0)"/>
       <use xlink:href="#DejaVuSans-74" transform="translate(222.119141 0)"/>
       <use xlink:href="#DejaVuSans-65" transform="translate(261.328125 0)"/>
       <use xlink:href="#DejaVuSans-72" transform="translate(322.851562 0)"/>
       <use xlink:href="#DejaVuSans-61" transform="translate(363.964844 0)"/>
       <use xlink:href="#DejaVuSans-74" transform="translate(425.244141 0)"/>
       <use xlink:href="#DejaVuSans-6f" transform="translate(464.453125 0)"/>
       <use xlink:href="#DejaVuSans-72" transform="translate(525.634766 0)"/>
       <use xlink:href="#DejaVuSans-2f" transform="translate(566.748047 0)"/>
       <use xlink:href="#DejaVuSans-67" transform="translate(600.439453 0)"/>
       <use xlink:href="#DejaVuSans-65" transform="translate(663.916016 0)"/>
       <use xlink:href="#DejaVuSans-74" transform="translate(725.439453 0)"/>
       <use xlink:href="#DejaVuSans-2d" transform="translate(764.648438 0)"/>
       <use xlink:href="#DejaVuSans-73" transform="translate(800.732422 0)"/>
       <use xlink:href="#DejaVuSans-69" transform="translate(852.832031 0)"/>
       <use xlink:href="#DejaVuSans-6d" transform="translate(880.615234 0)"/>
       <use xlink:href="#DejaVuSans-70" transform="translate(978.027344 0)"/>
       <use xlink:href="#DejaVuSans-6c" transform="translate(1041.503906 0)"/>
       <use xlink:href="#DejaVuSans-65" transform="translate(1069.287109 0)"/>
      </g>
     </g>
    </g>
    <g id="ytick_10">
     <g id="line2d_21">
      <g>
       <use xlink:href="#m396777bd3d" x="214.28" y="2243.58276" style="fill: #262626; stroke: #262626"/>
      </g>
     </g>
     <g id="text_12">
      <!-- /db/iterator/get-simple-index-all -->
      <g style="fill: #262626" transform="translate(30.503594 2247.761901) scale(0.11 -0.11)">
       <use xlink:href="#DejaVuSans-2f"/>
       <use xlink:href="#DejaVuSans-64" transform="translate(33.691406 0)"/>
       <use xlink:href="#DejaVuSans-62" transform="translate(97.167969 0)"/>
       <use xlink:href="#DejaVuSans-2f" transform="translate(160.644531 0)"/>
       <use xlink:href="#DejaVuSans-69" transform="translate(194.335938 0)"/>
       <use xlink:href="#DejaVuSans-74" transform="translate(222.119141 0)"/>
       <use xlink:href="#DejaVuSans-65" transform="translate(261.328125 0)"/>
       <use xlink:href="#DejaVuSans-72" transform="translate(322.851562 0)"/>
       <use xlink:href="#DejaVuSans-61" transform="translate(363.964844 0)"/>
       <use xlink:href="#DejaVuSans-74" transform="translate(425.244141 0)"/>
       <use xlink:href="#DejaVuSans-6f" transform="translate(464.453125 0)"/>
       <use xlink:href="#DejaVuSans-72" transform="translate(525.634766 0)"/>
       <use xlink:href="#DejaVuSans-2f" transform="translate(566.748047 0)"/>
       <use xlink:href="#DejaVuSans-67" transform="translate(600.439453 0)"/>
       <use xlink:href="#DejaVuSans-65" transform="translate(663.916016 0)"/>
       <use xlink:href="#DejaVuSans-74" transform="translate(725.439453 0)"/>
       <use xlink:href="#DejaVuSans-2d" transform="translate(764.648438 0)"/>
       <use xlink:href="#DejaVuSans-73" transform="translate(800.732422 0)"/>
       <use xlink:href="#DejaVuSans-69" transform="translate(852.832031 0)"/>
       <use xlink:href="#DejaVuSans-6d" transform="translate(880.615234 0)"/>
       <use xlink:href="#DejaVuSans-70" transform="translate(978.027344 0)"/>
       <use xlink:href="#DejaVuSans-6c" transform="translate(1041.503906 0)"/>
       <use xlink:href="#DejaVuSans-65" transform="translate(1069.287109 0)"/>
       <use xlink:href="#DejaVuSans-2d" transform="translate(1130.810547 0)"/>
       <use xlink:href="#DejaVuSans-69" transform="translate(1166.894531 0)"/>
       <use xlink:href="#DejaVuSans-6e" transform="translate(1194.677734 0)"/>
       <use xlink:href="#DejaVuSans-64" transform="translate(1258.056641 0)"/>
       <use xlink:href="#DejaVuSans-65" transform="translate(1321.533203 0)"/>
       <use xlink:href="#DejaVuSans-78" transform="translate(1381.306641 0)"/>
       <use xlink:href="#DejaVuSans-2d" transform="translate(1440.486328 0)"/>
       <use xlink:href="#DejaVuSans-61" transform="translate(1476.570312 0)"/>
       <use xlink:href="#DejaVuSans-6c" transform="translate(1537.849609 0)"/>
       <use xlink:href="#DejaVuSans-6c" transform="translate(1565.632812 0)"/>
      </g>
     </g>
    </g>
    <g id="ytick_11">
     <g id="line2d_22">
      <g>
       <use xlink:href="#m396777bd3d" x="214.28" y="2478.385156" style="fill: #262626; stroke: #262626"/>
      </g>
     </g>
     <g id="text_13">
      <!-- /db/schema/create -->
      <g style="fill: #262626" transform="translate(102.809687 2482.564297) scale(0.11 -0.11)">
       <defs>
        <path id="DejaVuSans-68" d="M 3513 2113 
L 3513 0 
L 2938 0 
L 2938 2094 
Q 2938 2591 2744 2837 
Q 2550 3084 2163 3084 
Q 1697 3084 1428 2787 
Q 1159 2491 1159 1978 
L 1159 0 
L 581 0 
L 581 4863 
L 1159 4863 
L 1159 2956 
Q 1366 3272 1645 3428 
Q 1925 3584 2291 3584 
Q 2894 3584 3203 3211 
Q 3513 2838 3513 2113 
z
" transform="scale(0.015625)"/>
       </defs>
       <use xlink:href="#DejaVuSans-2f"/>
       <use xlink:href="#DejaVuSans-64" transform="translate(33.691406 0)"/>
       <use xlink:href="#DejaVuSans-62" transform="translate(97.167969 0)"/>
       <use xlink:href="#DejaVuSans-2f" transform="translate(160.644531 0)"/>
       <use xlink:href="#DejaVuSans-73" transform="translate(194.335938 0)"/>
       <use xlink:href="#DejaVuSans-63" transform="translate(246.435547 0)"/>
       <use xlink:href="#DejaVuSans-68" transform="translate(301.416016 0)"/>
       <use xlink:href="#DejaVuSans-65" transform="translate(364.794922 0)"/>
       <use xlink:href="#DejaVuSans-6d" transform="translate(426.318359 0)"/>
       <use xlink:href="#DejaVuSans-61" transform="translate(523.730469 0)"/>
       <use xlink:href="#DejaVuSans-2f" transform="translate(585.009766 0)"/>
       <use xlink:href="#DejaVuSans-63" transform="translate(618.701172 0)"/>
       <use xlink:href="#DejaVuSans-72" transform="translate(673.681641 0)"/>
       <use xlink:href="#DejaVuSans-65" transform="translate(712.544922 0)"/>
       <use xlink:href="#DejaVuSans-61" transform="translate(774.068359 0)"/>
       <use xlink:href="#DejaVuSans-74" transform="translate(835.347656 0)"/>
       <use xlink:href="#DejaVuSans-65" transform="translate(874.556641 0)"/>
      </g>
     </g>
    </g>
    <g id="ytick_12">
     <g id="line2d_23">
      <g>
       <use xlink:href="#m396777bd3d" x="214.28" y="2713.187552" style="fill: #262626; stroke: #262626"/>
      </g>
     </g>
     <g id="text_14">
      <!-- /db/schema/delete -->
      <g style="fill: #262626" transform="translate(103.065781 2717.366693) scale(0.11 -0.11)">
       <use xlink:href="#DejaVuSans-2f"/>
       <use xlink:href="#DejaVuSans-64" transform="translate(33.691406 0)"/>
       <use xlink:href="#DejaVuSans-62" transform="translate(97.167969 0)"/>
       <use xlink:href="#DejaVuSans-2f" transform="translate(160.644531 0)"/>
       <use xlink:href="#DejaVuSans-73" transform="translate(194.335938 0)"/>
       <use xlink:href="#DejaVuSans-63" transform="translate(246.435547 0)"/>
       <use xlink:href="#DejaVuSans-68" transform="translate(301.416016 0)"/>
       <use xlink:href="#DejaVuSans-65" transform="translate(364.794922 0)"/>
       <use xlink:href="#DejaVuSans-6d" transform="translate(426.318359 0)"/>
       <use xlink:href="#DejaVuSans-61" transform="translate(523.730469 0)"/>
       <use xlink:href="#DejaVuSans-2f" transform="translate(585.009766 0)"/>
       <use xlink:href="#DejaVuSans-64" transform="translate(618.701172 0)"/>
       <use xlink:href="#DejaVuSans-65" transform="translate(682.177734 0)"/>
       <use xlink:href="#DejaVuSans-6c" transform="translate(743.701172 0)"/>
       <use xlink:href="#DejaVuSans-65" transform="translate(771.484375 0)"/>
       <use xlink:href="#DejaVuSans-74" transform="translate(833.007812 0)"/>
       <use xlink:href="#DejaVuSans-65" transform="translate(872.216797 0)"/>
      </g>
     </g>
    </g>
    <g id="text_15">
     <!-- name -->
     <g style="fill: #262626" transform="translate(24.007969 1438.79) rotate(-90) scale(0.12 -0.12)">
      <use xlink:href="#DejaVuSans-6e"/>
      <use xlink:href="#DejaVuSans-61" transform="translate(63.378906 0)"/>
      <use xlink:href="#DejaVuSans-6d" transform="translate(124.658203 0)"/>
      <use xlink:href="#DejaVuSans-65" transform="translate(222.070312 0)"/>
     </g>
    </g>
   </g>
   <g id="patch_3">
    <path d="M 692.651955 36.44024 
L 2059.187273 36.44024 
L 2059.187273 224.282156 
L 692.651955 224.282156 
z
" clip-path="url(#p023c0472a7)" style="fill: #5875a4; stroke: #ffffff; stroke-linejoin: miter"/>
   </g>
   <g id="patch_4">
    <path d="M 692.651955 271.242635 
L 687.437722 271.242635 
L 687.437722 459.084552 
L 692.651955 459.084552 
z
" clip-path="url(#p023c0472a7)" style="fill: #5875a4; stroke: #ffffff; stroke-linejoin: miter"/>
   </g>
   <g id="patch_5">
    <path d="M 692.651955 506.045031 
L 308.630771 506.045031 
L 308.630771 693.886948 
L 692.651955 693.886948 
z
" clip-path="url(#p023c0472a7)" style="fill: #5875a4; stroke: #ffffff; stroke-linejoin: miter"/>
   </g>
   <g id="patch_6">
    <path d="M 692.651955 740.847427 
L 302.132727 740.847427 
L 302.132727 928.689344 
L 692.651955 928.689344 
z
" clip-path="url(#p023c0472a7)" style="fill: #5875a4; stroke: #ffffff; stroke-linejoin: miter"/>
   </g>
   <g id="patch_7">
    <path d="M 692.651955 975.649823 
L 631.225815 975.649823 
L 631.225815 1163.49174 
L 692.651955 1163.49174 
z
" clip-path="url(#p023c0472a7)" style="fill: #5875a4; stroke: #ffffff; stroke-linejoin: miter"/>
   </g>
   <g id="patch_8">
    <path d="M 692.651955 1210.452219 
L 656.513079 1210.452219 
L 656.513079 1398.294135 
L 692.651955 1398.294135 
z
" clip-path="url(#p023c0472a7)" style="fill: #5875a4; stroke: #ffffff; stroke-linejoin: miter"/>
   </g>
   <g id="patch_9">
    <path d="M 692.651955 1445.254615 
L 660.281085 1445.254615 
L 660.281085 1633.096531 
L 692.651955 1633.096531 
z
" clip-path="url(#p023c0472a7)" style="fill: #5875a4; stroke: #ffffff; stroke-linejoin: miter"/>
   </g>
   <g id="patch_10">
    <path d="M 692.651955 1680.05701 
L 652.610838 1680.05701 
L 652.610838 1867.898927 
L 692.651955 1867.898927 
z
" clip-path="url(#p023c0472a7)" style="fill: #5875a4; stroke: #ffffff; stroke-linejoin: miter"/>
   </g>
   <g id="patch_11">
    <path d="M 692.651955 1914.859406 
L 712.215895 1914.859406 
L 712.215895 2102.701323 
L 692.651955 2102.701323 
z
" clip-path="url(#p023c0472a7)" style="fill: #5875a4; stroke: #ffffff; stroke-linejoin: miter"/>
   </g>
   <g id="patch_12">
    <path d="M 692.651955 2149.661802 
L 668.477766 2149.661802 
L 668.477766 2337.503719 
L 692.651955 2337.503719 
z
" clip-path="url(#p023c0472a7)" style="fill: #5875a4; stroke: #ffffff; stroke-linejoin: miter"/>
   </g>
   <g id="patch_13">
    <path d="M 692.651955 2384.464198 
L 706.168003 2384.464198 
L 706.168003 2572.306115 
L 692.651955 2572.306115 
z
" clip-path="url(#p023c0472a7)" style="fill: #5875a4; stroke: #ffffff; stroke-linejoin: miter"/>
   </g>
   <g id="patch_14">
    <path d="M 692.651955 2619.266594 
L 700.643856 2619.266594 
L 700.643856 2807.10851 
L 692.651955 2807.10851 
z
" clip-path="url(#p023c0472a7)" style="fill: #5875a4; stroke: #ffffff; stroke-linejoin: miter"/>
   </g>
   <g id="line2d_24">
    <path clip-path="url(#p023c0472a7)" style="fill: none; stroke: #424242; stroke-width: 2.25; stroke-linecap: round"/>
   </g>
   <g id="line2d_25">
    <path clip-path="url(#p023c0472a7)" style="fill: none; stroke: #424242; stroke-width: 2.25; stroke-linecap: round"/>
   </g>
   <g id="line2d_26">
    <path clip-path="url(#p023c0472a7)" style="fill: none; stroke: #424242; stroke-width: 2.25; stroke-linecap: round"/>
   </g>
   <g id="line2d_27">
    <path clip-path="url(#p023c0472a7)" style="fill: none; stroke: #424242; stroke-width: 2.25; stroke-linecap: round"/>
   </g>
   <g id="line2d_28">
    <path clip-path="url(#p023c0472a7)" style="fill: none; stroke: #424242; stroke-width: 2.25; stroke-linecap: round"/>
   </g>
   <g id="line2d_29">
    <path clip-path="url(#p023c0472a7)" style="fill: none; stroke: #424242; stroke-width: 2.25; stroke-linecap: round"/>
   </g>
   <g id="line2d_30">
    <path clip-path="url(#p023c0472a7)" style="fill: none; stroke: #424242; stroke-width: 2.25; stroke-linecap: round"/>
   </g>
   <g id="line2d_31">
    <path clip-path="url(#p023c0472a7)" style="fill: none; stroke: #424242; stroke-width: 2.25; stroke-linecap: round"/>
   </g>
   <g id="line2d_32">
    <path clip-path="url(#p023c0472a7)" style="fill: none; stroke: #424242; stroke-width: 2.25; stroke-linecap: round"/>
   </g>
   <g id="line2d_33">
    <path clip-path="url(#p023c0472a7)" style="fill: none; stroke: #424242; stroke-width: 2.25; stroke-linecap: round"/>
   </g>
   <g id="line2d_34">
    <path clip-path="url(#p023c0472a7)" style="fill: none; stroke: #424242; stroke-width: 2.25; stroke-linecap: round"/>
   </g>
   <g id="line2d_35">
    <path clip-path="url(#p023c0472a7)" style="fill: none; stroke: #424242; stroke-width: 2.25; stroke-linecap: round"/>
   </g>
   <g id="patch_15">
    <path d="M 214.28 2830.58875 
L 214.28 12.96 
" style="fill: none; stroke: #ffffff; stroke-width: 1.25; stroke-linejoin: miter; stroke-linecap: square"/>
   </g>
   <g id="patch_16">
    <path d="M 2147.04 2830.58875 
L 2147.04 12.96 
" style="fill: none; stroke: #ffffff; stroke-width: 1.25; stroke-linejoin: miter; stroke-linecap: square"/>
   </g>
   <g id="patch_17">
    <path d="M 214.28 2830.58875 
L 2147.04 2830.58875 
" style="fill: none; stroke: #ffffff; stroke-width: 1.25; stroke-linejoin: miter; stroke-linecap: square"/>
   </g>
   <g id="patch_18">
    <path d="M 214.28 12.96 
L 2147.04 12.96 
" style="fill: none; stroke: #ffffff; stroke-width: 1.25; stroke-linejoin: miter; stroke-linecap: square"/>
   </g>
  </g>
 </g>
 <defs>
  <clipPath id="p023c0472a7">
   <rect x="214.28" y="12.96" width="1932.76" height="2817.62875"/>
  </clipPath>
 </defs>
</svg>
