<?xml version="1.0" encoding="utf-8" standalone="no"?>
<!DOCTYPE svg PUBLIC "-//W3C//DTD SVG 1.1//EN"
  "http://www.w3.org/Graphics/SVG/1.1/DTD/svg11.dtd">
<svg xmlns:xlink="http://www.w3.org/1999/xlink" width="2160pt" height="720pt" viewBox="0 0 2160 720" xmlns="http://www.w3.org/2000/svg" version="1.1">
 <metadata>
  <rdf:RDF xmlns:dc="http://purl.org/dc/elements/1.1/" xmlns:cc="http://creativecommons.org/ns#" xmlns:rdf="http://www.w3.org/1999/02/22-rdf-syntax-ns#">
   <cc:Work>
    <dc:type rdf:resource="http://purl.org/dc/dcmitype/StillImage"/>
    <dc:date>2025-02-13T22:43:04.361807</dc:date>
    <dc:format>image/svg+xml</dc:format>
    <dc:creator>
     <cc:Agent>
      <dc:title>Matplotlib v3.10.0, https://matplotlib.org/</dc:title>
     </cc:Agent>
    </dc:creator>
   </cc:Work>
  </rdf:RDF>
 </metadata>
 <defs>
  <style type="text/css">*{stroke-linejoin: round; stroke-linecap: butt}</style>
 </defs>
 <g id="figure_1">
  <g id="patch_1">
   <path d="M 0 720 
L 2160 720 
L 2160 0 
L 0 0 
z
" style="fill: #ffffff"/>
  </g>
  <g id="axes_1">
   <g id="patch_2">
    <path d="M 301.68 653.22 
L 2140.56 653.22 
L 2140.56 39.12 
L 301.68 39.12 
z
" style="fill: #ffffff"/>
   </g>
   <g id="matplotlib.axis_1">
    <g id="xtick_1">
     <g id="line2d_1">
      <path d="M 384.220942 653.22 
L 384.220942 39.12 
" clip-path="url(#p2df52b1946)" style="fill: none; stroke: #cccccc; stroke-linecap: round"/>
     </g>
     <g id="line2d_2">
      <defs>
       <path id="m885902cad1" d="M 0 0 
L 0 6 
" style="stroke: #262626; stroke-width: 1.25"/>
      </defs>
      <g>
       <use xlink:href="#m885902cad1" x="384.220942" y="653.22" style="fill: #262626; stroke: #262626; stroke-width: 1.25"/>
      </g>
     </g>
     <g id="text_1">
      <!-- 0.0 -->
      <g style="fill: #262626" transform="translate(371.100864 675.257422) scale(0.165 -0.165)">
       <defs>
        <path id="DejaVuSans-30" d="M 2034 4250 
Q 1547 4250 1301 3770 
Q 1056 3291 1056 2328 
Q 1056 1369 1301 889 
Q 1547 409 2034 409 
Q 2525 409 2770 889 
Q 3016 1369 3016 2328 
Q 3016 3291 2770 3770 
Q 2525 4250 2034 4250 
z
M 2034 4750 
Q 2819 4750 3233 4129 
Q 3647 3509 3647 2328 
Q 3647 1150 3233 529 
Q 2819 -91 2034 -91 
Q 1250 -91 836 529 
Q 422 1150 422 2328 
Q 422 3509 836 4129 
Q 1250 4750 2034 4750 
z
" transform="scale(0.015625)"/>
        <path id="DejaVuSans-2e" d="M 684 794 
L 1344 794 
L 1344 0 
L 684 0 
L 684 794 
z
" transform="scale(0.015625)"/>
       </defs>
       <use xlink:href="#DejaVuSans-30"/>
       <use xlink:href="#DejaVuSans-2e" transform="translate(63.623047 0)"/>
       <use xlink:href="#DejaVuSans-30" transform="translate(95.410156 0)"/>
      </g>
     </g>
    </g>
    <g id="xtick_2">
     <g id="line2d_3">
      <path d="M 731.156071 653.22 
L 731.156071 39.12 
" clip-path="url(#p2df52b1946)" style="fill: none; stroke: #cccccc; stroke-linecap: round"/>
     </g>
     <g id="line2d_4">
      <g>
       <use xlink:href="#m885902cad1" x="731.156071" y="653.22" style="fill: #262626; stroke: #262626; stroke-width: 1.25"/>
      </g>
     </g>
     <g id="text_2">
      <!-- 0.5 -->
      <g style="fill: #262626" transform="translate(718.035992 675.257422) scale(0.165 -0.165)">
       <defs>
        <path id="DejaVuSans-35" d="M 691 4666 
L 3169 4666 
L 3169 4134 
L 1269 4134 
L 1269 2991 
Q 1406 3038 1543 3061 
Q 1681 3084 1819 3084 
Q 2600 3084 3056 2656 
Q 3513 2228 3513 1497 
Q 3513 744 3044 326 
Q 2575 -91 1722 -91 
Q 1428 -91 1123 -41 
Q 819 9 494 109 
L 494 744 
Q 775 591 1075 516 
Q 1375 441 1709 441 
Q 2250 441 2565 725 
Q 2881 1009 2881 1497 
Q 2881 1984 2565 2268 
Q 2250 2553 1709 2553 
Q 1456 2553 1204 2497 
Q 953 2441 691 2322 
L 691 4666 
z
" transform="scale(0.015625)"/>
       </defs>
       <use xlink:href="#DejaVuSans-30"/>
       <use xlink:href="#DejaVuSans-2e" transform="translate(63.623047 0)"/>
       <use xlink:href="#DejaVuSans-35" transform="translate(95.410156 0)"/>
      </g>
     </g>
    </g>
    <g id="xtick_3">
     <g id="line2d_5">
      <path d="M 1078.091199 653.22 
L 1078.091199 39.12 
" clip-path="url(#p2df52b1946)" style="fill: none; stroke: #cccccc; stroke-linecap: round"/>
     </g>
     <g id="line2d_6">
      <g>
       <use xlink:href="#m885902cad1" x="1078.091199" y="653.22" style="fill: #262626; stroke: #262626; stroke-width: 1.25"/>
      </g>
     </g>
     <g id="text_3">
      <!-- 1.0 -->
      <g style="fill: #262626" transform="translate(1064.971121 675.257422) scale(0.165 -0.165)">
       <defs>
        <path id="DejaVuSans-31" d="M 794 531 
L 1825 531 
L 1825 4091 
L 703 3866 
L 703 4441 
L 1819 4666 
L 2450 4666 
L 2450 531 
L 3481 531 
L 3481 0 
L 794 0 
L 794 531 
z
" transform="scale(0.015625)"/>
       </defs>
       <use xlink:href="#DejaVuSans-31"/>
       <use xlink:href="#DejaVuSans-2e" transform="translate(63.623047 0)"/>
       <use xlink:href="#DejaVuSans-30" transform="translate(95.410156 0)"/>
      </g>
     </g>
    </g>
    <g id="xtick_4">
     <g id="line2d_7">
      <path d="M 1425.026328 653.22 
L 1425.026328 39.12 
" clip-path="url(#p2df52b1946)" style="fill: none; stroke: #cccccc; stroke-linecap: round"/>
     </g>
     <g id="line2d_8">
      <g>
       <use xlink:href="#m885902cad1" x="1425.026328" y="653.22" style="fill: #262626; stroke: #262626; stroke-width: 1.25"/>
      </g>
     </g>
     <g id="text_4">
      <!-- 1.5 -->
      <g style="fill: #262626" transform="translate(1411.90625 675.257422) scale(0.165 -0.165)">
       <use xlink:href="#DejaVuSans-31"/>
       <use xlink:href="#DejaVuSans-2e" transform="translate(63.623047 0)"/>
       <use xlink:href="#DejaVuSans-35" transform="translate(95.410156 0)"/>
      </g>
     </g>
    </g>
    <g id="xtick_5">
     <g id="line2d_9">
      <path d="M 1771.961457 653.22 
L 1771.961457 39.12 
" clip-path="url(#p2df52b1946)" style="fill: none; stroke: #cccccc; stroke-linecap: round"/>
     </g>
     <g id="line2d_10">
      <g>
       <use xlink:href="#m885902cad1" x="1771.961457" y="653.22" style="fill: #262626; stroke: #262626; stroke-width: 1.25"/>
      </g>
     </g>
     <g id="text_5">
      <!-- 2.0 -->
      <g style="fill: #262626" transform="translate(1758.841379 675.257422) scale(0.165 -0.165)">
       <defs>
        <path id="DejaVuSans-32" d="M 1228 531 
L 3431 531 
L 3431 0 
L 469 0 
L 469 531 
Q 828 903 1448 1529 
Q 2069 2156 2228 2338 
Q 2531 2678 2651 2914 
Q 2772 3150 2772 3378 
Q 2772 3750 2511 3984 
Q 2250 4219 1831 4219 
Q 1534 4219 1204 4116 
Q 875 4013 500 3803 
L 500 4441 
Q 881 4594 1212 4672 
Q 1544 4750 1819 4750 
Q 2544 4750 2975 4387 
Q 3406 4025 3406 3419 
Q 3406 3131 3298 2873 
Q 3191 2616 2906 2266 
Q 2828 2175 2409 1742 
Q 1991 1309 1228 531 
z
" transform="scale(0.015625)"/>
       </defs>
       <use xlink:href="#DejaVuSans-32"/>
       <use xlink:href="#DejaVuSans-2e" transform="translate(63.623047 0)"/>
       <use xlink:href="#DejaVuSans-30" transform="translate(95.410156 0)"/>
      </g>
     </g>
    </g>
    <g id="xtick_6">
     <g id="line2d_11">
      <path d="M 2118.896585 653.22 
L 2118.896585 39.12 
" clip-path="url(#p2df52b1946)" style="fill: none; stroke: #cccccc; stroke-linecap: round"/>
     </g>
     <g id="line2d_12">
      <g>
       <use xlink:href="#m885902cad1" x="2118.896585" y="653.22" style="fill: #262626; stroke: #262626; stroke-width: 1.25"/>
      </g>
     </g>
     <g id="text_6">
      <!-- 2.5 -->
      <g style="fill: #262626" transform="translate(2105.776507 675.257422) scale(0.165 -0.165)">
       <use xlink:href="#DejaVuSans-32"/>
       <use xlink:href="#DejaVuSans-2e" transform="translate(63.623047 0)"/>
       <use xlink:href="#DejaVuSans-35" transform="translate(95.410156 0)"/>
      </g>
     </g>
    </g>
    <g id="text_7">
     <!-- operations -->
     <g style="fill: #262626" transform="translate(1173.218906 696.366094) scale(0.18 -0.18)">
      <defs>
       <path id="DejaVuSans-6f" d="M 1959 3097 
Q 1497 3097 1228 2736 
Q 959 2375 959 1747 
Q 959 1119 1226 758 
Q 1494 397 1959 397 
Q 2419 397 2687 759 
Q 2956 1122 2956 1747 
Q 2956 2369 2687 2733 
Q 2419 3097 1959 3097 
z
M 1959 3584 
Q 2709 3584 3137 3096 
Q 3566 2609 3566 1747 
Q 3566 888 3137 398 
Q 2709 -91 1959 -91 
Q 1206 -91 779 398 
Q 353 888 353 1747 
Q 353 2609 779 3096 
Q 1206 3584 1959 3584 
z
" transform="scale(0.015625)"/>
       <path id="DejaVuSans-70" d="M 1159 525 
L 1159 -1331 
L 581 -1331 
L 581 3500 
L 1159 3500 
L 1159 2969 
Q 1341 3281 1617 3432 
Q 1894 3584 2278 3584 
Q 2916 3584 3314 3078 
Q 3713 2572 3713 1747 
Q 3713 922 3314 415 
Q 2916 -91 2278 -91 
Q 1894 -91 1617 61 
Q 1341 213 1159 525 
z
M 3116 1747 
Q 3116 2381 2855 2742 
Q 2594 3103 2138 3103 
Q 1681 3103 1420 2742 
Q 1159 2381 1159 1747 
Q 1159 1113 1420 752 
Q 1681 391 2138 391 
Q 2594 391 2855 752 
Q 3116 1113 3116 1747 
z
" transform="scale(0.015625)"/>
       <path id="DejaVuSans-65" d="M 3597 1894 
L 3597 1613 
L 953 1613 
Q 991 1019 1311 708 
Q 1631 397 2203 397 
Q 2534 397 2845 478 
Q 3156 559 3463 722 
L 3463 178 
Q 3153 47 2828 -22 
Q 2503 -91 2169 -91 
Q 1331 -91 842 396 
Q 353 884 353 1716 
Q 353 2575 817 3079 
Q 1281 3584 2069 3584 
Q 2775 3584 3186 3129 
Q 3597 2675 3597 1894 
z
M 3022 2063 
Q 3016 2534 2758 2815 
Q 2500 3097 2075 3097 
Q 1594 3097 1305 2825 
Q 1016 2553 972 2059 
L 3022 2063 
z
" transform="scale(0.015625)"/>
       <path id="DejaVuSans-72" d="M 2631 2963 
Q 2534 3019 2420 3045 
Q 2306 3072 2169 3072 
Q 1681 3072 1420 2755 
Q 1159 2438 1159 1844 
L 1159 0 
L 581 0 
L 581 3500 
L 1159 3500 
L 1159 2956 
Q 1341 3275 1631 3429 
Q 1922 3584 2338 3584 
Q 2397 3584 2469 3576 
Q 2541 3569 2628 3553 
L 2631 2963 
z
" transform="scale(0.015625)"/>
       <path id="DejaVuSans-61" d="M 2194 1759 
Q 1497 1759 1228 1600 
Q 959 1441 959 1056 
Q 959 750 1161 570 
Q 1363 391 1709 391 
Q 2188 391 2477 730 
Q 2766 1069 2766 1631 
L 2766 1759 
L 2194 1759 
z
M 3341 1997 
L 3341 0 
L 2766 0 
L 2766 531 
Q 2569 213 2275 61 
Q 1981 -91 1556 -91 
Q 1019 -91 701 211 
Q 384 513 384 1019 
Q 384 1609 779 1909 
Q 1175 2209 1959 2209 
L 2766 2209 
L 2766 2266 
Q 2766 2663 2505 2880 
Q 2244 3097 1772 3097 
Q 1472 3097 1187 3025 
Q 903 2953 641 2809 
L 641 3341 
Q 956 3463 1253 3523 
Q 1550 3584 1831 3584 
Q 2591 3584 2966 3190 
Q 3341 2797 3341 1997 
z
" transform="scale(0.015625)"/>
       <path id="DejaVuSans-74" d="M 1172 4494 
L 1172 3500 
L 2356 3500 
L 2356 3053 
L 1172 3053 
L 1172 1153 
Q 1172 725 1289 603 
Q 1406 481 1766 481 
L 2356 481 
L 2356 0 
L 1766 0 
Q 1100 0 847 248 
Q 594 497 594 1153 
L 594 3053 
L 172 3053 
L 172 3500 
L 594 3500 
L 594 4494 
L 1172 4494 
z
" transform="scale(0.015625)"/>
       <path id="DejaVuSans-69" d="M 603 3500 
L 1178 3500 
L 1178 0 
L 603 0 
L 603 3500 
z
M 603 4863 
L 1178 4863 
L 1178 4134 
L 603 4134 
L 603 4863 
z
" transform="scale(0.015625)"/>
       <path id="DejaVuSans-6e" d="M 3513 2113 
L 3513 0 
L 2938 0 
L 2938 2094 
Q 2938 2591 2744 2837 
Q 2550 3084 2163 3084 
Q 1697 3084 1428 2787 
Q 1159 2491 1159 1978 
L 1159 0 
L 581 0 
L 581 3500 
L 1159 3500 
L 1159 2956 
Q 1366 3272 1645 3428 
Q 1925 3584 2291 3584 
Q 2894 3584 3203 3211 
Q 3513 2838 3513 2113 
z
" transform="scale(0.015625)"/>
       <path id="DejaVuSans-73" d="M 2834 3397 
L 2834 2853 
Q 2591 2978 2328 3040 
Q 2066 3103 1784 3103 
Q 1356 3103 1142 2972 
Q 928 2841 928 2578 
Q 928 2378 1081 2264 
Q 1234 2150 1697 2047 
L 1894 2003 
Q 2506 1872 2764 1633 
Q 3022 1394 3022 966 
Q 3022 478 2636 193 
Q 2250 -91 1575 -91 
Q 1294 -91 989 -36 
Q 684 19 347 128 
L 347 722 
Q 666 556 975 473 
Q 1284 391 1588 391 
Q 1994 391 2212 530 
Q 2431 669 2431 922 
Q 2431 1156 2273 1281 
Q 2116 1406 1581 1522 
L 1381 1569 
Q 847 1681 609 1914 
Q 372 2147 372 2553 
Q 372 3047 722 3315 
Q 1072 3584 1716 3584 
Q 2034 3584 2315 3537 
Q 2597 3491 2834 3397 
z
" transform="scale(0.015625)"/>
      </defs>
      <use xlink:href="#DejaVuSans-6f"/>
      <use xlink:href="#DejaVuSans-70" transform="translate(61.181641 0)"/>
      <use xlink:href="#DejaVuSans-65" transform="translate(124.658203 0)"/>
      <use xlink:href="#DejaVuSans-72" transform="translate(186.181641 0)"/>
      <use xlink:href="#DejaVuSans-61" transform="translate(227.294922 0)"/>
      <use xlink:href="#DejaVuSans-74" transform="translate(288.574219 0)"/>
      <use xlink:href="#DejaVuSans-69" transform="translate(327.783203 0)"/>
      <use xlink:href="#DejaVuSans-6f" transform="translate(355.566406 0)"/>
      <use xlink:href="#DejaVuSans-6e" transform="translate(416.748047 0)"/>
      <use xlink:href="#DejaVuSans-73" transform="translate(480.126953 0)"/>
     </g>
    </g>
    <g id="text_8">
     <!-- 1e7 -->
     <g style="fill: #262626" transform="translate(2109.411094 694.226328) scale(0.165 -0.165)">
      <defs>
       <path id="DejaVuSans-37" d="M 525 4666 
L 3525 4666 
L 3525 4397 
L 1831 0 
L 1172 0 
L 2766 4134 
L 525 4134 
L 525 4666 
z
" transform="scale(0.015625)"/>
      </defs>
      <use xlink:href="#DejaVuSans-31"/>
      <use xlink:href="#DejaVuSans-65" transform="translate(63.623047 0)"/>
      <use xlink:href="#DejaVuSans-37" transform="translate(125.146484 0)"/>
     </g>
    </g>
   </g>
   <g id="matplotlib.axis_2">
    <g id="ytick_1">
     <g id="line2d_13">
      <defs>
       <path id="mf7576824cd" d="M 0 0 
L -6 0 
" style="stroke: #262626; stroke-width: 1.25"/>
      </defs>
      <g>
       <use xlink:href="#mf7576824cd" x="301.68" y="115.8825" style="fill: #262626; stroke: #262626; stroke-width: 1.25"/>
      </g>
     </g>
     <g id="text_9">
      <!-- /message/new -->
      <g style="fill: #262626" transform="translate(172.805078 122.151211) scale(0.165 -0.165)">
       <defs>
        <path id="DejaVuSans-2f" d="M 1625 4666 
L 2156 4666 
L 531 -594 
L 0 -594 
L 1625 4666 
z
" transform="scale(0.015625)"/>
        <path id="DejaVuSans-6d" d="M 3328 2828 
Q 3544 3216 3844 3400 
Q 4144 3584 4550 3584 
Q 5097 3584 5394 3201 
Q 5691 2819 5691 2113 
L 5691 0 
L 5113 0 
L 5113 2094 
Q 5113 2597 4934 2840 
Q 4756 3084 4391 3084 
Q 3944 3084 3684 2787 
Q 3425 2491 3425 1978 
L 3425 0 
L 2847 0 
L 2847 2094 
Q 2847 2600 2669 2842 
Q 2491 3084 2119 3084 
Q 1678 3084 1418 2786 
Q 1159 2488 1159 1978 
L 1159 0 
L 581 0 
L 581 3500 
L 1159 3500 
L 1159 2956 
Q 1356 3278 1631 3431 
Q 1906 3584 2284 3584 
Q 2666 3584 2933 3390 
Q 3200 3197 3328 2828 
z
" transform="scale(0.015625)"/>
        <path id="DejaVuSans-67" d="M 2906 1791 
Q 2906 2416 2648 2759 
Q 2391 3103 1925 3103 
Q 1463 3103 1205 2759 
Q 947 2416 947 1791 
Q 947 1169 1205 825 
Q 1463 481 1925 481 
Q 2391 481 2648 825 
Q 2906 1169 2906 1791 
z
M 3481 434 
Q 3481 -459 3084 -895 
Q 2688 -1331 1869 -1331 
Q 1566 -1331 1297 -1286 
Q 1028 -1241 775 -1147 
L 775 -588 
Q 1028 -725 1275 -790 
Q 1522 -856 1778 -856 
Q 2344 -856 2625 -561 
Q 2906 -266 2906 331 
L 2906 616 
Q 2728 306 2450 153 
Q 2172 0 1784 0 
Q 1141 0 747 490 
Q 353 981 353 1791 
Q 353 2603 747 3093 
Q 1141 3584 1784 3584 
Q 2172 3584 2450 3431 
Q 2728 3278 2906 2969 
L 2906 3500 
L 3481 3500 
L 3481 434 
z
" transform="scale(0.015625)"/>
        <path id="DejaVuSans-77" d="M 269 3500 
L 844 3500 
L 1563 769 
L 2278 3500 
L 2956 3500 
L 3675 769 
L 4391 3500 
L 4966 3500 
L 4050 0 
L 3372 0 
L 2619 2869 
L 1863 0 
L 1184 0 
L 269 3500 
z
" transform="scale(0.015625)"/>
       </defs>
       <use xlink:href="#DejaVuSans-2f"/>
       <use xlink:href="#DejaVuSans-6d" transform="translate(33.691406 0)"/>
       <use xlink:href="#DejaVuSans-65" transform="translate(131.103516 0)"/>
       <use xlink:href="#DejaVuSans-73" transform="translate(192.626953 0)"/>
       <use xlink:href="#DejaVuSans-73" transform="translate(244.726562 0)"/>
       <use xlink:href="#DejaVuSans-61" transform="translate(296.826172 0)"/>
       <use xlink:href="#DejaVuSans-67" transform="translate(358.105469 0)"/>
       <use xlink:href="#DejaVuSans-65" transform="translate(421.582031 0)"/>
       <use xlink:href="#DejaVuSans-2f" transform="translate(483.105469 0)"/>
       <use xlink:href="#DejaVuSans-6e" transform="translate(516.796875 0)"/>
       <use xlink:href="#DejaVuSans-65" transform="translate(580.175781 0)"/>
       <use xlink:href="#DejaVuSans-77" transform="translate(641.699219 0)"/>
      </g>
     </g>
    </g>
    <g id="ytick_2">
     <g id="line2d_14">
      <g>
       <use xlink:href="#mf7576824cd" x="301.68" y="269.4075" style="fill: #262626; stroke: #262626; stroke-width: 1.25"/>
      </g>
     </g>
     <g id="text_10">
      <!-- /message/new-append -->
      <g style="fill: #262626" transform="translate(104.706484 275.676211) scale(0.165 -0.165)">
       <defs>
        <path id="DejaVuSans-2d" d="M 313 2009 
L 1997 2009 
L 1997 1497 
L 313 1497 
L 313 2009 
z
" transform="scale(0.015625)"/>
        <path id="DejaVuSans-64" d="M 2906 2969 
L 2906 4863 
L 3481 4863 
L 3481 0 
L 2906 0 
L 2906 525 
Q 2725 213 2448 61 
Q 2172 -91 1784 -91 
Q 1150 -91 751 415 
Q 353 922 353 1747 
Q 353 2572 751 3078 
Q 1150 3584 1784 3584 
Q 2172 3584 2448 3432 
Q 2725 3281 2906 2969 
z
M 947 1747 
Q 947 1113 1208 752 
Q 1469 391 1925 391 
Q 2381 391 2643 752 
Q 2906 1113 2906 1747 
Q 2906 2381 2643 2742 
Q 2381 3103 1925 3103 
Q 1469 3103 1208 2742 
Q 947 2381 947 1747 
z
" transform="scale(0.015625)"/>
       </defs>
       <use xlink:href="#DejaVuSans-2f"/>
       <use xlink:href="#DejaVuSans-6d" transform="translate(33.691406 0)"/>
       <use xlink:href="#DejaVuSans-65" transform="translate(131.103516 0)"/>
       <use xlink:href="#DejaVuSans-73" transform="translate(192.626953 0)"/>
       <use xlink:href="#DejaVuSans-73" transform="translate(244.726562 0)"/>
       <use xlink:href="#DejaVuSans-61" transform="translate(296.826172 0)"/>
       <use xlink:href="#DejaVuSans-67" transform="translate(358.105469 0)"/>
       <use xlink:href="#DejaVuSans-65" transform="translate(421.582031 0)"/>
       <use xlink:href="#DejaVuSans-2f" transform="translate(483.105469 0)"/>
       <use xlink:href="#DejaVuSans-6e" transform="translate(516.796875 0)"/>
       <use xlink:href="#DejaVuSans-65" transform="translate(580.175781 0)"/>
       <use xlink:href="#DejaVuSans-77" transform="translate(641.699219 0)"/>
       <use xlink:href="#DejaVuSans-2d" transform="translate(723.486328 0)"/>
       <use xlink:href="#DejaVuSans-61" transform="translate(759.570312 0)"/>
       <use xlink:href="#DejaVuSans-70" transform="translate(820.849609 0)"/>
       <use xlink:href="#DejaVuSans-70" transform="translate(884.326172 0)"/>
       <use xlink:href="#DejaVuSans-65" transform="translate(947.802734 0)"/>
       <use xlink:href="#DejaVuSans-6e" transform="translate(1009.326172 0)"/>
       <use xlink:href="#DejaVuSans-64" transform="translate(1072.705078 0)"/>
      </g>
     </g>
    </g>
    <g id="ytick_3">
     <g id="line2d_15">
      <g>
       <use xlink:href="#mf7576824cd" x="301.68" y="422.9325" style="fill: #262626; stroke: #262626; stroke-width: 1.25"/>
      </g>
     </g>
     <g id="text_11">
      <!-- /message/add-operation-small -->
      <g style="fill: #262626" transform="translate(40.462188 429.201211) scale(0.165 -0.165)">
       <defs>
        <path id="DejaVuSans-6c" d="M 603 4863 
L 1178 4863 
L 1178 0 
L 603 0 
L 603 4863 
z
" transform="scale(0.015625)"/>
       </defs>
       <use xlink:href="#DejaVuSans-2f"/>
       <use xlink:href="#DejaVuSans-6d" transform="translate(33.691406 0)"/>
       <use xlink:href="#DejaVuSans-65" transform="translate(131.103516 0)"/>
       <use xlink:href="#DejaVuSans-73" transform="translate(192.626953 0)"/>
       <use xlink:href="#DejaVuSans-73" transform="translate(244.726562 0)"/>
       <use xlink:href="#DejaVuSans-61" transform="translate(296.826172 0)"/>
       <use xlink:href="#DejaVuSans-67" transform="translate(358.105469 0)"/>
       <use xlink:href="#DejaVuSans-65" transform="translate(421.582031 0)"/>
       <use xlink:href="#DejaVuSans-2f" transform="translate(483.105469 0)"/>
       <use xlink:href="#DejaVuSans-61" transform="translate(516.796875 0)"/>
       <use xlink:href="#DejaVuSans-64" transform="translate(578.076172 0)"/>
       <use xlink:href="#DejaVuSans-64" transform="translate(641.552734 0)"/>
       <use xlink:href="#DejaVuSans-2d" transform="translate(705.029297 0)"/>
       <use xlink:href="#DejaVuSans-6f" transform="translate(742.988281 0)"/>
       <use xlink:href="#DejaVuSans-70" transform="translate(804.169922 0)"/>
       <use xlink:href="#DejaVuSans-65" transform="translate(867.646484 0)"/>
       <use xlink:href="#DejaVuSans-72" transform="translate(929.169922 0)"/>
       <use xlink:href="#DejaVuSans-61" transform="translate(970.283203 0)"/>
       <use xlink:href="#DejaVuSans-74" transform="translate(1031.5625 0)"/>
       <use xlink:href="#DejaVuSans-69" transform="translate(1070.771484 0)"/>
       <use xlink:href="#DejaVuSans-6f" transform="translate(1098.554688 0)"/>
       <use xlink:href="#DejaVuSans-6e" transform="translate(1159.736328 0)"/>
       <use xlink:href="#DejaVuSans-2d" transform="translate(1223.115234 0)"/>
       <use xlink:href="#DejaVuSans-73" transform="translate(1259.199219 0)"/>
       <use xlink:href="#DejaVuSans-6d" transform="translate(1311.298828 0)"/>
       <use xlink:href="#DejaVuSans-61" transform="translate(1408.710938 0)"/>
       <use xlink:href="#DejaVuSans-6c" transform="translate(1469.990234 0)"/>
       <use xlink:href="#DejaVuSans-6c" transform="translate(1497.773438 0)"/>
      </g>
     </g>
    </g>
    <g id="ytick_4">
     <g id="line2d_16">
      <g>
       <use xlink:href="#mf7576824cd" x="301.68" y="576.4575" style="fill: #262626; stroke: #262626; stroke-width: 1.25"/>
      </g>
     </g>
     <g id="text_12">
      <!-- /message/add-operation-large -->
      <g style="fill: #262626" transform="translate(42.591719 582.726211) scale(0.165 -0.165)">
       <use xlink:href="#DejaVuSans-2f"/>
       <use xlink:href="#DejaVuSans-6d" transform="translate(33.691406 0)"/>
       <use xlink:href="#DejaVuSans-65" transform="translate(131.103516 0)"/>
       <use xlink:href="#DejaVuSans-73" transform="translate(192.626953 0)"/>
       <use xlink:href="#DejaVuSans-73" transform="translate(244.726562 0)"/>
       <use xlink:href="#DejaVuSans-61" transform="translate(296.826172 0)"/>
       <use xlink:href="#DejaVuSans-67" transform="translate(358.105469 0)"/>
       <use xlink:href="#DejaVuSans-65" transform="translate(421.582031 0)"/>
       <use xlink:href="#DejaVuSans-2f" transform="translate(483.105469 0)"/>
       <use xlink:href="#DejaVuSans-61" transform="translate(516.796875 0)"/>
       <use xlink:href="#DejaVuSans-64" transform="translate(578.076172 0)"/>
       <use xlink:href="#DejaVuSans-64" transform="translate(641.552734 0)"/>
       <use xlink:href="#DejaVuSans-2d" transform="translate(705.029297 0)"/>
       <use xlink:href="#DejaVuSans-6f" transform="translate(742.988281 0)"/>
       <use xlink:href="#DejaVuSans-70" transform="translate(804.169922 0)"/>
       <use xlink:href="#DejaVuSans-65" transform="translate(867.646484 0)"/>
       <use xlink:href="#DejaVuSans-72" transform="translate(929.169922 0)"/>
       <use xlink:href="#DejaVuSans-61" transform="translate(970.283203 0)"/>
       <use xlink:href="#DejaVuSans-74" transform="translate(1031.5625 0)"/>
       <use xlink:href="#DejaVuSans-69" transform="translate(1070.771484 0)"/>
       <use xlink:href="#DejaVuSans-6f" transform="translate(1098.554688 0)"/>
       <use xlink:href="#DejaVuSans-6e" transform="translate(1159.736328 0)"/>
       <use xlink:href="#DejaVuSans-2d" transform="translate(1223.115234 0)"/>
       <use xlink:href="#DejaVuSans-6c" transform="translate(1259.199219 0)"/>
       <use xlink:href="#DejaVuSans-61" transform="translate(1286.982422 0)"/>
       <use xlink:href="#DejaVuSans-72" transform="translate(1348.261719 0)"/>
       <use xlink:href="#DejaVuSans-67" transform="translate(1387.625 0)"/>
       <use xlink:href="#DejaVuSans-65" transform="translate(1451.101562 0)"/>
      </g>
     </g>
    </g>
    <g id="text_13">
     <!-- name -->
     <g style="fill: #262626" transform="translate(32.71875 371.693437) rotate(-90) scale(0.18 -0.18)">
      <use xlink:href="#DejaVuSans-6e"/>
      <use xlink:href="#DejaVuSans-61" transform="translate(63.378906 0)"/>
      <use xlink:href="#DejaVuSans-6d" transform="translate(124.658203 0)"/>
      <use xlink:href="#DejaVuSans-65" transform="translate(222.070312 0)"/>
     </g>
    </g>
   </g>
   <g id="patch_3">
    <path d="M 2054.560721 54.4725 
L 2054.560721 177.2925 
L 2056.921148 177.2925 
L 2056.921148 54.4725 
L 2054.560721 54.4725 
z
" clip-path="url(#p2df52b1946)" style="fill: #5875a4; stroke: #4c4c4c; stroke-linejoin: miter"/>
   </g>
   <g id="line2d_17">
    <path d="M 2054.560721 115.8825 
L 2053.773241 115.8825 
" clip-path="url(#p2df52b1946)" style="fill: none; stroke: #4c4c4c"/>
   </g>
   <g id="line2d_18">
    <path d="M 2056.921148 115.8825 
L 2056.974545 115.8825 
" clip-path="url(#p2df52b1946)" style="fill: none; stroke: #4c4c4c"/>
   </g>
   <g id="line2d_19">
    <path d="M 2053.773241 85.1775 
L 2053.773241 146.5875 
" clip-path="url(#p2df52b1946)" style="fill: none; stroke: #4c4c4c; stroke-linecap: round"/>
   </g>
   <g id="line2d_20">
    <path d="M 2056.974545 85.1775 
L 2056.974545 146.5875 
" clip-path="url(#p2df52b1946)" style="fill: none; stroke: #4c4c4c; stroke-linecap: round"/>
   </g>
   <g id="line2d_21">
    <defs>
     <path id="m67fdcc2f15" d="M 0 3 
C 0.795609 3 1.55874 2.683901 2.12132 2.12132 
C 2.683901 1.55874 3 0.795609 3 0 
C 3 -0.795609 2.683901 -1.55874 2.12132 -2.12132 
C 1.55874 -2.683901 0.795609 -3 0 -3 
C -0.795609 -3 -1.55874 -2.683901 -2.12132 -2.12132 
C -2.683901 -1.55874 -3 -0.795609 -3 0 
C -3 0.795609 -2.683901 1.55874 -2.12132 2.12132 
C -1.55874 2.683901 -0.795609 3 0 3 
z
" style="stroke: #4c4c4c"/>
    </defs>
    <g clip-path="url(#p2df52b1946)">
     <use xlink:href="#m67fdcc2f15" x="2050.296639" y="115.8825" style="fill-opacity: 0; stroke: #4c4c4c"/>
    </g>
   </g>
   <g id="patch_4">
    <path d="M 603.443463 207.9975 
L 603.443463 330.8175 
L 603.945819 330.8175 
L 603.945819 207.9975 
L 603.443463 207.9975 
z
" clip-path="url(#p2df52b1946)" style="fill: #5875a4; stroke: #4c4c4c; stroke-linejoin: miter"/>
   </g>
   <g id="line2d_22">
    <path d="M 603.443463 269.4075 
L 603.226268 269.4075 
" clip-path="url(#p2df52b1946)" style="fill: none; stroke: #4c4c4c"/>
   </g>
   <g id="line2d_23">
    <path d="M 603.945819 269.4075 
L 603.996377 269.4075 
" clip-path="url(#p2df52b1946)" style="fill: none; stroke: #4c4c4c"/>
   </g>
   <g id="line2d_24">
    <path d="M 603.226268 238.7025 
L 603.226268 300.1125 
" clip-path="url(#p2df52b1946)" style="fill: none; stroke: #4c4c4c; stroke-linecap: round"/>
   </g>
   <g id="line2d_25">
    <path d="M 603.996377 238.7025 
L 603.996377 300.1125 
" clip-path="url(#p2df52b1946)" style="fill: none; stroke: #4c4c4c; stroke-linecap: round"/>
   </g>
   <g id="line2d_26">
    <g clip-path="url(#p2df52b1946)">
     <use xlink:href="#m67fdcc2f15" x="602.320216" y="269.4075" style="fill-opacity: 0; stroke: #4c4c4c"/>
     <use xlink:href="#m67fdcc2f15" x="619.209441" y="269.4075" style="fill-opacity: 0; stroke: #4c4c4c"/>
    </g>
   </g>
   <g id="patch_5">
    <path d="M 456.328284 361.5225 
L 456.328284 484.3425 
L 457.154915 484.3425 
L 457.154915 361.5225 
L 456.328284 361.5225 
z
" clip-path="url(#p2df52b1946)" style="fill: #5875a4; stroke: #4c4c4c; stroke-linejoin: miter"/>
   </g>
   <g id="line2d_27">
    <path d="M 456.328284 422.9325 
L 455.847355 422.9325 
" clip-path="url(#p2df52b1946)" style="fill: none; stroke: #4c4c4c"/>
   </g>
   <g id="line2d_28">
    <path d="M 457.154915 422.9325 
L 458.089085 422.9325 
" clip-path="url(#p2df52b1946)" style="fill: none; stroke: #4c4c4c"/>
   </g>
   <g id="line2d_29">
    <path d="M 455.847355 392.2275 
L 455.847355 453.6375 
" clip-path="url(#p2df52b1946)" style="fill: none; stroke: #4c4c4c; stroke-linecap: round"/>
   </g>
   <g id="line2d_30">
    <path d="M 458.089085 392.2275 
L 458.089085 453.6375 
" clip-path="url(#p2df52b1946)" style="fill: none; stroke: #4c4c4c; stroke-linecap: round"/>
   </g>
   <g id="line2d_31">
    <g clip-path="url(#p2df52b1946)">
     <use xlink:href="#m67fdcc2f15" x="458.613807" y="422.9325" style="fill-opacity: 0; stroke: #4c4c4c"/>
    </g>
   </g>
   <g id="patch_6">
    <path d="M 385.268082 515.0475 
L 385.268082 637.8675 
L 385.3073 637.8675 
L 385.3073 515.0475 
L 385.268082 515.0475 
z
" clip-path="url(#p2df52b1946)" style="fill: #5875a4; stroke: #4c4c4c; stroke-linejoin: miter"/>
   </g>
   <g id="line2d_32">
    <path d="M 385.268082 576.4575 
L 385.265455 576.4575 
" clip-path="url(#p2df52b1946)" style="fill: none; stroke: #4c4c4c"/>
   </g>
   <g id="line2d_33">
    <path d="M 385.3073 576.4575 
L 385.312225 576.4575 
" clip-path="url(#p2df52b1946)" style="fill: none; stroke: #4c4c4c"/>
   </g>
   <g id="line2d_34">
    <path d="M 385.265455 545.7525 
L 385.265455 607.1625 
" clip-path="url(#p2df52b1946)" style="fill: none; stroke: #4c4c4c; stroke-linecap: round"/>
   </g>
   <g id="line2d_35">
    <path d="M 385.312225 545.7525 
L 385.312225 607.1625 
" clip-path="url(#p2df52b1946)" style="fill: none; stroke: #4c4c4c; stroke-linecap: round"/>
   </g>
   <g id="line2d_36"/>
   <g id="line2d_37">
    <path d="M 2056.385638 54.4725 
L 2056.385638 177.2925 
" clip-path="url(#p2df52b1946)" style="fill: none; stroke: #4c4c4c"/>
   </g>
   <g id="line2d_38">
    <path d="M 603.87551 207.9975 
L 603.87551 330.8175 
" clip-path="url(#p2df52b1946)" style="fill: none; stroke: #4c4c4c"/>
   </g>
   <g id="line2d_39">
    <path d="M 456.588393 361.5225 
L 456.588393 484.3425 
" clip-path="url(#p2df52b1946)" style="fill: none; stroke: #4c4c4c"/>
   </g>
   <g id="line2d_40">
    <path d="M 385.269167 515.0475 
L 385.269167 637.8675 
" clip-path="url(#p2df52b1946)" style="fill: none; stroke: #4c4c4c"/>
   </g>
   <g id="patch_7">
    <path d="M 301.68 653.22 
L 301.68 39.12 
" style="fill: none; stroke: #cccccc; stroke-width: 1.25; stroke-linejoin: miter; stroke-linecap: square"/>
   </g>
   <g id="patch_8">
    <path d="M 2140.56 653.22 
L 2140.56 39.12 
" style="fill: none; stroke: #cccccc; stroke-width: 1.25; stroke-linejoin: miter; stroke-linecap: square"/>
   </g>
   <g id="patch_9">
    <path d="M 301.68 653.22 
L 2140.56 653.22 
" style="fill: none; stroke: #cccccc; stroke-width: 1.25; stroke-linejoin: miter; stroke-linecap: square"/>
   </g>
   <g id="patch_10">
    <path d="M 301.68 39.12 
L 2140.56 39.12 
" style="fill: none; stroke: #cccccc; stroke-width: 1.25; stroke-linejoin: miter; stroke-linecap: square"/>
   </g>
   <g id="text_14">
    <!-- System - message -->
    <g style="fill: #262626" transform="translate(1138.142812 33.12) scale(0.18 -0.18)">
     <defs>
      <path id="DejaVuSans-53" d="M 3425 4513 
L 3425 3897 
Q 3066 4069 2747 4153 
Q 2428 4238 2131 4238 
Q 1616 4238 1336 4038 
Q 1056 3838 1056 3469 
Q 1056 3159 1242 3001 
Q 1428 2844 1947 2747 
L 2328 2669 
Q 3034 2534 3370 2195 
Q 3706 1856 3706 1288 
Q 3706 609 3251 259 
Q 2797 -91 1919 -91 
Q 1588 -91 1214 -16 
Q 841 59 441 206 
L 441 856 
Q 825 641 1194 531 
Q 1563 422 1919 422 
Q 2459 422 2753 634 
Q 3047 847 3047 1241 
Q 3047 1584 2836 1778 
Q 2625 1972 2144 2069 
L 1759 2144 
Q 1053 2284 737 2584 
Q 422 2884 422 3419 
Q 422 4038 858 4394 
Q 1294 4750 2059 4750 
Q 2388 4750 2728 4690 
Q 3069 4631 3425 4513 
z
" transform="scale(0.015625)"/>
      <path id="DejaVuSans-79" d="M 2059 -325 
Q 1816 -950 1584 -1140 
Q 1353 -1331 966 -1331 
L 506 -1331 
L 506 -850 
L 844 -850 
Q 1081 -850 1212 -737 
Q 1344 -625 1503 -206 
L 1606 56 
L 191 3500 
L 800 3500 
L 1894 763 
L 2988 3500 
L 3597 3500 
L 2059 -325 
z
" transform="scale(0.015625)"/>
      <path id="DejaVuSans-20" transform="scale(0.015625)"/>
     </defs>
     <use xlink:href="#DejaVuSans-53"/>
     <use xlink:href="#DejaVuSans-79" transform="translate(63.476562 0)"/>
     <use xlink:href="#DejaVuSans-73" transform="translate(122.65625 0)"/>
     <use xlink:href="#DejaVuSans-74" transform="translate(174.755859 0)"/>
     <use xlink:href="#DejaVuSans-65" transform="translate(213.964844 0)"/>
     <use xlink:href="#DejaVuSans-6d" transform="translate(275.488281 0)"/>
     <use xlink:href="#DejaVuSans-20" transform="translate(372.900391 0)"/>
     <use xlink:href="#DejaVuSans-2d" transform="translate(404.6875 0)"/>
     <use xlink:href="#DejaVuSans-20" transform="translate(440.771484 0)"/>
     <use xlink:href="#DejaVuSans-6d" transform="translate(472.558594 0)"/>
     <use xlink:href="#DejaVuSans-65" transform="translate(569.970703 0)"/>
     <use xlink:href="#DejaVuSans-73" transform="translate(631.494141 0)"/>
     <use xlink:href="#DejaVuSans-73" transform="translate(683.59375 0)"/>
     <use xlink:href="#DejaVuSans-61" transform="translate(735.693359 0)"/>
     <use xlink:href="#DejaVuSans-67" transform="translate(796.972656 0)"/>
     <use xlink:href="#DejaVuSans-65" transform="translate(860.449219 0)"/>
    </g>
   </g>
  </g>
 </g>
 <defs>
  <clipPath id="p2df52b1946">
   <rect x="301.68" y="39.12" width="1838.88" height="614.1"/>
  </clipPath>
 </defs>
</svg>
